{
.appVersion = "3108";
.formatVersion = 3;
DisplayStrings = (
"ĂĂĀĀĄĄǺǺǼǼĆĆČČĈĈĊĊĎĎĐĐĔĔĚĚĖĖĒĒĞĞĜĜĠĠĦĦĤĤĬĬİİĪĪĨĨĴĴĹĹĽĽŃŃŇŇŎŎÒÒŐŐŌŌǾǾŔŔŘŘŚŚŞŞŜŜŦŦŤŤŬŬŰŰŪŪŲŲŮŮŨŨẂẂŴŴẄẄẀẀŶŶỲỲŹŹŻŻŢŢááăăââääààāāąąååǻǻããǽǽććččççĉĉċċďďđđĕĕěěėėèèēēęęğğĝĝġġħħĥĥĭĭīīĩĩĵĵĺĺľľŀńńŉŉňňŏŏòòőőōōǿǿŕŕřřśśşşŝŝŧŧťťŭŭűűūūţţųųůůũũẃẃŵŵẅẅẁẁŷŷỳỳźźżż"
);
customParameters = (
{
name = descriptions;
value = "";
},
{
name = licenses;
value = "This Font Software is licensed under the SIL Open Font License, Version 1.1. This license is available with a FAQ at: http://scripts.sil.org/OFL";
},
{
name = licenseURL;
value = "http://scripts.sil.org/OFL";
},
{
name = sampleTexts;
value = "";
},
{
name = uniqueID;
value = "EduardoRodriguezTunni: Paprika: 2012";
},
{
name = versionString;
value = "Version 1.001";
},
{
name = codePageRanges;
value = (
);
},
{
name = openTypeOS2FamilyClass;
value = (
0,
0
);
},
{
name = panose;
value = (
2,
0,
5,
3,
6,
0,
0,
2,
0,
4
);
},
{
name = openTypeOS2SubscriptXOffset;
value = 0;
},
{
name = openTypeOS2SubscriptXSize;
value = 650;
},
{
name = openTypeOS2SubscriptYOffset;
value = 75;
},
{
name = openTypeOS2SubscriptYSize;
value = 600;
},
{
name = openTypeOS2SuperscriptXOffset;
value = 0;
},
{
name = openTypeOS2SuperscriptXSize;
value = 650;
},
{
name = openTypeOS2SuperscriptYOffset;
value = 350;
},
{
name = openTypeOS2SuperscriptYSize;
value = 600;
},
{
name = unicodeRanges;
value = (
0,
1,
2,
3,
5,
7,
31,
32,
33,
35,
38,
45,
60,
62
);
},
{
name = vendorID;
value = TIPO;
},
{
name = trademarks;
value = "Paprika is a trademark of Eduardo Rodriguez Tunni.";
},
{
name = year;
value = 2012;
}
);
date = "2022-03-30 07:39:34 +0000";
familyName = Paprika;
featurePrefixes = (
{
code = "languagesystem DFLT dflt;
languagesystem latn dflt; # Latin default
";
name = Languagesystems;
},
{
code = "#
# Feature definitions
#

###
# OpenType Layout feature definitions
# Format: Adobe FDK for OpenType (AFDKO) version 2.5
# Generated on: 2013-11-23 14:26
# Generated by: Fontlab

glyphs = (
{
glyphname = A;
layers = (
{
layerId = master01;
shapes = (
{
closed = 1;
nodes = (
(527,344,o),
(528,671,o),
(490,793,cs),
(466,871,o),
(439,889,o),
(378,889,cs),
(356,889,o),
(327,875,o),
(314,866,c),
(316,858,o),
(317,850,o),
(317,841,cs),
(317,808,o),
(305,770,o),
(292,731,cs),
(236,563,o),
(62,246,o),
(22,125,cs),
(11,90,o),
(5,63,o),
(5,43,cs),
(5,6,o),
(23,-7,o),
(51,-7,cs),
(68,-7,o),
(100,0,o),
(119,29,c),
(110,43,o),
(107,60,o),
(107,77,cs),
(107,138,o),
(135,203,o),
(158,255,c),
(451,255,l),
(458,197,o),
(466,148,o),
(476,115,cs),
(507,14,o),
(542,-7,o),
(604,-7,cs),
(620,-7,o),
(654,0,o),
(667,29,c),
(623,65,o),
(596,104,o),
(581,156,cs,{
name = hr00;
})
);
},
{
closed = 1;
nodes = (
(417,632,o),
(430,464,o),
(444,323,c),
(188,323,l),
(255,470,o),
(343,635,o),
(386,737,c)
);
}
);
width = 657;
}
);
unicode = 65;
},
{
glyphname = Aacute;
layers = (
{
layerId = master01;
shapes = (
{
closed = 1;
nodes = (
(417,632,o),
(430,464,o),
(444,323,c),
(188,323,l),
(255,470,o),
(343,635,o),
(386,737,c)
);
},
{
closed = 1;
nodes = (
(542,1042,o),
(548,1048,o),
(548,1061,cs),
(548,1073,o),
(535,1089,o),
(491,1089,cs),
(478,1089,o),
(463,1088,o),
(444,1084,c),
(427,1053,o),
(393,1021,o),
(284,939,c),
(293,921,o),
(303,911,o),
(311,911,cs),
(331,911,o),
(439,969,o),
(511,1020,cs)
);
},
{
closed = 1;
nodes = (
(527,344,o),
(528,671,o),
(490,793,cs),
(466,871,o),
(439,889,o),
(378,889,cs),
(356,889,o),
(327,875,o),
(314,866,c),
(316,858,o),
(317,850,o),
(317,841,cs),
(317,808,o),
(305,770,o),
(292,731,cs),
(236,563,o),
(62,246,o),
(22,125,cs),
(11,90,o),
(5,63,o),
(5,43,cs),
(5,6,o),
(23,-7,o),
(51,-7,cs),
(68,-7,o),
(100,0,o),
(119,29,c),
(110,43,o),
(107,60,o),
(107,77,cs),
(107,138,o),
(135,203,o),
(158,255,c),
(451,255,l),
(458,197,o),
(466,148,o),
(476,115,cs),
(507,14,o),
(542,-7,o),
(604,-7,cs),
(620,-7,o),
(654,0,o),
(667,29,c),
(623,65,o),
(596,104,o),
(581,156,cs)
);
},
{
ref = A;
},
{
pos = (167,0);
ref = acute.case;
}
);
width = 657;
}
);
unicode = 193;
},
{
glyphname = Acircumflex;
layers = (
{
layerId = master01;
shapes = (
{
closed = 1;
nodes = (
(417,632,o),
(430,464,o),
(444,323,c),
(188,323,l),
(255,470,o),
(343,635,o),
(386,737,c)
);
},
{
closed = 1;
nodes = (
(545,911,o),
(555,921,o),
(564,939,c),
(501,1001,o),
(464,1065,o),
(455,1078,c),
(444,1086,o),
(424,1089,o),
(404,1089,cs),
(387,1089,o),
(371,1087,o),
(361,1084,c),
(344,1053,o),
(324,1021,o),
(215,939,c),
(225,921,o),
(235,911,o),
(242,911,cs),
(259,911,o),
(336,957,o),
(401,1002,c),
(471,946,o),
(518,911,o),
(537,911,cs)
);
},
{
closed = 1;
nodes = (
(527,344,o),
(528,671,o),
(490,793,cs),
(466,871,o),
(439,889,o),
(378,889,cs),
(356,889,o),
(327,875,o),
(314,866,c),
(316,858,o),
(317,850,o),
(317,841,cs),
(317,808,o),
(305,770,o),
(292,731,cs),
(236,563,o),
(62,246,o),
(22,125,cs),
(11,90,o),
(5,63,o),
(5,43,cs),
(5,6,o),
(23,-7,o),
(51,-7,cs),
(68,-7,o),
(100,0,o),
(119,29,c),
(110,43,o),
(107,60,o),
(107,77,cs),
(107,138,o),
(135,203,o),
(158,255,c),
(451,255,l),
(458,197,o),
(466,148,o),
(476,115,cs),
(507,14,o),
(542,-7,o),
(604,-7,cs),
(620,-7,o),
(654,0,o),
(667,29,c),
(623,65,o),
(596,104,o),
(581,156,cs)
);
},
{
ref = A;
},
{
pos = (54,0);
ref = circumflex.case;
}
);
width = 657;
}
);
unicode = 194;
},
{
glyphname = Adieresis;
layers = (
{
layerId = master01;
shapes = (
{
closed = 1;
nodes = (
(350,1043,o),
(323,1055,o),
(292,1055,cs),
(270,1055,o),
(247,1047,o),
(223,1032,c),
(218,1008,o),
(216,989,o),
(216,975,cs),
(216,943,o),
(230,928,o),
(270,928,cs),
(291,928,o),
(315,936,o),
(339,951,c),
(346,977,o),
(350,997,o),
(350,1012,cs)
);
},
{
closed = 1;
nodes = (
(584,1043,o),
(557,1055,o),
(526,1055,cs),
(504,1055,o),
(482,1047,o),
(457,1032,c),
(453,1008,o),
(450,989,o),
(450,975,cs),
(450,943,o),
(464,928,o),
(504,928,cs),
(525,928,o),
(549,936,o),
(573,951,c),
(581,977,o),
(584,997,o),
(584,1012,cs)
);
},
{
closed = 1;
nodes = (
(527,344,o),
(528,671,o),
(490,793,cs),
(466,871,o),
(439,889,o),
(378,889,cs),
(356,889,o),
(327,875,o),
(314,866,c),
(316,858,o),
(317,850,o),
(317,841,cs),
(317,808,o),
(305,770,o),
(292,731,cs),
(236,563,o),
(62,246,o),
(22,125,cs),
(11,90,o),
(5,63,o),
(5,43,cs),
(5,6,o),
(23,-7,o),
(51,-7,cs),
(68,-7,o),
(100,0,o),
(119,29,c),
(110,43,o),
(107,60,o),
(107,77,cs),
(107,138,o),
(135,203,o),
(158,255,c),
(451,255,l),
(458,197,o),
(466,148,o),
(476,115,cs),
(507,14,o),
(542,-7,o),
(604,-7,cs),
(620,-7,o),
(654,0,o),
(667,29,c),
(623,65,o),
(596,104,o),
(581,156,cs)
);
},
{
closed = 1;
nodes = (
(417,632,o),
(430,464,o),
(444,323,c),
(188,323,l),
(255,470,o),
(343,635,o),
(386,737,c)
);
},
{
ref = A;
},
{
pos = (211,0);
ref = dieresis.case;
}
);
width = 657;
}
);
unicode = 196;
},
{
glyphname = Agrave;
layers = (
{
layerId = master01;
shapes = (
{
closed = 1;
nodes = (
(394,969,o),
(503,911,o),
(523,911,cs),
(530,911,o),
(540,921,o),
(550,939,c),
(441,1021,o),
(406,1053,o),
(389,1084,c),
(370,1088,o),
(355,1089,o),
(342,1089,cs),
(298,1089,o),
(285,1073,o),
(285,1061,cs),
(285,1048,o),
(291,1042,o),
(322,1020,cs)
);
},
{
ref = A;
},
{
pos = (133,0);
ref = grave.case;
}
);
width = 657;
}
);
unicode = 192;
},
{
glyphname = Aring;
layers = (
{
layerId = master01;
shapes = (
{
closed = 1;
nodes = (
(367,1145,o),
(294,1089,o),
(294,993,cs),
(294,928,o),
(330,899,o),
(361,887,c),
(343,883,o),
(324,873,o),
(314,866,c),
(316,858,o),
(317,850,o),
(317,841,cs),
(317,808,o),
(305,770,o),
(292,731,cs),
(236,563,o),
(62,246,o),
(22,125,cs),
(11,90,o),
(5,63,o),
(5,43,cs),
(5,6,o),
(23,-7,o),
(51,-7,cs),
(68,-7,o),
(100,0,o),
(119,29,c),
(110,43,o),
(107,60,o),
(107,77,cs),
(107,138,o),
(135,203,o),
(158,255,c),
(451,255,l),
(458,197,o),
(466,148,o),
(476,115,cs),
(507,14,o),
(542,-7,o),
(604,-7,cs),
(620,-7,o),
(654,0,o),
(667,29,c),
(623,65,o),
(596,104,o),
(581,156,cs),
(525,343,o),
(528,671,o),
(490,793,cs),
(473,846,o),
(456,872,o),
(427,882,c),
(484,896,o),
(537,949,o),
(537,1032,cs),
(537,1129,o),
(456,1145,o),
(434,1145,cs)
);
},
{
closed = 1;
nodes = (
(417,632,o),
(430,464,o),
(444,323,c),
(188,323,l),
(255,470,o),
(343,635,o),
(386,737,c)
);
},
{
closed = 1;
nodes = (
(446,1099,o),
(461,1077,o),
(461,1034,cs),
(461,998,o),
(450,926,o),
(409,926,cs),
(382,926,o),
(367,948,o),
(367,990,cs),
(367,1027,o),
(378,1099,o),
(419,1099,cs)
);
},
{
ref = A;
},
{
pos = (203,0);
ref = ring.case;
}
);
width = 657;
}
);
unicode = 197;
},
{
glyphname = Atilde;
layers = (
{
layerId = master01;
shapes = (
{
closed = 1;
nodes = (
(417,632,o),
(430,464,o),
(444,323,c),
(188,323,l),
(255,470,o),
(343,635,o),
(386,737,c)
);
},
{
closed = 1;
nodes = (
(532,1027,o),
(510,1007,o),
(488,1007,cs),
(439,1007,o),
(421,1073,o),
(345,1073,cs),
(289,1073,o),
(246,1013,o),
(246,958,cs),
(246,931,o),
(268,926,o),
(290,926,c),
(297,973,o),
(319,993,o),
(341,993,cs),
(390,993,o),
(408,927,o),
(484,927,cs),
(540,927,o),
(583,987,o),
(583,1042,cs),
(583,1069,o),
(561,1074,o),
(539,1074,c)
);
},
{
closed = 1;
nodes = (
(527,344,o),
(528,671,o),
(490,793,cs),
(466,871,o),
(439,889,o),
(378,889,cs),
(356,889,o),
(327,875,o),
(314,866,c),
(316,858,o),
(317,850,o),
(317,841,cs),
(317,808,o),
(305,770,o),
(292,731,cs),
(236,563,o),
(62,246,o),
(22,125,cs),
(11,90,o),
(5,63,o),
(5,43,cs),
(5,6,o),
(23,-7,o),
(51,-7,cs),
(68,-7,o),
(100,0,o),
(119,29,c),
(110,43,o),
(107,60,o),
(107,77,cs),
(107,138,o),
(135,203,o),
(158,255,c),
(451,255,l),
(458,197,o),
(466,148,o),
(476,115,cs),
(507,14,o),
(542,-7,o),
(604,-7,cs),
(620,-7,o),
(654,0,o),
(667,29,c),
(623,65,o),
(596,104,o),
(581,156,cs)
);
},
{
ref = A;
},
{
pos = (111,0);
ref = tilde.case;
}
);
width = 657;
}
);
unicode = 195;
},
{
glyphname = AE;
layers = (
{
layerId = master01;
shapes = (
{
closed = 1;
nodes = (
(642,786,o),
(725,776,o),
(800,776,cs),
(870,776,o),
(908,793,o),
(915,884,c,{
name = hr01;
}),
(881,868,o),
(822,865,o),
(755,865,cs,{
name = hr02;
}),
(672,865,o),
(601,867,o),
(530,867,cs),
(462,867,o),
(386,864,o),
(344,836,c),
(344,790,o),
(325,742,o),
(308,702,cs),
(222,506,o),
(-49,194,o),
(-49,49,cs),
(-49,4,o),
(-33,-7,o),
(-8,-7,cs),
(9,-7,o),
(42,0,o),
(63,29,c),
(58,40,o),
(56,52,o),
(56,64,cs),
(56,131,o),
(112,238,o),
(182,353,c),
(402,353,l),
(384,248,o),
(368,151,o),
(368,89,cs),
(368,20,o),
(397,-8,o),
(440,-8,cs,{
name = hr03;
}),
(454,-8,o),
(474,-3,o),
(495,11,c,{
name = hr04;
}),
(564,1,o),
(651,-10,o),
(696,-10,cs),
(794,-10,o),
(849,-5,o),
(857,105,c),
(819,85,o),
(723,79,o),
(619,79,cs,{
name = hr05;
}),
(570,79,o),
(522,81,o),
(482,83,c),
(481,92,o),
(480,102,o),
(480,112,cs),
(480,178,o),
(490,263,o),
(503,353,c),
(641,353,ls),
(716,353,o),
(771,357,o),
(779,466,c),
(728,440,o),
(632,426,o),
(514,422,c),
(538,571,o),
(565,720,o),
(565,798,c)
);
},
{
closed = 1;
nodes = (
(449,794,o),
(452,772,o),
(452,741,cs),
(452,651,o),
(434,535,o),
(414,421,c),
(224,421,l),
(322,575,o),
(429,731,o),
(443,810,c)
);
}
);
width = 874;
}
);
unicode = 198;
},
{
glyphname = B;
layers = (
{
layerId = master01;
shapes = (
{
closed = 1;
nodes = (
(612,805,o),
(531,887,o),
(361,887,cs),
(294,887,o),
(223,876,o),
(159,864,c),
(167,839,o),
(174,793,o),
(174,765,cs),
(174,598,o),
(98,237,o),
(98,116,cs,{
name = hr01;
}),
(98,27,o),
(150,-11,o),
(283,-11,cs),
(533,-11,o),
(626,178,o),
(626,290,cs),
(626,395,o),
(563,459,o),
(432,479,c),
(550,536,o),
(612,627,o),
(612,711,cs)
);
},
{
closed = 1;
nodes = (
(207,231,o),
(219,328,o),
(234,427,c),
(264,430,o),
(293,435,o),
(320,441,c),
(465,437,o),
(519,354,o),
(519,267,cs,{
name = hr03;
}),
(519,166,o),
(444,59,o),
(310,59,cs),
(268,59,o),
(238,69,o),
(215,84,c),
(210,103,o),
(207,127,o),
(207,160,cs)
);
},
{
closed = 1;
nodes = (
(309,826,o),
(330,829,o),
(350,829,cs),
(464,829,o),
(507,757,o),
(507,678,cs),
(507,589,o),
(430,493,o),
(242,482,c),
(263,616,o),
(286,748,o),
(287,822,c,{
name = hr04;
})
);
}
);
width = 663;
}
);
unicode = 66;
},
{
glyphname = C;
layers = (
{
layerId = master01;
shapes = (
{
closed = 1;
nodes = (
(208,887,o),
(78,586,o),
(78,336,cs),
(78,138,o),
(161,-21,o),
(365,-21,cs),
(478,-21,o),
(584,48,o),
(584,117,cs),
(584,142,o),
(576,167,o),
(559,186,c),
(528,96,o),
(467,49,o),
(393,49,cs),
(253,49,o),
(186,170,o),
(186,382,cs),
(186,504,o),
(228,810,o),
(411,810,cs),
(493,810,o),
(536,762,o),
(567,693,c),
(588,712,o),
(618,738,o),
(618,793,cs),
(618,855,o),
(550,887,o),
(463,887,cs,{
name = hr00;
})
);
}
);
width = 608;
}
);
unicode = 67;
},
{
glyphname = Ccedilla;
layers = (
{
layerId = master01;
shapes = (
{
closed = 1;
nodes = (
(208,887,o),
(78,586,o),
(78,336,cs),
(78,160,o),
(143,15,o),
(300,-15,c),
(269,-91,o),
(269,-94,o),
(269,-97,cs),
(269,-101,o),
(271,-103,o),
(282,-105,cs),
(334,-113,ls),
(361,-117,o),
(374,-134,o),
(374,-158,cs),
(374,-189,o),
(353,-223,o),
(315,-223,cs),
(289,-223,o),
(269,-201,o),
(267,-172,c),
(229,-186,o),
(216,-199,o),
(216,-216,cs),
(216,-244,o),
(250,-272,o),
(304,-272,cs),
(415,-272,o),
(451,-202,o),
(451,-152,cs),
(451,-102,o),
(419,-79,o),
(332,-69,c),
(351,-20,l),
(355,-20,o),
(360,-21,o),
(365,-21,cs),
(478,-21,o),
(584,48,o),
(584,117,cs),
(584,142,o),
(576,167,o),
(559,186,c),
(528,96,o),
(467,49,o),
(393,49,cs),
(253,49,o),
(186,170,o),
(186,382,cs),
(186,504,o),
(228,810,o),
(411,810,cs),
(493,810,o),
(536,762,o),
(567,693,c),
(588,712,o),
(618,738,o),
(618,793,cs),
(618,855,o),
(550,887,o),
(463,887,cs)
);
},
{
ref = C;
},
{
pos = (130,0);
ref = cedilla;
}
);
width = 608;
}
);
unicode = 199;
},
{
glyphname = D;
layers = (
{
layerId = master01;
shapes = (
{
closed = 1;
nodes = (
(533,-11,o),
(691,253,o),
(691,559,cs),
(691,802,o),
(568,880,o),
(373,880,cs),
(309,880,o),
(237,871,o),
(159,854,c),
(167,830,o),
(174,778,o),
(174,750,cs),
(174,575,o),
(98,256,o),
(98,116,cs,{
name = hr01;
}),
(98,27,o),
(150,-11,o),
(283,-11,cs)
);
},
{
closed = 1;
nodes = (
(207,350,o),
(288,692,o),
(288,812,c,{
name = hr02;
}),
(315,817,o),
(340,819,o),
(364,819,cs),
(528,819,o),
(586,746,o),
(586,505,cs),
(586,331,o),
(516,59,o),
(312,59,cs),
(269,59,o),
(239,70,o),
(215,85,c),
(210,104,o),
(207,127,o),
(207,160,cs)
);
}
);
width = 730;
}
);
unicode = 68;
},
{
glyphname = Eth;
layers = (
{
layerId = master01;
shapes = (
{
closed = 1;
nodes = (
(44,411,o),
(53,392,o),
(63,376,c),
(78,385,o),
(107,391,o),
(132,393,c),
(114,283,o),
(98,180,o),
(98,116,cs),
(98,27,o),
(150,-11,o),
(283,-11,cs),
(533,-11,o),
(691,253,o),
(691,559,cs),
(691,802,o),
(568,880,o),
(373,880,cs),
(309,880,o),
(237,871,o),
(159,854,c),
(167,830,o),
(174,778,o),
(174,750,cs),
(174,676,o),
(160,577,o),
(145,476,c),
(125,477,o),
(109,478,o),
(100,478,cs),
(68,478,o),
(44,464,o),
(44,437,cs)
);
},
{
closed = 1;
nodes = (
(207,225,o),
(216,307,o),
(229,393,c),
(273,392,o),
(324,391,o),
(342,391,cs),
(420,391,o),
(448,412,o),
(448,442,cs),
(448,458,o),
(445,473,o),
(433,488,c),
(410,474,o),
(335,467,o),
(305,467,cs),
(291,467,o),
(267,468,o),
(240,469,c),
(263,609,o),
(288,745,o),
(288,812,c),
(315,817,o),
(340,819,o),
(364,819,cs),
(528,819,o),
(586,746,o),
(586,505,cs),
(586,331,o),
(516,59,o),
(312,59,cs),
(269,59,o),
(239,70,o),
(215,85,c),
(210,104,o),
(207,127,o),
(207,160,cs)
);
},
{
ref = D;
},
{
ref = barra;
}
);
width = 730;
}
);
unicode = 208;
},
{
glyphname = E;
layers = (
{
layerId = master01;
shapes = (
{
closed = 1;
nodes = (
(444,398,o),
(499,403,o),
(507,512,c),
(457,486,o),
(352,480,o),
(251,479,c),
(272,605,o),
(293,730,o),
(293,798,c),
(370,786,o),
(453,776,o),
(528,776,cs),
(598,776,o),
(636,793,o),
(643,884,c,{
name = hr01;
}),
(609,868,o),
(550,865,o),
(483,865,cs,{
name = hr02;
}),
(430,865,o),
(373,867,o),
(321,867,cs),
(262,867,o),
(196,864,o),
(165,839,c),
(173,815,o),
(180,769,o),
(180,741,cs),
(180,666,o),
(167,573,o),
(152,478,c),
(104,474,o),
(96,460,o),
(90,413,c),
(108,413,o),
(125,413,o),
(141,412,c),
(119,285,o),
(96,162,o),
(96,89,cs,{
name = hr03;
}),
(96,20,o),
(125,-8,o),
(168,-8,cs),
(182,-8,o),
(202,-3,o),
(222,11,c,{
name = hr04;
}),
(292,1,o),
(379,-10,o),
(424,-10,cs),
(522,-10,o),
(577,-5,o),
(585,105,c),
(547,85,o),
(451,79,o),
(347,79,cs,{
name = hr05;
}),
(298,79,o),
(250,81,o),
(209,83,c),
(208,92,o),
(208,102,o),
(208,112,cs),
(208,191,o),
(222,298,o),
(239,407,c),
(288,403,o),
(327,398,o),
(369,398,cs)
);
}
);
width = 602;
}
);
unicode = 69;
},
{
glyphname = Eacute;
layers = (
{
layerId = master01;
shapes = (
{
closed = 1;
nodes = (
(444,398,o),
(499,403,o),
(507,512,c),
(457,486,o),
(352,480,o),
(251,479,c),
(272,605,o),
(293,730,o),
(293,798,c),
(370,786,o),
(453,776,o),
(528,776,cs),
(598,776,o),
(636,793,o),
(643,884,c),
(609,868,o),
(550,865,o),
(483,865,cs),
(430,865,o),
(373,867,o),
(321,867,cs),
(262,867,o),
(196,864,o),
(165,839,c),
(173,815,o),
(180,769,o),
(180,741,cs),
(180,666,o),
(167,573,o),
(152,478,c),
(104,474,o),
(96,460,o),
(90,413,c),
(108,413,o),
(125,413,o),
(141,412,c),
(119,285,o),
(96,162,o),
(96,89,cs),
(96,20,o),
(125,-8,o),
(168,-8,cs),
(182,-8,o),
(202,-3,o),
(222,11,c),
(292,1,o),
(379,-10,o),
(424,-10,cs),
(522,-10,o),
(577,-5,o),
(585,105,c),
(547,85,o),
(451,79,o),
(347,79,cs),
(298,79,o),
(250,81,o),
(209,83,c),
(208,92,o),
(208,102,o),
(208,112,cs),
(208,191,o),
(222,298,o),
(239,407,c),
(288,403,o),
(327,398,o),
(369,398,cs)
);
},
{
closed = 1;
nodes = (
(537,1042,o),
(543,1048,o),
(543,1061,cs),
(543,1073,o),
(530,1089,o),
(486,1089,cs),
(473,1089,o),
(458,1088,o),
(439,1084,c),
(422,1053,o),
(388,1021,o),
(279,939,c),
(288,921,o),
(298,911,o),
(306,911,cs),
(326,911,o),
(434,969,o),
(506,1020,cs)
);
},
{
ref = E;
},
{
pos = (162,0);
ref = acute.case;
}
);
width = 602;
}
);
unicode = 201;
},
{
glyphname = Ecircumflex;
layers = (
{
layerId = master01;
shapes = (
{
closed = 1;
nodes = (
(444,398,o),
(499,403,o),
(507,512,c),
(457,486,o),
(352,480,o),
(251,479,c),
(272,605,o),
(293,730,o),
(293,798,c),
(370,786,o),
(453,776,o),
(528,776,cs),
(598,776,o),
(636,793,o),
(643,884,c),
(609,868,o),
(550,865,o),
(483,865,cs),
(430,865,o),
(373,867,o),
(321,867,cs),
(262,867,o),
(196,864,o),
(165,839,c),
(173,815,o),
(180,769,o),
(180,741,cs),
(180,666,o),
(167,573,o),
(152,478,c),
(104,474,o),
(96,460,o),
(90,413,c),
(108,413,o),
(125,413,o),
(141,412,c),
(119,285,o),
(96,162,o),
(96,89,cs),
(96,20,o),
(125,-8,o),
(168,-8,cs),
(182,-8,o),
(202,-3,o),
(222,11,c),
(292,1,o),
(379,-10,o),
(424,-10,cs),
(522,-10,o),
(577,-5,o),
(585,105,c),
(547,85,o),
(451,79,o),
(347,79,cs),
(298,79,o),
(250,81,o),
(209,83,c),
(208,92,o),
(208,102,o),
(208,112,cs),
(208,191,o),
(222,298,o),
(239,407,c),
(288,403,o),
(327,398,o),
(369,398,cs)
);
},
{
closed = 1;
nodes = (
(552,911,o),
(562,921,o),
(571,939,c),
(508,1001,o),
(471,1065,o),
(462,1078,c),
(451,1086,o),
(431,1089,o),
(411,1089,cs),
(394,1089,o),
(378,1087,o),
(368,1084,c),
(351,1053,o),
(331,1021,o),
(222,939,c),
(232,921,o),
(242,911,o),
(249,911,cs),
(266,911,o),
(343,957,o),
(408,1002,c),
(478,946,o),
(525,911,o),
(544,911,cs)
);
},
{
ref = E;
},
{
pos = (62,0);
ref = circumflex.case;
}
);
width = 602;
}
);
unicode = 202;
},
{
glyphname = Edieresis;
layers = (
{
layerId = master01;
shapes = (
{
closed = 1;
nodes = (
(444,398,o),
(499,403,o),
(507,512,c),
(457,486,o),
(352,480,o),
(251,479,c),
(272,605,o),
(293,730,o),
(293,798,c),
(370,786,o),
(453,776,o),
(528,776,cs),
(598,776,o),
(636,793,o),
(643,884,c),
(609,868,o),
(550,865,o),
(483,865,cs),
(430,865,o),
(373,867,o),
(321,867,cs),
(262,867,o),
(196,864,o),
(165,839,c),
(173,815,o),
(180,769,o),
(180,741,cs),
(180,666,o),
(167,573,o),
(152,478,c),
(104,474,o),
(96,460,o),
(90,413,c),
(108,413,o),
(125,413,o),
(141,412,c),
(119,285,o),
(96,162,o),
(96,89,cs),
(96,20,o),
(125,-8,o),
(168,-8,cs),
(182,-8,o),
(202,-3,o),
(222,11,c),
(292,1,o),
(379,-10,o),
(424,-10,cs),
(522,-10,o),
(577,-5,o),
(585,105,c),
(547,85,o),
(451,79,o),
(347,79,cs),
(298,79,o),
(250,81,o),
(209,83,c),
(208,92,o),
(208,102,o),
(208,112,cs),
(208,191,o),
(222,298,o),
(239,407,c),
(288,403,o),
(327,398,o),
(369,398,cs)
);
},
{
closed = 1;
nodes = (
(373,1043,o),
(346,1055,o),
(315,1055,cs),
(293,1055,o),
(270,1047,o),
(246,1032,c),
(241,1008,o),
(239,989,o),
(239,975,cs),
(239,943,o),
(253,928,o),
(293,928,cs),
(314,928,o),
(338,936,o),
(362,951,c),
(369,977,o),
(373,997,o),
(373,1012,cs)
);
},
{
closed = 1;
nodes = (
(607,1043,o),
(580,1055,o),
(549,1055,cs),
(527,1055,o),
(505,1047,o),
(480,1032,c),
(476,1008,o),
(473,989,o),
(473,975,cs),
(473,943,o),
(487,928,o),
(527,928,cs),
(548,928,o),
(572,936,o),
(596,951,c),
(604,977,o),
(607,997,o),
(607,1012,cs)
);
},
{
ref = E;
},
{
pos = (234,0);
ref = dieresis.case;
}
);
width = 602;
}
);
unicode = 203;
},
{
glyphname = Egrave;
layers = (
{
layerId = master01;
shapes = (
{
closed = 1;
nodes = (
(444,398,o),
(499,403,o),
(507,512,c),
(457,486,o),
(352,480,o),
(251,479,c),
(272,605,o),
(293,730,o),
(293,798,c),
(370,786,o),
(453,776,o),
(528,776,cs),
(598,776,o),
(636,793,o),
(643,884,c),
(609,868,o),
(550,865,o),
(483,865,cs),
(430,865,o),
(373,867,o),
(321,867,cs),
(262,867,o),
(196,864,o),
(165,839,c),
(173,815,o),
(180,769,o),
(180,741,cs),
(180,666,o),
(167,573,o),
(152,478,c),
(104,474,o),
(96,460,o),
(90,413,c),
(108,413,o),
(125,413,o),
(141,412,c),
(119,285,o),
(96,162,o),
(96,89,cs),
(96,20,o),
(125,-8,o),
(168,-8,cs),
(182,-8,o),
(202,-3,o),
(222,11,c),
(292,1,o),
(379,-10,o),
(424,-10,cs),
(522,-10,o),
(577,-5,o),
(585,105,c),
(547,85,o),
(451,79,o),
(347,79,cs),
(298,79,o),
(250,81,o),
(209,83,c),
(208,92,o),
(208,102,o),
(208,112,cs),
(208,191,o),
(222,298,o),
(239,407,c),
(288,403,o),
(327,398,o),
(369,398,cs)
);
},
{
closed = 1;
nodes = (
(388,969,o),
(497,911,o),
(517,911,cs),
(524,911,o),
(534,921,o),
(544,939,c),
(435,1021,o),
(400,1053,o),
(383,1084,c),
(364,1088,o),
(349,1089,o),
(336,1089,cs),
(292,1089,o),
(279,1073,o),
(279,1061,cs),
(279,1048,o),
(285,1042,o),
(316,1020,cs)
);
},
{
ref = E;
},
{
pos = (126,0);
ref = grave.case;
}
);
width = 602;
}
);
unicode = 200;
},
{
glyphname = Eogonek;
layers = (
{
layerId = master01;
shapes = (
{
closed = 1;
nodes = (
(390,1,o),
(323,-66,o),
(323,-152,cs),
(323,-208,o),
(359,-264,o),
(436,-264,cs),
(515,-264,o),
(565,-215,o),
(565,-178,cs),
(565,-150,o),
(558,-136,o),
(543,-125,c),
(532,-172,o),
(487,-200,o),
(450,-200,cs),
(423,-200,o),
(401,-180,o),
(401,-145,cs),
(401,-118,o),
(404,-52,o),
(514,-3,c),
(514,48,l)
);
},
{
ref = E;
}
);
width = 602;
}
);
unicode = 280;
},
{
glyphname = F;
layers = (
{
layerId = master01;
shapes = (
{
closed = 1;
nodes = (
(362,786,o),
(436,776,o),
(504,776,cs),
(573,776,o),
(612,793,o),
(619,884,c,{
name = hr01;
}),
(587,868,o),
(532,865,o),
(470,865,cs,{
name = hr02;
}),
(420,865,o),
(368,867,o),
(319,867,cs),
(262,867,o),
(196,864,o),
(165,839,c),
(173,815,o),
(180,769,o),
(180,741,cs),
(180,672,o),
(167,575,o),
(153,478,c),
(104,474,o),
(96,460,o),
(90,413,c),
(109,413,o),
(126,413,o),
(142,412,c),
(124,299,o),
(106,185,o),
(106,125,cs,{
name = hr03;
}),
(106,24,o),
(137,-7,o),
(184,-7,cs),
(200,-7,o),
(228,0,o),
(253,29,c),
(220,65,o),
(214,114,o),
(214,166,cs),
(214,233,o),
(225,319,o),
(238,407,c),
(288,403,o),
(327,398,o),
(369,398,cs),
(444,398,o),
(499,403,o),
(507,512,c),
(456,486,o),
(351,480,o),
(250,479,c),
(270,603,o),
(292,724,o),
(293,798,c)
);
}
);
width = 570;
}
);
unicode = 70;
},
{
glyphname = G;
layers = (
{
layerId = master01;
shapes = (
{
closed = 1;
nodes = (
(208,887,o),
(78,586,o),
(78,336,cs),
(78,138,o),
(161,-21,o),
(319,-21,cs),
(399,-21,o),
(469,18,o),
(519,70,c),
(524,13,o),
(547,-6,o),
(581,-6,cs,{
name = hr01;
}),
(595,-6,o),
(620,0,o),
(641,24,c),
(618,51,o),
(611,75,o),
(611,109,cs),
(611,180,o),
(645,316,o),
(645,377,cs,{
name = hr02;
}),
(645,435,o),
(626,454,o),
(590,454,cs),
(574,454,o),
(545,446,o),
(532,435,c),
(544,409,o),
(547,380,o),
(547,349,cs),
(547,301,o),
(528,222,o),
(521,144,c),
(480,86,o),
(417,49,o),
(350,49,cs),
(253,49,o),
(186,170,o),
(186,382,cs),
(186,504,o),
(228,810,o),
(411,810,cs),
(493,810,o),
(536,762,o),
(567,693,c),
(588,712,o),
(618,738,o),
(618,793,cs),
(618,855,o),
(550,887,o),
(463,887,cs)
);
}
);
width = 689;
}
);
unicode = 71;
},
{
glyphname = H;
layers = (
{
layerId = master01;
shapes = (
{
closed = 1;
nodes = (
(631,352,o),
(708,661,o),
(708,783,cs,{
name = hr01;
}),
(708,862,o),
(685,889,o),
(640,889,cs),
(620,889,o),
(587,879,o),
(573,866,c),
(593,826,o),
(594,779,o),
(594,731,cs),
(594,661,o),
(581,565,o),
(567,468,c),
(240,468,l),
(261,595,o),
(284,716,o),
(284,783,cs),
(284,862,o),
(260,889,o),
(215,889,cs),
(196,889,o),
(163,879,o),
(148,866,c),
(168,826,o),
(169,779,o),
(169,731,cs),
(169,563,o),
(98,246,o),
(98,125,cs,{
name = hr02;
}),
(98,24,o),
(129,-7,o),
(176,-7,cs),
(192,-7,o),
(220,0,o),
(245,29,c),
(212,65,o),
(207,114,o),
(207,166,cs),
(207,231,o),
(216,312,o),
(229,395,c),
(556,395,l),
(539,285,o),
(522,183,o),
(522,125,cs),
(522,24,o),
(553,-7,o),
(600,-7,cs),
(617,-7,o),
(645,0,o),
(669,29,c),
(637,65,o),
(631,114,o),
(631,166,cs)
);
}
);
width = 782;
}
);
unicode = 72;
},
{
glyphname = I;
layers = (
{
layerId = master01;
shapes = (
{
closed = 1;
nodes = (
(207,352,o),
(284,661,o),
(284,783,cs,{
name = hr01;
}),
(284,862,o),
(260,889,o),
(215,889,cs),
(196,889,o),
(163,879,o),
(148,866,c),
(168,826,o),
(169,779,o),
(169,731,cs),
(169,563,o),
(98,246,o),
(98,125,cs,{
name = hr02;
}),
(98,24,o),
(129,-7,o),
(176,-7,cs),
(192,-7,o),
(220,0,o),
(245,29,c),
(212,65,o),
(207,114,o),
(207,166,cs)
);
}
);
width = 332;
}
);
unicode = 73;
},
{
glyphname = Iacute;
layers = (
{
layerId = master01;
shapes = (
{
closed = 1;
nodes = (
(207,352,o),
(284,661,o),
(284,783,cs),
(284,862,o),
(260,889,o),
(215,889,cs),
(196,889,o),
(163,879,o),
(148,866,c),
(168,826,o),
(169,779,o),
(169,731,cs),
(169,563,o),
(98,246,o),
(98,125,cs),
(98,24,o),
(129,-7,o),
(176,-7,cs),
(192,-7,o),
(220,0,o),
(245,29,c),
(212,65,o),
(207,114,o),
(207,166,cs)
);
},
{
closed = 1;
nodes = (
(347,1042,o),
(353,1048,o),
(353,1061,cs),
(353,1073,o),
(340,1089,o),
(296,1089,cs),
(283,1089,o),
(268,1088,o),
(249,1084,c),
(232,1053,o),
(198,1021,o),
(89,939,c),
(98,921,o),
(108,911,o),
(116,911,cs),
(136,911,o),
(244,969,o),
(316,1020,cs)
);
},
{
ref = I;
},
{
pos = (-28,0);
ref = acute.case;
}
);
width = 332;
}
);
unicode = 205;
},
{
glyphname = Icircumflex;
layers = (
{
layerId = master01;
shapes = (
{
closed = 1;
nodes = (
(207,352,o),
(284,661,o),
(284,783,cs),
(284,862,o),
(260,889,o),
(215,889,cs),
(196,889,o),
(163,879,o),
(148,866,c),
(168,826,o),
(169,779,o),
(169,731,cs),
(169,563,o),
(98,246,o),
(98,125,cs),
(98,24,o),
(129,-7,o),
(176,-7,cs),
(192,-7,o),
(220,0,o),
(245,29,c),
(212,65,o),
(207,114,o),
(207,166,cs)
);
},
{
closed = 1;
nodes = (
(365,911,o),
(375,921,o),
(384,939,c),
(321,1001,o),
(284,1065,o),
(275,1078,c),
(264,1086,o),
(244,1089,o),
(224,1089,cs),
(207,1089,o),
(191,1087,o),
(181,1084,c),
(164,1053,o),
(144,1021,o),
(35,939,c),
(45,921,o),
(55,911,o),
(62,911,cs),
(79,911,o),
(156,957,o),
(221,1002,c),
(291,946,o),
(338,911,o),
(357,911,cs)
);
},
{
ref = I;
},
{
pos = (-125,0);
ref = circumflex.case;
}
);
width = 332;
}
);
unicode = 206;
},
{
glyphname = Idieresis;
layers = (
{
layerId = master01;
shapes = (
{
closed = 1;
nodes = (
(199,1043,o),
(172,1055,o),
(141,1055,cs),
(119,1055,o),
(96,1047,o),
(72,1032,c),
(67,1008,o),
(65,989,o),
(65,975,cs),
(65,943,o),
(79,928,o),
(119,928,cs),
(140,928,o),
(164,936,o),
(188,951,c),
(195,977,o),
(199,997,o),
(199,1012,cs)
);
},
{
closed = 1;
nodes = (
(433,1043,o),
(406,1055,o),
(375,1055,cs),
(354,1055,o),
(331,1047,o),
(306,1032,c),
(302,1008,o),
(299,989,o),
(299,975,cs),
(299,943,o),
(313,928,o),
(354,928,cs),
(375,928,o),
(398,936,o),
(422,951,c),
(430,977,o),
(433,997,o),
(433,1012,cs)
);
},
{
closed = 1;
nodes = (
(207,352,o),
(284,661,o),
(284,783,cs),
(284,862,o),
(260,889,o),
(215,889,cs),
(196,889,o),
(163,879,o),
(148,866,c),
(168,826,o),
(169,779,o),
(169,731,cs),
(169,563,o),
(98,246,o),
(98,125,cs),
(98,24,o),
(129,-7,o),
(176,-7,cs),
(192,-7,o),
(220,0,o),
(245,29,c),
(212,65,o),
(207,114,o),
(207,166,cs)
);
},
{
ref = I;
},
{
pos = (60,0);
ref = dieresis.case;
}
);
width = 332;
}
);
unicode = 207;
},
{
glyphname = Igrave;
layers = (
{
layerId = master01;
shapes = (
{
closed = 1;
nodes = (
(207,352,o),
(284,661,o),
(284,783,cs),
(284,862,o),
(260,889,o),
(215,889,cs),
(196,889,o),
(163,879,o),
(148,866,c),
(168,826,o),
(169,779,o),
(169,731,cs),
(169,563,o),
(98,246,o),
(98,125,cs),
(98,24,o),
(129,-7,o),
(176,-7,cs),
(192,-7,o),
(220,0,o),
(245,29,c),
(212,65,o),
(207,114,o),
(207,166,cs)
);
},
{
closed = 1;
nodes = (
(200,969,o),
(309,911,o),
(329,911,cs),
(336,911,o),
(346,921,o),
(356,939,c),
(247,1021,o),
(212,1053,o),
(195,1084,c),
(176,1088,o),
(161,1089,o),
(148,1089,cs),
(104,1089,o),
(91,1073,o),
(91,1061,cs),
(91,1048,o),
(97,1042,o),
(128,1020,cs)
);
},
{
ref = I;
},
{
pos = (-62,0);
ref = grave.case;
}
);
width = 332;
}
);
unicode = 204;
},
{
glyphname = Iogonek;
layers = (
{
layerId = master01;
shapes = (
{
closed = 1;
nodes = (
(75,1,o),
(8,-66,o),
(8,-152,cs),
(8,-208,o),
(44,-264,o),
(121,-264,cs),
(200,-264,o),
(250,-215,o),
(250,-178,cs),
(250,-150,o),
(243,-136,o),
(228,-125,c),
(217,-172,o),
(172,-200,o),
(135,-200,cs),
(108,-200,o),
(86,-180,o),
(86,-145,cs),
(86,-118,o),
(89,-52,o),
(199,-3,c),
(199,48,l,{
name = hr00;
})
);
},
{
ref = I;
}
);
width = 332;
}
);
unicode = 302;
},
{
glyphname = J;
layers = (
{
layerId = master01;
shapes = (
{
closed = 1;
nodes = (
(276,862,o),
(252,889,o),
(208,889,cs),
(188,889,o),
(155,879,o),
(141,866,c),
(161,826,o),
(162,779,o),
(162,731,cs),
(162,438,o),
(123,-149,o),
(-64,-149,cs),
(-132,-149,o),
(-156,-108,o),
(-176,-51,c),
(-191,-65,o),
(-212,-91,o),
(-212,-130,cs),
(-212,-208,o),
(-142,-229,o),
(-92,-229,cs),
(202,-229,o),
(276,404,o),
(276,783,cs,{
name = hr00;
})
);
}
);
width = 336;
}
);
unicode = 74;
},
{
glyphname = K;
layers = (
{
layerId = master01;
shapes = (
{
closed = 1;
nodes = (
(207,218,o),
(213,281,o),
(222,346,c),
(241,363,o),
(262,383,o),
(283,403,c),
(342,282,o),
(429,99,o),
(458,57,cs),
(498,-2,o),
(527,-10,o),
(553,-10,cs),
(573,-10,o),
(622,3,o),
(632,74,c),
(587,81,o),
(550,114,o),
(523,151,cs),
(483,208,o),
(398,385,o),
(354,472,c),
(504,626,o),
(661,810,o),
(661,833,cs),
(661,859,o),
(626,879,o),
(571,879,c),
(558,828,o),
(426,629,o),
(236,440,c),
(258,577,o),
(284,712,o),
(284,783,cs,{
name = hr01;
}),
(284,862,o),
(260,889,o),
(215,889,cs),
(196,889,o),
(163,879,o),
(148,866,c),
(168,826,o),
(169,779,o),
(169,731,cs),
(169,563,o),
(98,246,o),
(98,125,cs,{
name = hr02;
}),
(98,24,o),
(129,-7,o),
(176,-7,cs),
(192,-7,o),
(220,0,o),
(245,29,c),
(212,65,o),
(207,114,o),
(207,166,cs)
);
}
);
width = 632;
}
);
unicode = 75;
},
{
glyphname = L;
layers = (
{
layerId = master01;
shapes = (
{
closed = 1;
nodes = (
(284,862,o),
(260,889,o),
(215,889,cs),
(196,889,o),
(163,879,o),
(148,866,c),
(168,826,o),
(169,779,o),
(169,731,cs),
(169,539,o),
(86,230,o),
(86,89,cs,{
name = hr01;
}),
(86,20,o),
(115,-8,o),
(158,-8,cs),
(172,-8,o),
(193,-4,o),
(214,11,c,{
name = hr02;
}),
(282,1,o),
(368,-10,o),
(410,-10,cs),
(502,-10,o),
(554,-5,o),
(562,105,c),
(526,85,o),
(426,79,o),
(329,79,cs,{
name = hr03;
}),
(283,79,o),
(238,80,o),
(200,82,c),
(199,92,o),
(199,102,o),
(199,112,cs),
(199,304,o),
(284,647,o),
(284,783,cs)
);
}
);
width = 562;
}
);
unicode = 76;
},
{
glyphname = Lslash;
layers = (
{
layerId = master01;
shapes = (
{
closed = 1;
nodes = (
(82,357,o),
(103,374,o),
(127,390,c),
(107,271,o),
(86,159,o),
(86,89,cs),
(86,20,o),
(115,-8,o),
(158,-8,cs),
(172,-8,o),
(193,-4,o),
(214,11,c),
(282,1,o),
(368,-10,o),
(410,-10,cs),
(502,-10,o),
(554,-5,o),
(562,105,c),
(526,85,o),
(426,79,o),
(329,79,cs),
(283,79,o),
(238,80,o),
(200,82,c),
(199,92,o),
(199,102,o),
(199,112,cs),
(199,202,o),
(217,326,o),
(237,445,c),
(256,453,o),
(272,461,o),
(286,468,cs),
(344,499,o),
(367,527,o),
(367,550,cs),
(367,572,o),
(349,597,o),
(323,609,c),
(314,592,o),
(283,568,o),
(255,550,c),
(271,645,o),
(284,730,o),
(284,783,cs),
(284,862,o),
(260,889,o),
(215,889,cs),
(196,889,o),
(163,879,o),
(148,866,c),
(168,826,o),
(169,779,o),
(169,731,cs),
(169,662,o),
(158,579,o),
(145,494,c),
(81,468,o),
(17,442,o),
(17,405,cs),
(17,375,o),
(49,350,o),
(70,338,c)
);
},
{
ref = L;
},
{
pos = (-3,-95);
ref = eslash;
}
);
width = 562;
}
);
unicode = 321;
},
{
glyphname = M;
layers = (
{
layerId = master01;
shapes = (
{
closed = 1;
nodes = (
(761,352,o),
(838,661,o),
(838,783,cs,{
name = hr01;
}),
(838,862,o),
(814,889,o),
(770,889,cs),
(726,889,o),
(693,874,o),
(678,861,c),
(678,768,o),
(521,493,o),
(460,330,c),
(405,507,o),
(390,646,o),
(353,766,cs),
(323,864,o),
(277,888,o),
(213,889,cs),
(185,889,o),
(161,879,o),
(148,866,c),
(168,826,o),
(169,779,o),
(169,731,cs),
(169,563,o),
(98,246,o),
(98,125,cs),
(98,24,o),
(129,-7,o),
(171,-7,cs),
(188,-7,o),
(215,0,o),
(226,29,c),
(193,65,o),
(187,114,o),
(187,166,cs),
(187,324,o),
(243,571,o),
(260,716,c),
(298,580,o),
(307,515,o),
(345,362,cs),
(379,226,o),
(404,207,o),
(460,207,cs),
(489,207,o),
(520,218,o),
(529,230,c),
(528,238,o),
(527,246,o),
(527,254,cs),
(527,288,o),
(539,326,o),
(552,365,cs),
(583,462,o),
(659,609,o),
(724,740,c),
(724,563,o),
(652,246,o),
(652,125,cs,{
name = hr02;
}),
(652,24,o),
(683,-7,o),
(730,-7,cs),
(747,-7,o),
(774,0,o),
(799,29,c),
(767,65,o),
(761,114,o),
(761,166,cs)
);
}
);
width = 886;
}
);
unicode = 77;
},
{
glyphname = N;
layers = (
{
layerId = master01;
shapes = (
{
closed = 1;
nodes = (
(644,352,o),
(721,661,o),
(721,783,cs),
(721,862,o),
(702,889,o),
(665,889,cs),
(649,889,o),
(617,879,o),
(605,866,c),
(625,826,o),
(626,779,o),
(626,731,cs),
(626,584,o),
(572,325,o),
(558,180,c),
(469,369,o),
(400,676,o),
(340,793,cs),
(301,869,o),
(270,889,o),
(213,889,cs),
(184,889,o),
(154,878,o),
(148,866,c),
(168,826,o),
(169,779,o),
(169,731,cs),
(169,563,o),
(98,246,o),
(98,125,cs),
(98,24,o),
(129,-7,o),
(171,-7,cs),
(188,-7,o),
(215,0,o),
(226,29,c),
(193,65,o),
(187,114,o),
(187,166,cs),
(187,321,o),
(241,561,o),
(259,707,c),
(339,531,o),
(415,227,o),
(473,115,cs),
(523,17,o),
(563,-7,o),
(621,-7,cs),
(647,-7,o),
(674,1,o),
(685,29,c),
(652,65,o),
(644,114,o),
(644,166,cs,{
name = hr00;
})
);
}
);
width = 769;
}
);
unicode = 78;
},
{
glyphname = Ntilde;
layers = (
{
layerId = master01;
shapes = (
{
closed = 1;
nodes = (
(644,352,o),
(721,661,o),
(721,783,cs),
(721,862,o),
(702,889,o),
(665,889,cs),
(649,889,o),
(617,879,o),
(605,866,c),
(625,826,o),
(626,779,o),
(626,731,cs),
(626,584,o),
(572,325,o),
(558,180,c),
(469,369,o),
(400,676,o),
(340,793,cs),
(301,869,o),
(270,889,o),
(213,889,cs),
(184,889,o),
(154,878,o),
(148,866,c),
(168,826,o),
(169,779,o),
(169,731,cs),
(169,563,o),
(98,246,o),
(98,125,cs),
(98,24,o),
(129,-7,o),
(171,-7,cs),
(188,-7,o),
(215,0,o),
(226,29,c),
(193,65,o),
(187,114,o),
(187,166,cs),
(187,321,o),
(241,561,o),
(259,707,c),
(339,531,o),
(415,227,o),
(473,115,cs),
(523,17,o),
(563,-7,o),
(621,-7,cs),
(647,-7,o),
(674,1,o),
(685,29,c),
(652,65,o),
(644,114,o),
(644,166,cs)
);
},
{
closed = 1;
nodes = (
(586,1027,o),
(564,1007,o),
(542,1007,cs),
(493,1007,o),
(475,1073,o),
(399,1073,cs),
(343,1073,o),
(300,1013,o),
(300,958,cs),
(300,931,o),
(322,926,o),
(344,926,c),
(351,973,o),
(373,993,o),
(395,993,cs),
(444,993,o),
(462,927,o),
(538,927,cs),
(594,927,o),
(637,987,o),
(637,1042,cs),
(637,1069,o),
(615,1074,o),
(593,1074,c)
);
},
{
ref = N;
},
{
pos = (165,0);
ref = tilde.case;
}
);
width = 769;
}
);
unicode = 209;
},
{
glyphname = Eng;
layers = (
{
layerId = master01;
shapes = (
{
closed = 1;
nodes = (
(721,862,o),
(702,889,o),
(665,889,cs),
(649,889,o),
(617,879,o),
(605,866,c),
(625,826,o),
(626,779,o),
(626,731,cs),
(626,577,o),
(578,305,o),
(556,153,c),
(468,350,o),
(400,672,o),
(340,793,cs),
(302,869,o),
(270,889,o),
(213,889,cs),
(184,889,o),
(154,878,o),
(148,866,c),
(168,826,o),
(169,779,o),
(169,731,cs),
(169,563,o),
(98,246,o),
(98,125,cs),
(98,24,o),
(129,-7,o),
(171,-7,cs),
(188,-7,o),
(215,0,o),
(226,29,c),
(193,65,o),
(187,114,o),
(187,166,cs),
(187,321,o),
(241,561,o),
(259,707,c),
(339,531,o),
(415,227,o),
(473,115,cs),
(495,72,o),
(515,44,o),
(535,25,c),
(507,-103,o),
(457,-192,o),
(367,-192,cs),
(321,-192,o),
(285,-170,o),
(263,-115,c),
(247,-126,o),
(227,-149,o),
(227,-189,cs),
(227,-241,o),
(280,-275,o),
(344,-275,cs),
(555,-275,o),
(592,-51,o),
(648,253,cs),
(678,415,o),
(721,646,o),
(721,783,cs,{
name = hr00;
})
);
}
);
width = 769;
}
);
unicode = 330;
},
{
glyphname = O;
layers = (
{
layerId = master01;
shapes = (
{
closed = 1;
nodes = (
(630,364,o),
(587,57,o),
(405,57,cs),
(271,57,o),
(186,167,o),
(186,380,cs),
(186,503,o),
(229,810,o),
(411,810,cs),
(545,810,o),
(630,700,o),
(630,487,cs,{
name = hr00;
})
);
},
{
closed = 1;
nodes = (
(606,-21,o),
(738,281,o),
(738,531,cs),
(738,729,o),
(645,889,o),
(472,889,cs),
(209,889,o),
(78,586,o),
(78,336,cs),
(78,138,o),
(171,-21,o),
(344,-21,cs)
);
}
);
width = 782;
}
);
unicode = 79;
},
{
glyphname = Oacute;
layers = (
{
layerId = master01;
shapes = (
{
closed = 1;
nodes = (
(630,364,o),
(587,57,o),
(405,57,cs),
(271,57,o),
(186,167,o),
(186,380,cs),
(186,503,o),
(229,810,o),
(411,810,cs),
(545,810,o),
(630,700,o),
(630,487,cs)
);
},
{
closed = 1;
nodes = (
(606,-21,o),
(738,281,o),
(738,531,cs),
(738,729,o),
(645,889,o),
(472,889,cs),
(209,889,o),
(78,586,o),
(78,336,cs),
(78,138,o),
(171,-21,o),
(344,-21,cs)
);
},
{
closed = 1;
nodes = (
(598,1042,o),
(604,1048,o),
(604,1061,cs),
(604,1073,o),
(591,1089,o),
(547,1089,cs),
(534,1089,o),
(519,1088,o),
(500,1084,c),
(483,1053,o),
(449,1021,o),
(340,939,c),
(349,921,o),
(359,911,o),
(367,911,cs),
(387,911,o),
(495,969,o),
(567,1020,cs)
);
},
{
ref = O;
},
{
pos = (223,0);
ref = acute.case;
}
);
width = 782;
}
);
unicode = 211;
},
{
glyphname = Ocircumflex;
layers = (
{
layerId = master01;
shapes = (
{
closed = 1;
nodes = (
(630,364,o),
(587,57,o),
(405,57,cs),
(271,57,o),
(186,167,o),
(186,380,cs),
(186,503,o),
(229,810,o),
(411,810,cs),
(545,810,o),
(630,700,o),
(630,487,cs)
);
},
{
closed = 1;
nodes = (
(606,-21,o),
(738,281,o),
(738,531,cs),
(738,729,o),
(645,889,o),
(472,889,cs),
(209,889,o),
(78,586,o),
(78,336,cs),
(78,138,o),
(171,-21,o),
(344,-21,cs)
);
},
{
closed = 1;
nodes = (
(619,911,o),
(629,921,o),
(638,939,c),
(575,1001,o),
(538,1065,o),
(529,1078,c),
(518,1086,o),
(498,1089,o),
(478,1089,cs),
(461,1089,o),
(445,1087,o),
(435,1084,c),
(418,1053,o),
(398,1021,o),
(289,939,c),
(299,921,o),
(309,911,o),
(316,911,cs),
(333,911,o),
(410,957,o),
(475,1002,c),
(545,946,o),
(592,911,o),
(611,911,cs)
);
},
{
ref = O;
},
{
pos = (129,0);
ref = circumflex.case;
}
);
width = 782;
}
);
unicode = 212;
},
{
glyphname = Odieresis;
layers = (
{
layerId = master01;
shapes = (
{
closed = 1;
nodes = (
(630,364,o),
(587,57,o),
(405,57,cs),
(271,57,o),
(186,167,o),
(186,380,cs),
(186,503,o),
(229,810,o),
(411,810,cs),
(545,810,o),
(630,700,o),
(630,487,cs)
);
},
{
closed = 1;
nodes = (
(606,-21,o),
(738,281,o),
(738,531,cs),
(738,729,o),
(645,889,o),
(472,889,cs),
(209,889,o),
(78,586,o),
(78,336,cs),
(78,138,o),
(171,-21,o),
(344,-21,cs)
);
},
{
closed = 1;
nodes = (
(423,1043,o),
(396,1055,o),
(365,1055,cs),
(343,1055,o),
(320,1047,o),
(296,1032,c),
(291,1008,o),
(289,989,o),
(289,975,cs),
(289,943,o),
(303,928,o),
(343,928,cs),
(364,928,o),
(388,936,o),
(412,951,c),
(419,977,o),
(423,997,o),
(423,1012,cs)
);
},
{
closed = 1;
nodes = (
(657,1043,o),
(630,1055,o),
(599,1055,cs),
(577,1055,o),
(555,1047,o),
(530,1032,c),
(526,1008,o),
(523,989,o),
(523,975,cs),
(523,943,o),
(537,928,o),
(577,928,cs),
(598,928,o),
(622,936,o),
(646,951,c),
(654,977,o),
(657,997,o),
(657,1012,cs)
);
},
{
ref = O;
},
{
pos = (284,0);
ref = dieresis.case;
}
);
width = 782;
}
);
unicode = 214;
},
{
glyphname = Oslash;
layers = (
{
layerId = master01;
shapes = (
{
closed = 1;
nodes = (
(738,682,o),
(683,812,o),
(580,864,c),
(592,879,o),
(608,893,o),
(627,903,c),
(626,938,o),
(592,947,o),
(574,947,cs),
(545,947,o),
(516,931,o),
(489,888,c),
(483,889,o),
(477,889,o),
(472,889,cs),
(209,889,o),
(78,586,o),
(78,336,cs),
(78,177,o),
(138,43,o),
(251,-3,c),
(236,-38,o),
(217,-69,o),
(190,-101,c),
(211,-123,o),
(235,-128,o),
(252,-128,cs),
(288,-128,o),
(318,-101,o),
(347,-21,c),
(607,-18,o),
(738,282,o),
(738,531,cs,{
name = hr00;
})
);
},
{
closed = 1;
nodes = (
(630,364,o),
(587,57,o),
(405,57,cs),
(393,57,o),
(382,58,o),
(371,59,c),
(413,234,o),
(459,553,o),
(532,770,c),
(594,720,o),
(630,625,o),
(630,487,cs)
);
},
{
closed = 1;
nodes = (
(186,503,o),
(229,810,o),
(411,810,cs),
(424,810,o),
(437,808,o),
(450,806,c),
(401,666,o),
(350,318,o),
(285,96,c),
(222,145,o),
(186,240,o),
(186,380,cs)
);
}
);
width = 782;
}
);
unicode = 216;
},
{
glyphname = Otilde;
layers = (
{
layerId = master01;
shapes = (
{
closed = 1;
nodes = (
(630,364,o),
(587,57,o),
(405,57,cs),
(271,57,o),
(186,167,o),
(186,380,cs),
(186,503,o),
(229,810,o),
(411,810,cs),
(545,810,o),
(630,700,o),
(630,487,cs)
);
},
{
closed = 1;
nodes = (
(606,-21,o),
(738,281,o),
(738,531,cs),
(738,729,o),
(645,889,o),
(472,889,cs),
(209,889,o),
(78,586,o),
(78,336,cs),
(78,138,o),
(171,-21,o),
(344,-21,cs)
);
},
{
closed = 1;
nodes = (
(592,1027,o),
(570,1007,o),
(548,1007,cs),
(499,1007,o),
(481,1073,o),
(405,1073,cs),
(349,1073,o),
(306,1013,o),
(306,958,cs),
(306,931,o),
(328,926,o),
(350,926,c),
(357,973,o),
(379,993,o),
(401,993,cs),
(450,993,o),
(468,927,o),
(544,927,cs),
(600,927,o),
(643,987,o),
(643,1042,cs),
(643,1069,o),
(621,1074,o),
(599,1074,c)
);
},
{
ref = O;
},
{
pos = (171,0);
ref = tilde.case;
}
);
width = 782;
}
);
unicode = 213;
},
{
glyphname = OE;
layers = (
{
layerId = master01;
shapes = (
{
closed = 1;
nodes = (
(757,786,o),
(840,776,o),
(915,776,cs),
(985,776,o),
(1023,793,o),
(1030,884,c),
(996,868,o),
(937,865,o),
(870,865,cs),
(817,865,o),
(760,867,o),
(708,867,cs),
(669,867,o),
(626,865,o),
(593,857,c),
(559,878,o),
(518,889,o),
(472,889,cs,{
name = hr01;
}),
(209,889,o),
(78,586,o),
(78,336,cs),
(78,138,o),
(173,-26,o),
(387,-26,cs),
(458,-26,o),
(530,-12,o),
(581,15,c),
(653,4,o),
(760,-10,o),
(811,-10,cs,{
name = hr02;
}),
(909,-10,o),
(964,-5,o),
(972,105,c),
(934,85,o),
(838,79,o),
(734,79,cs),
(685,79,o),
(637,81,o),
(596,83,c),
(595,92,o),
(595,102,o),
(595,112,cs),
(595,191,o),
(609,298,o),
(626,406,c),
(675,402,o),
(714,398,o),
(756,398,cs),
(831,398,o),
(886,403,o),
(894,512,c),
(843,487,o),
(739,480,o),
(638,479,c),
(659,605,o),
(680,730,o),
(680,798,c)
);
},
{
closed = 1;
nodes = (
(271,57,o),
(186,167,o),
(186,380,cs),
(186,503,o),
(229,810,o),
(411,810,cs),
(476,810,o),
(529,784,o),
(567,733,c),
(565,541,o),
(483,228,o),
(483,89,cs,{
name = hr04;
}),
(483,71,l),
(456,62,o),
(429,57,o),
(405,57,cs)
);
}
);
width = 989;
}
);
unicode = 338;
},
{
glyphname = P;
layers = (
{
layerId = master01;
shapes = (
{
closed = 1;
nodes = (
(624,846,o),
(511,889,o),
(377,889,cs),
(306,889,o),
(229,877,o),
(159,864,c),
(167,839,o),
(174,793,o),
(174,765,cs),
(174,598,o),
(98,246,o),
(98,125,cs,{
name = hr01;
}),
(98,24,o),
(129,-7,o),
(176,-7,cs),
(192,-7,o),
(220,0,o),
(245,29,c),
(212,65,o),
(207,114,o),
(207,166,cs),
(207,209,o),
(211,262,o),
(218,319,c),
(372,358,o),
(624,462,o),
(624,684,cs)
);
},
{
closed = 1;
nodes = (
(311,826,o),
(333,828,o),
(355,828,cs),
(450,828,o),
(519,784,o),
(519,663,cs),
(519,498,o),
(373,418,o),
(227,387,c),
(251,550,o),
(286,729,o),
(287,822,c,{
name = hr02;
})
);
}
);
width = 575;
}
);
unicode = 80;
},
{
glyphname = Thorn;
layers = (
{
layerId = master01;
shapes = (
{
closed = 1;
nodes = (
(207,185,l),
(360,223,o),
(615,327,o),
(615,551,cs),
(615,713,o),
(503,756,o),
(369,756,cs),
(341,756,o),
(312,754,o),
(283,751,c),
(284,763,o),
(284,773,o),
(284,783,cs,{
name = hr01;
}),
(284,862,o),
(260,889,o),
(215,889,cs),
(196,889,o),
(163,879,o),
(148,866,c),
(168,826,o),
(169,779,o),
(169,731,cs),
(169,563,o),
(98,246,o),
(98,125,cs,{
name = hr02;
}),
(98,24,o),
(129,-7,o),
(176,-7,cs),
(192,-7,o),
(220,0,o),
(245,29,c),
(212,65,o),
(207,114,o),
(207,166,c)
);
},
{
closed = 1;
nodes = (
(448,699,o),
(510,643,o),
(510,530,cs),
(510,362,o),
(359,282,o),
(211,252,c),
(223,395,o),
(260,573,o),
(276,694,c),
(297,697,o),
(317,699,o),
(336,699,cs)
);
}
);
width = 615;
}
);
unicode = 222;
},
{
glyphname = Q;
layers = (
{
layerId = master01;
shapes = (
{
closed = 1;
nodes = (
(351,-21,o),
(363,-20,o),
(375,-19,c),
(482,-98,o),
(573,-205,o),
(667,-205,cs),
(733,-205,o),
(773,-159,o),
(773,-100,c),
(759,-103,o),
(744,-104,o),
(730,-104,cs),
(637,-104,o),
(540,-54,o),
(446,-2,c),
(637,67,o),
(733,318,o),
(733,531,cs),
(733,729,o),
(640,889,o),
(467,889,cs),
(204,889,o),
(73,586,o),
(73,336,cs),
(73,138,o),
(166,-21,o),
(339,-21,cs,{
name = hr00;
})
);
},
{
closed = 1;
nodes = (
(625,364,o),
(582,57,o),
(400,57,cs),
(266,57,o),
(181,167,o),
(181,380,cs),
(181,503,o),
(224,810,o),
(406,810,cs),
(540,810,o),
(625,700,o),
(625,487,cs)
);
}
);
width = 772;
}
);
unicode = 81;
},
{
glyphname = R;
layers = (
{
layerId = master01;
shapes = (
{
closed = 1;
nodes = (
(638,847,o),
(520,889,o),
(382,889,cs),
(309,889,o),
(229,877,o),
(159,864,c),
(167,839,o),
(174,793,o),
(174,765,cs),
(174,598,o),
(98,246,o),
(98,125,cs,{
name = hr01;
}),
(98,24,o),
(129,-7,o),
(176,-7,cs),
(192,-7,o),
(220,0,o),
(245,29,c),
(212,65,o),
(207,114,o),
(207,166,cs),
(207,215,o),
(212,277,o),
(221,343,c),
(247,350,o),
(276,357,o),
(306,367,c),
(361,256,o),
(433,101,o),
(463,57,cs),
(502,-2,o),
(532,-10,o),
(558,-10,cs,{
name = hr02;
}),
(578,-10,o),
(627,3,o),
(637,74,c),
(529,91,o),
(476,240,o),
(394,401,c),
(519,458,o),
(638,550,o),
(638,692,cs)
);
},
{
closed = 1;
nodes = (
(311,826,o),
(335,828,o),
(358,828,cs),
(456,828,o),
(533,786,o),
(533,672,cs),
(533,517,o),
(377,442,o),
(231,412,c),
(255,568,o),
(286,734,o),
(287,822,c)
);
}
);
width = 654;
}
);
unicode = 82;
},
{
glyphname = S;
layers = (
{
layerId = master01;
shapes = (
{
closed = 1;
nodes = (
(402,815,o),
(465,756,o),
(490,695,c),
(508,711,o),
(535,743,o),
(535,780,cs),
(535,855,o),
(453,889,o),
(365,889,cs),
(207,889,o),
(94,805,o),
(94,654,cs),
(94,559,o),
(146,501,o),
(213,447,cs),
(364,325,o),
(434,282,o),
(434,180,cs),
(434,86,o),
(355,49,o),
(288,49,cs),
(187,49,o),
(113,105,o),
(83,227,c),
(56,196,o),
(32,166,o),
(32,123,cs),
(32,27,o),
(151,-17,o),
(262,-17,cs),
(421,-17,o),
(533,84,o),
(533,211,cs),
(533,317,o),
(487,369,o),
(416,430,cs),
(230,588,o),
(187,590,o),
(187,684,cs),
(187,770,o),
(247,815,o),
(315,815,cs,{
name = hr00;
})
);
}
);
width = 563;
}
);
unicode = 83;
},
{
glyphname = Scaron;
layers = (
{
layerId = master01;
shapes = (
{
closed = 1;
nodes = (
(402,815,o),
(465,756,o),
(490,695,c),
(508,711,o),
(535,743,o),
(535,780,cs),
(535,855,o),
(453,889,o),
(365,889,cs),
(207,889,o),
(94,805,o),
(94,654,cs),
(94,559,o),
(146,501,o),
(213,447,cs),
(364,325,o),
(434,282,o),
(434,180,cs),
(434,86,o),
(355,49,o),
(288,49,cs),
(187,49,o),
(113,105,o),
(83,227,c),
(56,196,o),
(32,166,o),
(32,123,cs),
(32,27,o),
(151,-17,o),
(262,-17,cs),
(421,-17,o),
(533,84,o),
(533,211,cs),
(533,317,o),
(487,369,o),
(416,430,cs),
(230,588,o),
(187,590,o),
(187,684,cs),
(187,770,o),
(247,815,o),
(315,815,cs)
);
},
{
closed = 1;
nodes = (
(202,1089,o),
(192,1079,o),
(182,1061,c),
(245,999,o),
(282,935,o),
(292,922,c),
(303,914,o),
(323,911,o),
(343,911,cs),
(359,911,o),
(376,913,o),
(386,916,c),
(403,947,o),
(422,979,o),
(531,1061,c),
(522,1079,o),
(512,1089,o),
(504,1089,cs),
(487,1089,o),
(411,1043,o),
(345,999,c),
(276,1054,o),
(229,1089,o),
(209,1089,cs)
);
},
{
ref = S;
},
{
pos = (22,0);
ref = caron.case;
}
);
width = 563;
}
);
unicode = 352;
},
{
glyphname = T;
layers = (
{
layerId = master01;
shapes = (
{
closed = 1;
nodes = (
(82,869,o),
(49,848,o),
(43,757,c),
(109,780,o),
(160,788,o),
(270,789,c),
(271,772,o),
(271,754,o),
(271,741,cs),
(271,573,o),
(198,246,o),
(198,125,cs,{
name = hr01;
}),
(198,24,o),
(229,-7,o),
(275,-7,cs),
(292,-7,o),
(320,0,o),
(345,29,c),
(312,65,o),
(306,114,o),
(306,166,cs),
(306,342,o),
(381,644,o),
(385,788,c,{
name = hr02;
}),
(447,785,o),
(512,776,o),
(540,776,cs),
(599,776,o),
(631,793,o),
(637,884,c,{
name = hr03;
}),
(611,868,o),
(564,865,o),
(513,865,cs,{
name = hr04;
}),
(466,865,o),
(171,869,o),
(141,869,cs)
);
}
);
width = 537;
}
);
unicode = 84;
},
{
glyphname = U;
layers = (
{
layerId = master01;
shapes = (
{
closed = 1;
nodes = (
(214,80,o),
(202,112,o),
(202,158,cs),
(202,344,o),
(280,661,o),
(280,783,cs,{
name = hr01;
}),
(280,862,o),
(256,889,o),
(211,889,cs),
(191,889,o),
(159,879,o),
(144,866,c),
(164,826,o),
(165,779,o),
(165,731,cs),
(165,563,o),
(98,273,o),
(98,153,cs,{
name = hr02;
}),
(98,68,o),
(122,-16,o),
(223,-16,cs),
(301,-16,o),
(431,106,o),
(519,243,c),
(512,196,o),
(508,154,o),
(508,125,cs),
(508,24,o),
(539,-7,o),
(586,-7,cs,{
name = hr03;
}),
(603,-7,o),
(630,0,o),
(655,29,c),
(623,65,o),
(617,114,o),
(617,166,cs),
(617,352,o),
(694,661,o),
(694,783,cs,{
name = hr04;
}),
(694,862,o),
(670,889,o),
(625,889,cs),
(606,889,o),
(573,879,o),
(559,866,c),
(579,826,o),
(580,779,o),
(580,731,cs),
(580,636,o),
(556,495,o),
(537,367,c),
(458,228,o),
(315,80,o),
(252,80,cs)
);
}
);
width = 742;
}
);
unicode = 85;
},
{
glyphname = Uacute;
layers = (
{
layerId = master01;
shapes = (
{
closed = 1;
nodes = (
(214,80,o),
(202,112,o),
(202,158,cs),
(202,344,o),
(280,661,o),
(280,783,cs),
(280,862,o),
(256,889,o),
(211,889,cs),
(191,889,o),
(159,879,o),
(144,866,c),
(164,826,o),
(165,779,o),
(165,731,cs),
(165,563,o),
(98,273,o),
(98,153,cs),
(98,68,o),
(122,-16,o),
(223,-16,cs),
(301,-16,o),
(431,106,o),
(519,243,c),
(512,196,o),
(508,154,o),
(508,125,cs),
(508,24,o),
(539,-7,o),
(586,-7,cs),
(603,-7,o),
(630,0,o),
(655,29,c),
(623,65,o),
(617,114,o),
(617,166,cs),
(617,352,o),
(694,661,o),
(694,783,cs),
(694,862,o),
(670,889,o),
(625,889,cs),
(606,889,o),
(573,879,o),
(559,866,c),
(579,826,o),
(580,779,o),
(580,731,cs),
(580,636,o),
(556,495,o),
(537,367,c),
(458,228,o),
(315,80,o),
(252,80,cs)
);
},
{
closed = 1;
nodes = (
(593,1042,o),
(599,1048,o),
(599,1061,cs),
(599,1073,o),
(586,1089,o),
(542,1089,cs),
(529,1089,o),
(514,1088,o),
(495,1084,c),
(478,1053,o),
(444,1021,o),
(335,939,c),
(344,921,o),
(354,911,o),
(362,911,cs),
(382,911,o),
(490,969,o),
(562,1020,cs)
);
},
{
ref = U;
},
{
pos = (218,0);
ref = acute.case;
}
);
width = 742;
}
);
unicode = 218;
},
{
glyphname = Ucircumflex;
layers = (
{
layerId = master01;
shapes = (
{
closed = 1;
nodes = (
(214,80,o),
(202,112,o),
(202,158,cs),
(202,344,o),
(280,661,o),
(280,783,cs),
(280,862,o),
(256,889,o),
(211,889,cs),
(191,889,o),
(159,879,o),
(144,866,c),
(164,826,o),
(165,779,o),
(165,731,cs),
(165,563,o),
(98,273,o),
(98,153,cs),
(98,68,o),
(122,-16,o),
(223,-16,cs),
(301,-16,o),
(431,106,o),
(519,243,c),
(512,196,o),
(508,154,o),
(508,125,cs),
(508,24,o),
(539,-7,o),
(586,-7,cs),
(603,-7,o),
(630,0,o),
(655,29,c),
(623,65,o),
(617,114,o),
(617,166,cs),
(617,352,o),
(694,661,o),
(694,783,cs),
(694,862,o),
(670,889,o),
(625,889,cs),
(606,889,o),
(573,879,o),
(559,866,c),
(579,826,o),
(580,779,o),
(580,731,cs),
(580,636,o),
(556,495,o),
(537,367,c),
(458,228,o),
(315,80,o),
(252,80,cs)
);
},
{
closed = 1;
nodes = (
(586,911,o),
(596,921,o),
(605,939,c),
(542,1001,o),
(505,1065,o),
(496,1078,c),
(485,1086,o),
(465,1089,o),
(445,1089,cs),
(428,1089,o),
(412,1087,o),
(402,1084,c),
(385,1053,o),
(365,1021,o),
(256,939,c),
(266,921,o),
(276,911,o),
(283,911,cs),
(300,911,o),
(377,957,o),
(442,1002,c),
(512,946,o),
(559,911,o),
(578,911,cs)
);
},
{
ref = U;
},
{
pos = (97,0);
ref = circumflex.case;
}
);
width = 742;
}
);
unicode = 219;
},
{
glyphname = Udieresis;
layers = (
{
layerId = master01;
shapes = (
{
closed = 1;
nodes = (
(214,80,o),
(202,112,o),
(202,158,cs),
(202,344,o),
(280,661,o),
(280,783,cs),
(280,862,o),
(256,889,o),
(211,889,cs),
(191,889,o),
(159,879,o),
(144,866,c),
(164,826,o),
(165,779,o),
(165,731,cs),
(165,563,o),
(98,273,o),
(98,153,cs),
(98,68,o),
(122,-16,o),
(223,-16,cs),
(301,-16,o),
(431,106,o),
(519,243,c),
(512,196,o),
(508,154,o),
(508,125,cs),
(508,24,o),
(539,-7,o),
(586,-7,cs),
(603,-7,o),
(630,0,o),
(655,29,c),
(623,65,o),
(617,114,o),
(617,166,cs),
(617,352,o),
(694,661,o),
(694,783,cs),
(694,862,o),
(670,889,o),
(625,889,cs),
(606,889,o),
(573,879,o),
(559,866,c),
(579,826,o),
(580,779,o),
(580,731,cs),
(580,636,o),
(556,495,o),
(537,367,c),
(458,228,o),
(315,80,o),
(252,80,cs)
);
},
{
closed = 1;
nodes = (
(389,1043,o),
(362,1055,o),
(331,1055,cs),
(309,1055,o),
(286,1047,o),
(262,1032,c),
(257,1008,o),
(255,989,o),
(255,975,cs),
(255,943,o),
(269,928,o),
(309,928,cs),
(330,928,o),
(354,936,o),
(378,951,c),
(385,977,o),
(389,997,o),
(389,1012,cs)
);
},
{
closed = 1;
nodes = (
(623,1043,o),
(596,1055,o),
(565,1055,cs),
(543,1055,o),
(521,1047,o),
(496,1032,c),
(492,1008,o),
(489,989,o),
(489,975,cs),
(489,943,o),
(503,928,o),
(543,928,cs),
(564,928,o),
(588,936,o),
(612,951,c),
(620,977,o),
(623,997,o),
(623,1012,cs)
);
},
{
ref = U;
},
{
pos = (250,0);
ref = dieresis.case;
}
);
width = 742;
}
);
unicode = 220;
},
{
glyphname = Ugrave;
layers = (
{
layerId = master01;
shapes = (
{
closed = 1;
nodes = (
(214,80,o),
(202,112,o),
(202,158,cs),
(202,344,o),
(280,661,o),
(280,783,cs),
(280,862,o),
(256,889,o),
(211,889,cs),
(191,889,o),
(159,879,o),
(144,866,c),
(164,826,o),
(165,779,o),
(165,731,cs),
(165,563,o),
(98,273,o),
(98,153,cs),
(98,68,o),
(122,-16,o),
(223,-16,cs),
(301,-16,o),
(431,106,o),
(519,243,c),
(512,196,o),
(508,154,o),
(508,125,cs),
(508,24,o),
(539,-7,o),
(586,-7,cs),
(603,-7,o),
(630,0,o),
(655,29,c),
(623,65,o),
(617,114,o),
(617,166,cs),
(617,352,o),
(694,661,o),
(694,783,cs),
(694,862,o),
(670,889,o),
(625,889,cs),
(606,889,o),
(573,879,o),
(559,866,c),
(579,826,o),
(580,779,o),
(580,731,cs),
(580,636,o),
(556,495,o),
(537,367,c),
(458,228,o),
(315,80,o),
(252,80,cs)
);
},
{
closed = 1;
nodes = (
(385,969,o),
(494,911,o),
(514,911,cs),
(521,911,o),
(531,921,o),
(541,939,c),
(432,1021,o),
(397,1053,o),
(380,1084,c),
(361,1088,o),
(346,1089,o),
(333,1089,cs),
(289,1089,o),
(276,1073,o),
(276,1061,cs),
(276,1048,o),
(282,1042,o),
(313,1020,cs)
);
},
{
ref = U;
},
{
pos = (124,0);
ref = grave.case;
}
);
width = 742;
}
);
unicode = 217;
},
{
glyphname = V;
layers = (
{
layerId = master01;
shapes = (
{
closed = 1;
nodes = (
(164,538,o),
(163,210,o),
(201,88,cs),
(224,11,o),
(251,-7,o),
(307,-7,cs),
(336,-7,o),
(367,3,o),
(376,16,c),
(375,23,o),
(374,31,o),
(374,40,cs),
(374,216,o),
(686,695,o),
(686,838,cs),
(686,875,o),
(667,889,o),
(640,889,cs),
(623,889,o),
(591,881,o),
(572,853,c),
(581,838,o),
(584,822,o),
(584,804,cs),
(584,667,o),
(387,336,o),
(307,146,c),
(257,314,o),
(254,647,o),
(218,766,cs),
(187,867,o),
(148,889,o),
(90,889,cs),
(71,889,o),
(37,878,o),
(24,853,c),
(68,816,o),
(95,777,o),
(110,725,cs,{
name = hr00;
})
);
}
);
width = 642;
}
);
unicode = 86;
},
{
glyphname = W;
layers = (
{
layerId = master01;
shapes = (
{
closed = 1;
nodes = (
(153,538,o),
(141,210,o),
(174,88,cs),
(196,9,o),
(224,-7,o),
(283,-7,cs),
(307,-7,o),
(335,3,o),
(347,16,c),
(346,23,o),
(345,31,o),
(345,40,cs),
(345,136,o),
(428,321,o),
(504,493,c),
(516,335,o),
(517,168,o),
(539,88,cs),
(561,9,o),
(588,-7,o),
(648,-7,cs),
(667,-7,o),
(699,2,o),
(712,16,c),
(710,23,o),
(709,31,o),
(709,40,cs),
(709,216,o),
(992,695,o),
(992,838,cs),
(992,875,o),
(974,889,o),
(946,889,cs),
(929,889,o),
(897,881,o),
(878,853,c),
(887,838,o),
(890,822,o),
(890,804,cs),
(890,670,o),
(720,351,o),
(644,159,c),
(603,331,o),
(611,650,o),
(580,766,cs),
(571,799,o),
(548,812,o),
(522,812,cs),
(489,812,o),
(452,791,o),
(435,763,c),
(463,748,o),
(478,695,o),
(487,645,c),
(433,492,o),
(333,293,o),
(280,158,c),
(238,330,o),
(247,650,o),
(215,766,cs),
(187,867,o),
(150,889,o),
(92,889,cs),
(73,889,o),
(38,878,o),
(24,853,c),
(67,816,o),
(93,777,o),
(106,725,cs,{
name = hr00;
})
);
}
);
width = 948;
}
);
unicode = 87;
},
{
glyphname = X;
layers = (
{
layerId = master01;
shapes = (
{
closed = 1;
nodes = (
(514,745,o),
(415,580,o),
(333,472,c),
(263,617,o),
(210,768,o),
(200,871,c),
(132,850,o),
(116,825,o),
(116,777,cs),
(116,721,o),
(173,556,o),
(251,392,c),
(141,247,o),
(41,85,o),
(41,43,cs),
(41,0,o),
(59,-13,o),
(86,-13,cs),
(104,-13,o),
(134,-5,o),
(154,18,c),
(149,26,o),
(145,37,o),
(145,53,cs),
(145,101,o),
(213,224,o),
(284,326,c),
(375,148,o),
(486,-13,o),
(570,-13,cs),
(608,-13,o),
(629,8,o),
(638,51,c),
(564,79,o),
(456,233,o),
(365,409,c),
(490,565,o),
(618,765,o),
(618,812,cs),
(618,855,o),
(600,869,o),
(572,869,cs),
(555,869,o),
(524,861,o),
(505,838,c),
(510,830,o),
(514,819,o),
(514,803,cs,{
name = hr00;
})
);
}
);
width = 638;
}
);
unicode = 88;
},
{
glyphname = Y;
layers = (
{
layerId = master01;
shapes = (
{
closed = 1;
nodes = (
(484,701,o),
(381,581,o),
(302,419,c),
(273,555,o),
(227,729,o),
(208,785,cs),
(181,861,o),
(145,889,o),
(111,889,cs),
(87,889,o),
(44,874,o),
(27,823,c),
(113,823,o),
(181,544,o),
(228,309,c),
(215,228,o),
(205,159,o),
(205,118,cs),
(205,23,o),
(234,-7,o),
(280,-7,cs),
(296,-7,o),
(325,0,o),
(350,29,c),
(320,62,o),
(314,107,o),
(314,155,cs),
(314,198,o),
(319,250,o),
(326,306,c),
(333,344,o),
(342,367,o),
(370,414,cs),
(454,556,o),
(591,774,o),
(591,837,cs),
(591,872,o),
(573,885,o),
(546,885,cs),
(529,885,o),
(494,877,o),
(474,849,c),
(482,834,o),
(484,818,o),
(484,800,cs,{
name = hr00;
})
);
}
);
width = 552;
}
);
unicode = 89;
},
{
glyphname = Yacute;
layers = (
{
layerId = master01;
shapes = (
{
closed = 1;
nodes = (
(484,701,o),
(381,581,o),
(302,419,c),
(273,555,o),
(227,729,o),
(208,785,cs),
(181,861,o),
(145,889,o),
(111,889,cs),
(87,889,o),
(44,874,o),
(27,823,c),
(113,823,o),
(181,544,o),
(228,309,c),
(215,228,o),
(205,159,o),
(205,118,cs),
(205,23,o),
(234,-7,o),
(280,-7,cs),
(296,-7,o),
(325,0,o),
(350,29,c),
(320,62,o),
(314,107,o),
(314,155,cs),
(314,198,o),
(319,250,o),
(326,306,c),
(333,344,o),
(342,367,o),
(370,414,cs),
(454,556,o),
(591,774,o),
(591,837,cs),
(591,872,o),
(573,885,o),
(546,885,cs),
(529,885,o),
(494,877,o),
(474,849,c),
(482,834,o),
(484,818,o),
(484,800,cs)
);
},
{
closed = 1;
nodes = (
(504,1042,o),
(510,1048,o),
(510,1061,cs),
(510,1073,o),
(497,1089,o),
(453,1089,cs),
(440,1089,o),
(425,1088,o),
(406,1084,c),
(389,1053,o),
(355,1021,o),
(246,939,c),
(255,921,o),
(265,911,o),
(273,911,cs),
(293,911,o),
(401,969,o),
(473,1020,cs)
);
},
{
ref = Y;
},
{
pos = (129,0);
ref = acute.case;
}
);
width = 552;
}
);
unicode = 221;
},
{
glyphname = Ydieresis;
layers = (
{
layerId = master01;
shapes = (
{
closed = 1;
nodes = (
(484,701,o),
(381,581,o),
(302,419,c),
(273,555,o),
(227,729,o),
(208,785,cs),
(181,861,o),
(145,889,o),
(111,889,cs),
(87,889,o),
(44,874,o),
(27,823,c),
(113,823,o),
(181,544,o),
(228,309,c),
(215,228,o),
(205,159,o),
(205,118,cs),
(205,23,o),
(234,-7,o),
(280,-7,cs),
(296,-7,o),
(325,0,o),
(350,29,c),
(320,62,o),
(314,107,o),
(314,155,cs),
(314,198,o),
(319,250,o),
(326,306,c),
(333,344,o),
(342,367,o),
(370,414,cs),
(454,556,o),
(591,774,o),
(591,837,cs),
(591,872,o),
(573,885,o),
(546,885,cs),
(529,885,o),
(494,877,o),
(474,849,c),
(482,834,o),
(484,818,o),
(484,800,cs)
);
},
{
closed = 1;
nodes = (
(314,1043,o),
(287,1055,o),
(256,1055,cs),
(234,1055,o),
(211,1047,o),
(187,1032,c),
(182,1008,o),
(180,989,o),
(180,975,cs),
(180,943,o),
(194,928,o),
(234,928,cs),
(255,928,o),
(279,936,o),
(303,951,c),
(310,977,o),
(314,997,o),
(314,1012,cs)
);
},
{
closed = 1;
nodes = (
(548,1043,o),
(521,1055,o),
(490,1055,cs),
(468,1055,o),
(446,1047,o),
(421,1032,c),
(417,1008,o),
(414,989,o),
(414,975,cs),
(414,943,o),
(428,928,o),
(468,928,cs),
(489,928,o),
(513,936,o),
(537,951,c),
(545,977,o),
(548,997,o),
(548,1012,cs)
);
},
{
ref = Y;
},
{
pos = (174,0);
ref = dieresis.case;
}
);
width = 552;
}
);
unicode = 376;
},
{
glyphname = Z;
layers = (
{
layerId = master01;
shapes = (
{
closed = 1;
nodes = (
(21,-6,o),
(39,-21,o),
(64,-21,cs),
(79,-21,o),
(94,-14,o),
(107,-1,c),
(165,12,o),
(219,19,o),
(299,19,cs),
(433,19,o),
(488,1,o),
(549,-23,c,{
name = hr01;
}),
(550,-11,o),
(551,1,o),
(551,12,cs),
(551,108,o),
(492,116,o),
(399,116,cs),
(354,116,o),
(260,108,o),
(150,78,c),
(289,368,o),
(489,772,o),
(601,789,c),
(601,862,o),
(547,866,o),
(525,866,cs),
(500,866,o),
(475,854,o),
(452,830,c),
(422,827,o),
(387,825,o),
(345,825,cs),
(236,825,o),
(162,854,o),
(113,884,c),
(95,860,o),
(89,835,o),
(89,809,cs),
(89,761,o),
(134,732,o),
(238,732,cs),
(256,732,o),
(325,736,o),
(397,749,c),
(317,605,o),
(77,165,o),
(10,17,c)
);
}
);
width = 571;
}
);
unicode = 90;
},
{
glyphname = Zcaron;
layers = (
{
layerId = master01;
shapes = (
{
closed = 1;
nodes = (
(21,-6,o),
(39,-21,o),
(64,-21,cs),
(79,-21,o),
(94,-14,o),
(107,-1,c),
(165,12,o),
(219,19,o),
(299,19,cs),
(433,19,o),
(488,1,o),
(549,-23,c),
(550,-11,o),
(551,1,o),
(551,12,cs),
(551,108,o),
(492,116,o),
(399,116,cs),
(354,116,o),
(260,108,o),
(150,78,c),
(289,368,o),
(489,772,o),
(601,789,c),
(601,862,o),
(547,866,o),
(525,866,cs),
(500,866,o),
(475,854,o),
(452,830,c),
(422,827,o),
(387,825,o),
(345,825,cs),
(236,825,o),
(162,854,o),
(113,884,c),
(95,860,o),
(89,835,o),
(89,809,cs),
(89,761,o),
(134,732,o),
(238,732,cs),
(256,732,o),
(325,736,o),
(397,749,c),
(317,605,o),
(77,165,o),
(10,17,c)
);
},
{
closed = 1;
nodes = (
(222,1089,o),
(212,1079,o),
(202,1061,c),
(265,999,o),
(302,935,o),
(312,922,c),
(323,914,o),
(343,911,o),
(363,911,cs),
(379,911,o),
(396,913,o),
(406,916,c),
(423,947,o),
(442,979,o),
(551,1061,c),
(542,1079,o),
(532,1089,o),
(524,1089,cs),
(507,1089,o),
(431,1043,o),
(365,999,c),
(296,1054,o),
(249,1089,o),
(229,1089,cs)
);
},
{
ref = Z;
},
{
pos = (42,0);
ref = caron.case;
}
);
width = 571;
}
);
unicode = 381;
},
{
glyphname = a;
layers = (
{
layerId = master01;
shapes = (
{
closed = 1;
nodes = (
(464,291,o),
(459,233,o),
(459,204,cs),
(459,66,o),
(489,-7,o),
(545,-7,cs),
(570,-7,o),
(594,6,o),
(613,30,c),
(579,86,o),
(567,149,o),
(567,269,cs),
(567,408,o),
(587,584,o),
(611,648,c),
(594,667,o),
(579,674,o),
(557,674,cs),
(527,674,o),
(512,658,o),
(502,617,c),
(466,660,o),
(416,684,o),
(361,684,cs,{
name = hr01;
}),
(196,684,o),
(68,488,o),
(68,237,cs),
(68,81,o),
(124,-14,o),
(215,-14,cs),
(291,-14,o),
(398,130,o),
(467,323,c)
);
},
{
closed = 1;
nodes = (
(473,377,o),
(324,92,o),
(249,92,cs),
(202,92,o),
(173,156,o),
(173,262,cs),
(173,469,o),
(252,615,o),
(365,615,cs),
(404,615,o),
(448,598,o),
(494,563,c)
);
}
);
width = 687;
}
);
unicode = 97;
},
{
glyphname = ae;
layers = (
{
layerId = master01;
shapes = (
{
closed = 1;
nodes = (
(196,684,o),
(68,488,o),
(68,237,cs),
(68,81,o),
(124,-14,o),
(215,-14,cs),
(274,-14,o),
(353,74,o),
(417,205,c),
(433,78,o),
(508,-17,o),
(657,-17,cs,{
name = hr01;
}),
(735,-17,o),
(851,20,o),
(851,102,cs),
(851,120,o),
(843,143,o),
(827,158,c),
(795,89,o),
(744,57,o),
(676,57,cs,{
name = hr02;
}),
(580,57,o),
(523,135,o),
(521,285,c),
(540,282,o),
(559,281,o),
(576,281,cs),
(775,281,o),
(895,431,o),
(895,548,cs),
(895,623,o),
(846,684,o),
(738,684,cs),
(660,684,o),
(593,648,o),
(541,594,c),
(478,662,o),
(414,684,o),
(361,684,cs)
);
},
{
closed = 1;
nodes = (
(202,92,o),
(173,156,o),
(173,262,cs),
(173,469,o),
(252,615,o),
(365,615,cs),
(403,615,o),
(455,598,o),
(507,552,c),
(457,482,o),
(425,394,o),
(417,308,c),
(359,187,o),
(294,92,o),
(249,92,cs,{
name = hr03;
})
);
},
{
closed = 1;
nodes = (
(758,609,o),
(790,567,o),
(790,515,cs),
(790,436,o),
(714,345,o),
(569,345,cs),
(554,345,o),
(540,346,o),
(524,348,c),
(534,452,o),
(572,609,o),
(691,609,cs)
);
}
);
width = 929;
}
);
unicode = 230;
},
{
glyphname = b;
layers = (
{
layerId = master01;
shapes = (
{
closed = 1;
nodes = (
(216,294,o),
(350,578,o),
(425,578,cs),
(485,578,o),
(510,479,o),
(510,367,cs),
(510,193,o),
(448,54,o),
(336,54,cs),
(298,54,o),
(254,70,o),
(205,106,c)
);
},
{
closed = 1;
nodes = (
(169,648,o),
(117,183,o),
(91,18,c),
(109,0,o),
(125,-8,o),
(147,-8,cs,{
name = hr01;
}),
(175,-8,o),
(190,8,o),
(198,53,c),
(232,15,o),
(282,-14,o),
(344,-14,cs,{
name = hr02;
}),
(530,-14,o),
(614,205,o),
(614,398,cs),
(614,601,o),
(535,684,o),
(453,684,cs),
(379,684,o),
(278,543,o),
(218,346,c),
(235,457,o),
(284,753,o),
(284,832,cs),
(284,911,o),
(261,937,o),
(216,937,cs),
(196,937,o),
(163,928,o),
(148,915,c),
(167,879,o),
(169,839,o),
(169,751,cs)
);
}
);
width = 682;
}
);
unicode = 98;
},
{
glyphname = c;
layers = (
{
layerId = master01;
shapes = (
{
closed = 1;
nodes = (
(383,-17,o),
(490,20,o),
(490,102,cs),
(490,120,o),
(483,143,o),
(469,158,c),
(439,89,o),
(393,57,o),
(331,57,cs),
(232,57,o),
(176,138,o),
(176,294,cs),
(176,385,o),
(204,609,o),
(346,609,cs),
(420,609,o),
(458,568,o),
(487,511,c),
(505,526,o),
(532,556,o),
(532,603,cs),
(532,662,o),
(471,684,o),
(393,684,cs),
(190,684,o),
(68,451,o),
(68,259,cs),
(68,106,o),
(142,-17,o),
(312,-17,cs,{
name = hr00;
})
);
}
);
width = 532;
}
);
unicode = 99;
},
{
glyphname = d;
layers = (
{
layerId = master01;
shapes = (
{
closed = 1;
nodes = (
(470,655,o),
(423,684,o),
(361,684,cs),
(163,684,o),
(68,437,o),
(68,237,cs),
(68,59,o),
(136,-14,o),
(215,-14,cs),
(289,-14,o),
(397,126,o),
(467,323,c),
(463,287,o),
(459,251,o),
(459,206,cs),
(459,73,o),
(485,-7,o),
(544,-7,cs,{
name = hr01;
}),
(568,-7,o),
(592,4,o),
(612,30,c),
(574,94,o),
(565,167,o),
(565,280,cs),
(565,487,o),
(621,701,o),
(621,826,cs,{
name = hr02;
}),
(621,910,o),
(597,937,o),
(551,937,cs),
(531,937,o),
(499,928,o),
(484,915,c),
(500,885,o),
(506,797,o),
(506,718,cs),
(506,680,o),
(505,644,o),
(502,617,c)
);
},
{
closed = 1;
nodes = (
(473,375,o),
(323,92,o),
(249,92,cs),
(196,92,o),
(173,168,o),
(173,262,cs),
(173,454,o),
(244,615,o),
(365,615,cs),
(403,615,o),
(446,599,o),
(494,563,c)
);
}
);
width = 694;
}
);
unicode = 100;
},
{
glyphname = eth;
layers = (
{
layerId = master01;
shapes = (
{
closed = 1;
nodes = (
(370,722,o),
(410,747,o),
(450,767,c),
(479,715,o),
(502,643,o),
(512,547,c),
(502,544,l),
(462,600,o),
(409,618,o),
(356,618,cs),
(182,618,o),
(68,418,o),
(68,240,cs),
(68,97,o),
(142,-17,o),
(286,-17,cs),
(504,-17,o),
(602,200,o),
(602,429,cs),
(602,559,o),
(571,694,o),
(512,794,c),
(600,839,o),
(621,865,o),
(621,886,cs),
(621,906,o),
(605,928,o),
(581,939,c),
(568,915,o),
(506,876,o),
(468,856,c),
(415,919,o),
(347,958,o),
(266,958,cs),
(185,958,o),
(131,934,o),
(131,876,cs),
(131,853,o),
(150,825,o),
(169,811,c),
(201,853,o),
(246,877,o),
(293,877,cs),
(330,877,o),
(368,862,o),
(403,828,c),
(351,806,o),
(303,785,o),
(303,754,cs),
(303,727,o),
(332,704,o),
(351,693,c,{
name = hr00;
})
);
},
{
closed = 1;
nodes = (
(440,561,o),
(502,487,o),
(502,345,cs),
(502,263,o),
(471,57,o),
(335,57,cs),
(237,57,o),
(176,131,o),
(176,273,cs),
(176,356,o),
(208,561,o),
(341,561,cs)
);
}
);
width = 655;
}
);
unicode = 240;
},
{
glyphname = e;
layers = (
{
layerId = master01;
shapes = (
{
closed = 1;
nodes = (
(430,281,o),
(549,431,o),
(549,548,cs),
(549,623,o),
(500,684,o),
(393,684,cs),
(190,684,o),
(68,451,o),
(68,259,cs),
(68,106,o),
(142,-17,o),
(312,-17,cs),
(389,-17,o),
(505,20,o),
(505,102,cs),
(505,120,o),
(497,143,o),
(481,158,c),
(449,89,o),
(398,57,o),
(331,57,cs),
(234,57,o),
(178,135,o),
(176,284,c),
(194,282,o),
(212,281,o),
(230,281,cs,{
name = hr00;
})
);
},
{
closed = 1;
nodes = (
(412,609,o),
(444,567,o),
(444,515,cs),
(444,436,o),
(368,345,o),
(223,345,cs),
(209,345,o),
(194,346,o),
(178,348,c),
(188,452,o),
(227,609,o),
(346,609,cs)
);
}
);
width = 583;
}
);
unicode = 101;
},
{
glyphname = eacute;
layers = (
{
layerId = master01;
shapes = (
{
closed = 1;
nodes = (
(430,281,o),
(549,431,o),
(549,548,cs),
(549,623,o),
(500,684,o),
(393,684,cs),
(190,684,o),
(68,451,o),
(68,259,cs),
(68,106,o),
(142,-17,o),
(312,-17,cs),
(389,-17,o),
(505,20,o),
(505,102,cs),
(505,120,o),
(497,143,o),
(481,158,c),
(449,89,o),
(398,57,o),
(331,57,cs),
(234,57,o),
(178,135,o),
(176,284,c),
(194,282,o),
(212,281,o),
(230,281,cs)
);
},
{
closed = 1;
nodes = (
(412,609,o),
(444,567,o),
(444,515,cs),
(444,436,o),
(368,345,o),
(223,345,cs),
(209,345,o),
(194,346,o),
(178,348,c),
(188,452,o),
(227,609,o),
(346,609,cs)
);
},
{
closed = 1;
nodes = (
(519,871,o),
(525,877,o),
(525,890,cs),
(525,902,o),
(512,918,o),
(468,918,cs),
(455,918,o),
(440,917,o),
(421,913,c),
(404,882,o),
(370,850,o),
(261,768,c),
(270,750,o),
(280,740,o),
(288,740,cs),
(308,740,o),
(416,798,o),
(488,849,cs)
);
},
{
ref = e;
},
{
pos = (144,0);
ref = acute;
}
);
width = 583;
}
);
unicode = 233;
},
{
glyphname = ecircumflex;
layers = (
{
layerId = master01;
shapes = (
{
closed = 1;
nodes = (
(430,281,o),
(549,431,o),
(549,548,cs),
(549,623,o),
(500,684,o),
(393,684,cs),
(190,684,o),
(68,451,o),
(68,259,cs),
(68,106,o),
(142,-17,o),
(312,-17,cs),
(389,-17,o),
(505,20,o),
(505,102,cs),
(505,120,o),
(497,143,o),
(481,158,c),
(449,89,o),
(398,57,o),
(331,57,cs),
(234,57,o),
(178,135,o),
(176,284,c),
(194,282,o),
(212,281,o),
(230,281,cs)
);
},
{
closed = 1;
nodes = (
(412,609,o),
(444,567,o),
(444,515,cs),
(444,436,o),
(368,345,o),
(223,345,cs),
(209,345,o),
(194,346,o),
(178,348,c),
(188,452,o),
(227,609,o),
(346,609,cs)
);
},
{
closed = 1;
nodes = (
(522,740,o),
(532,750,o),
(541,768,c),
(478,830,o),
(441,894,o),
(432,907,c),
(421,915,o),
(401,918,o),
(381,918,cs),
(364,918,o),
(348,916,o),
(338,913,c),
(321,882,o),
(301,850,o),
(192,768,c),
(202,750,o),
(212,740,o),
(219,740,cs),
(236,740,o),
(313,786,o),
(378,831,c),
(448,775,o),
(495,740,o),
(514,740,cs)
);
},
{
ref = e;
},
{
pos = (32,0);
ref = circumflex;
}
);
width = 583;
}
);
unicode = 234;
},
{
glyphname = edieresis;
layers = (
{
layerId = master01;
shapes = (
{
closed = 1;
nodes = (
(430,281,o),
(549,431,o),
(549,548,cs),
(549,623,o),
(500,684,o),
(393,684,cs),
(190,684,o),
(68,451,o),
(68,259,cs),
(68,106,o),
(142,-17,o),
(312,-17,cs),
(389,-17,o),
(505,20,o),
(505,102,cs),
(505,120,o),
(497,143,o),
(481,158,c),
(449,89,o),
(398,57,o),
(331,57,cs),
(234,57,o),
(178,135,o),
(176,284,c),
(194,282,o),
(212,281,o),
(230,281,cs)
);
},
{
closed = 1;
nodes = (
(412,609,o),
(444,567,o),
(444,515,cs),
(444,436,o),
(368,345,o),
(223,345,cs),
(209,345,o),
(194,346,o),
(178,348,c),
(188,452,o),
(227,609,o),
(346,609,cs)
);
},
{
closed = 1;
nodes = (
(320,872,o),
(293,884,o),
(262,884,cs),
(240,884,o),
(217,876,o),
(193,861,c),
(188,837,o),
(186,818,o),
(186,804,cs),
(186,772,o),
(200,757,o),
(240,757,cs),
(261,757,o),
(285,765,o),
(309,780,c),
(316,806,o),
(320,826,o),
(320,841,cs)
);
},
{
closed = 1;
nodes = (
(554,872,o),
(527,884,o),
(496,884,cs),
(474,884,o),
(452,876,o),
(427,861,c),
(423,837,o),
(420,818,o),
(420,804,cs),
(420,772,o),
(434,757,o),
(474,757,cs),
(495,757,o),
(519,765,o),
(543,780,c),
(551,806,o),
(554,826,o),
(554,841,cs)
);
},
{
ref = e;
},
{
pos = (181,0);
ref = dieresis;
}
);
width = 583;
}
);
unicode = 235;
},
{
glyphname = f;
layers = (
{
layerId = master01;
shapes = (
{
closed = 1;
nodes = (
(45,630,o),
(39,589,o),
(39,520,c),
(69,539,o),
(113,545,o),
(152,546,c),
(125,345,o),
(83,23,o),
(83,-91,cs),
(83,-191,o),
(114,-223,o),
(161,-223,cs),
(178,-223,o),
(206,-216,o),
(230,-187,c),
(198,-151,o),
(192,-102,o),
(192,-50,cs),
(192,108,o),
(227,391,o),
(249,547,c),
(382,550,o),
(412,564,o),
(423,659,c),
(388,635,o),
(343,630,o),
(262,630,c),
(294,826,o),
(349,893,o),
(425,893,cs),
(485,893,o),
(518,862,o),
(534,794,c),
(564,815,o),
(580,843,o),
(580,877,cs),
(580,935,o),
(533,967,o),
(439,967,cs),
(297,967,o),
(200,803,o),
(165,630,c,{
name = hr00;
})
);
}
);
width = 363;
}
);
unicode = 102;
},
{
glyphname = g;
layers = (
{
layerId = master01;
shapes = (
{
closed = 1;
nodes = (
(609,666,o),
(580,674,o),
(557,674,cs),
(529,674,o),
(513,661,o),
(502,617,c),
(470,655,o),
(423,684,o),
(361,684,cs,{
name = hr01;
}),
(163,684,o),
(68,437,o),
(68,237,cs),
(68,59,o),
(136,-14,o),
(215,-14,cs),
(289,-14,o),
(397,125,o),
(467,322,c),
(459,-32,o),
(451,-180,o),
(318,-180,cs),
(244,-180,o),
(187,-139,o),
(153,-81,c),
(138,-95,o),
(117,-121,o),
(117,-161,cs),
(117,-238,o),
(212,-254,o),
(279,-254,cs),
(453,-254,o),
(566,-98,o),
(566,151,cs),
(566,368,o),
(572,481,o),
(581,556,c),
(596,594,o),
(612,629,o),
(626,653,c)
);
},
{
closed = 1;
nodes = (
(473,375,o),
(323,92,o),
(249,92,cs),
(196,92,o),
(173,168,o),
(173,262,cs),
(173,454,o),
(244,615,o),
(365,615,cs),
(403,615,o),
(446,599,o),
(494,563,c)
);
}
);
width = 676;
}
);
unicode = 103;
},
{
glyphname = h;
layers = (
{
layerId = master01;
shapes = (
{
closed = 1;
nodes = (
(201,19,o),
(192,54,o),
(192,95,cs),
(192,229,o),
(335,574,o),
(421,574,cs),
(463,574,o),
(475,549,o),
(475,501,cs),
(475,438,o),
(442,315,o),
(442,187,cs,{
name = hr01;
}),
(442,63,o),
(470,-7,o),
(525,-7,cs),
(547,-7,o),
(571,4,o),
(595,29,c),
(559,70,o),
(551,162,o),
(551,220,cs),
(551,318,o),
(574,408,o),
(574,507,cs,{
name = hr02;
}),
(574,591,o),
(554,680,o),
(458,680,cs),
(361,680,o),
(274,491,o),
(206,330,c),
(226,491,o),
(279,710,o),
(279,832,cs),
(279,911,o),
(255,937,o),
(210,937,cs),
(191,937,o),
(158,928,o),
(144,915,c),
(164,875,o),
(165,828,o),
(165,780,cs),
(164,531,o),
(83,242,o),
(83,93,cs,{
name = hr03;
}),
(83,34,o),
(94,-7,o),
(147,-7,cs),
(164,-7,o),
(185,-3,o),
(209,7,c)
);
}
);
width = 664;
}
);
unicode = 104;
},
{
glyphname = i;
layers = (
{
layerId = master01;
shapes = (
{
closed = 1;
nodes = (
(271,872,o),
(244,884,o),
(213,884,cs),
(191,884,o),
(168,876,o),
(144,861,c),
(140,837,o),
(137,818,o),
(137,804,cs),
(137,772,o),
(151,757,o),
(191,757,cs),
(212,757,o),
(236,765,o),
(260,780,c),
(268,806,o),
(271,826,o),
(271,841,cs)
);
},
{
closed = 1;
nodes = (
(212,65,o),
(207,114,o),
(207,166,cs),
(207,308,o),
(253,530,o),
(253,597,cs,{
name = hr01;
}),
(253,653,o),
(221,673,o),
(186,673,cs),
(167,673,o),
(134,664,o),
(119,650,c),
(139,612,o),
(140,563,o),
(140,521,cs),
(140,371,o),
(98,243,o),
(98,125,cs,{
name = hr02;
}),
(98,24,o),
(129,-7,o),
(176,-7,cs),
(192,-7,o),
(220,0,o),
(245,29,c)
);
}
);
width = 332;
}
);
unicode = 105;
},
{
glyphname = dotlessi;
layers = (
{
layerId = master01;
shapes = (
{
closed = 1;
nodes = (
(212,65,o),
(207,114,o),
(207,166,cs),
(207,308,o),
(253,530,o),
(253,597,cs,{
name = hr01;
}),
(253,653,o),
(221,673,o),
(186,673,cs),
(167,673,o),
(134,664,o),
(119,650,c),
(139,612,o),
(140,563,o),
(140,521,cs),
(140,371,o),
(98,243,o),
(98,125,cs,{
name = hr02;
}),
(98,24,o),
(129,-7,o),
(176,-7,cs),
(192,-7,o),
(220,0,o),
(245,29,c)
);
}
);
width = 332;
}
);
unicode = 305;
},
{
glyphname = iacute;
layers = (
{
layerId = master01;
shapes = (
{
closed = 1;
nodes = (
(212,65,o),
(207,114,o),
(207,166,cs),
(207,308,o),
(253,530,o),
(253,597,cs),
(253,653,o),
(221,673,o),
(186,673,cs),
(167,673,o),
(134,664,o),
(119,650,c),
(139,612,o),
(140,563,o),
(140,521,cs),
(140,371,o),
(98,243,o),
(98,125,cs),
(98,24,o),
(129,-7,o),
(176,-7,cs),
(192,-7,o),
(220,0,o),
(245,29,c)
);
},
{
closed = 1;
nodes = (
(346,871,o),
(352,877,o),
(352,890,cs),
(352,902,o),
(339,918,o),
(295,918,cs),
(282,918,o),
(267,917,o),
(248,913,c),
(231,882,o),
(197,850,o),
(88,768,c),
(97,750,o),
(107,740,o),
(115,740,cs),
(135,740,o),
(243,798,o),
(315,849,cs)
);
},
{
ref = dotlessi;
},
{
pos = (-29,0);
ref = acute;
}
);
width = 332;
}
);
unicode = 237;
},
{
glyphname = icircumflex;
layers = (
{
layerId = master01;
shapes = (
{
closed = 1;
nodes = (
(212,65,o),
(207,114,o),
(207,166,cs),
(207,308,o),
(253,530,o),
(253,597,cs),
(253,653,o),
(221,673,o),
(186,673,cs),
(167,673,o),
(134,664,o),
(119,650,c),
(139,612,o),
(140,563,o),
(140,521,cs),
(140,371,o),
(98,243,o),
(98,125,cs),
(98,24,o),
(129,-7,o),
(176,-7,cs),
(192,-7,o),
(220,0,o),
(245,29,c)
);
},
{
closed = 1;
nodes = (
(336,740,o),
(346,750,o),
(355,768,c),
(292,830,o),
(255,894,o),
(246,907,c),
(235,915,o),
(215,918,o),
(195,918,cs),
(178,918,o),
(162,916,o),
(152,913,c),
(135,882,o),
(115,850,o),
(6,768,c),
(16,750,o),
(26,740,o),
(33,740,cs),
(50,740,o),
(127,786,o),
(192,831,c),
(262,775,o),
(309,740,o),
(328,740,cs)
);
},
{
ref = dotlessi;
},
{
pos = (-154,0);
ref = circumflex;
}
);
width = 332;
}
);
unicode = 238;
},
{
glyphname = idieresis;
layers = (
{
layerId = master01;
shapes = (
{
closed = 1;
nodes = (
(212,65,o),
(207,114,o),
(207,166,cs),
(207,308,o),
(253,530,o),
(253,597,cs),
(253,653,o),
(221,673,o),
(186,673,cs),
(167,673,o),
(134,664,o),
(119,650,c),
(139,612,o),
(140,563,o),
(140,521,cs),
(140,371,o),
(98,243,o),
(98,125,cs),
(98,24,o),
(129,-7,o),
(176,-7,cs),
(192,-7,o),
(220,0,o),
(245,29,c)
);
},
{
closed = 1;
nodes = (
(155,872,o),
(128,884,o),
(97,884,cs),
(75,884,o),
(52,876,o),
(28,861,c),
(23,837,o),
(21,818,o),
(21,804,cs),
(21,772,o),
(35,757,o),
(75,757,cs),
(96,757,o),
(120,765,o),
(144,780,c),
(151,806,o),
(155,826,o),
(155,841,cs)
);
},
{
closed = 1;
nodes = (
(389,872,o),
(362,884,o),
(331,884,cs),
(309,884,o),
(287,876,o),
(262,861,c),
(258,837,o),
(255,818,o),
(255,804,cs),
(255,772,o),
(269,757,o),
(309,757,cs),
(330,757,o),
(354,765,o),
(378,780,c),
(386,806,o),
(389,826,o),
(389,841,cs)
);
},
{
ref = dotlessi;
},
{
pos = (16,0);
ref = dieresis;
}
);
width = 332;
}
);
unicode = 239;
},
{
glyphname = igrave;
layers = (
{
layerId = master01;
shapes = (
{
closed = 1;
nodes = (
(160,798,o),
(269,740,o),
(289,740,cs),
(296,740,o),
(306,750,o),
(316,768,c),
(207,850,o),
(172,882,o),
(155,913,c),
(136,917,o),
(121,918,o),
(108,918,cs),
(64,918,o),
(51,902,o),
(51,890,cs),
(51,877,o),
(57,871,o),
(88,849,cs)
);
},
{
ref = dotlessi;
},
{
pos = (-102,0);
ref = grave;
}
);
width = 332;
}
);
unicode = 236;
},
{
glyphname = iogonek;
layers = (
{
layerId = master01;
shapes = (
{
closed = 1;
nodes = (
(75,1,o),
(8,-66,o),
(8,-152,cs),
(8,-208,o),
(44,-264,o),
(121,-264,cs),
(200,-264,o),
(250,-215,o),
(250,-178,cs),
(250,-150,o),
(243,-136,o),
(228,-125,c),
(217,-172,o),
(172,-200,o),
(135,-200,cs),
(108,-200,o),
(86,-180,o),
(86,-145,cs),
(86,-118,o),
(89,-52,o),
(199,-3,c),
(199,48,l)
);
},
{
ref = i;
}
);
width = 332;
}
);
unicode = 303;
},
{
glyphname = j;
layers = (
{
layerId = master01;
shapes = (
{
closed = 1;
nodes = (
(255,872,o),
(229,884,o),
(198,884,cs),
(176,884,o),
(153,876,o),
(128,861,c),
(124,837,o),
(122,818,o),
(122,804,cs),
(122,772,o),
(136,757,o),
(176,757,cs),
(197,757,o),
(220,765,o),
(245,780,c),
(252,806,o),
(255,826,o),
(255,841,cs)
);
},
{
closed = 1;
nodes = (
(238,653,o),
(205,673,o),
(170,673,cs),
(151,673,o),
(114,662,o),
(104,650,c),
(122,619,o),
(125,563,o),
(125,521,cs),
(124,82,o),
(101,-180,o),
(-39,-180,cs),
(-95,-180,o),
(-139,-139,o),
(-165,-81,c),
(-180,-95,o),
(-201,-121,o),
(-201,-161,cs),
(-201,-217,o),
(-138,-263,o),
(-62,-263,cs),
(27,-263,o),
(133,-201,o),
(180,-23,cs),
(223,139,o),
(238,386,o),
(238,597,cs,{
name = hr01;
})
);
}
);
width = 328;
}
);
unicode = 106;
},
{
glyphname = dotlessj;
layers = (
{
layerId = master01;
shapes = (
{
closed = 1;
nodes = (
(238,653,o),
(205,673,o),
(170,673,cs),
(151,673,o),
(114,662,o),
(104,650,c),
(122,619,o),
(125,563,o),
(125,521,cs),
(124,82,o),
(101,-180,o),
(-39,-180,cs),
(-95,-180,o),
(-139,-139,o),
(-165,-81,c),
(-180,-95,o),
(-201,-121,o),
(-201,-161,cs),
(-201,-217,o),
(-138,-263,o),
(-62,-263,cs),
(27,-263,o),
(133,-201,o),
(180,-23,cs),
(223,139,o),
(238,386,o),
(238,597,cs,{
name = hr00;
})
);
}
);
width = 328;
}
);
unicode = 567;
},
{
glyphname = k;
layers = (
{
layerId = master01;
shapes = (
{
closed = 1;
nodes = (
(202,196,o),
(204,232,o),
(207,270,c),
(252,310,l),
(315,204,o),
(368,107,o),
(407,60,cs),
(447,11,o),
(484,-10,o),
(511,-10,cs),
(532,-10,o),
(583,3,o),
(585,78,c),
(538,85,o),
(497,120,o),
(464,160,cs),
(420,213,o),
(373,293,o),
(324,376,c),
(449,492,o),
(553,600,o),
(553,622,cs),
(553,649,o),
(518,668,o),
(463,668,c),
(451,620,o),
(349,491,o),
(218,366,c),
(240,544,o),
(279,746,o),
(279,832,cs,{
name = hr01;
}),
(279,911,o),
(255,937,o),
(210,937,cs),
(191,937,o),
(158,928,o),
(144,915,c),
(164,875,o),
(165,828,o),
(165,780,cs),
(165,563,o),
(93,246,o),
(93,125,cs,{
name = hr02;
}),
(93,24,o),
(124,-7,o),
(171,-7,cs),
(187,-7,o),
(215,0,o),
(240,29,c),
(208,65,o),
(202,114,o),
(202,166,cs)
);
}
);
width = 600;
}
);
unicode = 107;
},
{
glyphname = kgreenlandic;
layers = (
{
layerId = master01;
shapes = (
{
closed = 1;
nodes = (
(212,65,o),
(207,114,o),
(207,166,cs),
(207,195,o),
(209,227,o),
(212,261,c),
(267,310,l),
(330,204,o),
(383,107,o),
(422,60,cs),
(462,11,o),
(499,-10,o),
(526,-10,cs),
(547,-10,o),
(598,3,o),
(600,78,c),
(553,85,o),
(512,120,o),
(479,160,cs),
(435,213,o),
(388,293,o),
(339,376,c),
(464,492,o),
(568,600,o),
(568,622,cs),
(568,649,o),
(533,668,o),
(478,668,c),
(464,617,o),
(361,492,o),
(223,361,c),
(236,462,o),
(253,557,o),
(253,597,cs,{
name = hr01;
}),
(253,653,o),
(221,673,o),
(186,673,cs),
(167,673,o),
(134,664,o),
(119,650,c),
(139,612,o),
(140,563,o),
(140,521,cs),
(140,371,o),
(98,243,o),
(98,125,cs,{
name = hr02;
}),
(98,24,o),
(129,-7,o),
(176,-7,cs),
(192,-7,o),
(220,0,o),
(245,29,c)
);
}
);
width = 615;
}
);
unicode = 312;
},
{
glyphname = l;
layers = (
{
layerId = master01;
shapes = (
{
closed = 1;
nodes = (
(207,352,o),
(284,710,o),
(284,832,cs,{
name = hr01;
}),
(284,911,o),
(260,937,o),
(215,937,cs),
(196,937,o),
(163,928,o),
(148,915,c),
(168,875,o),
(169,828,o),
(169,780,cs),
(169,563,o),
(98,246,o),
(98,125,cs,{
name = hr02;
}),
(98,24,o),
(129,-7,o),
(176,-7,cs),
(192,-7,o),
(220,0,o),
(245,29,c),
(212,65,o),
(207,114,o),
(207,166,cs)
);
}
);
width = 332;
}
);
unicode = 108;
},
{
glyphname = lslash;
layers = (
{
layerId = master01;
shapes = (
{
closed = 1;
nodes = (
(97,453,o),
(119,471,o),
(143,486,c),
(123,338,o),
(98,197,o),
(98,125,cs),
(98,24,o),
(129,-7,o),
(176,-7,cs),
(192,-7,o),
(220,0,o),
(245,29,c),
(212,65,o),
(207,114,o),
(207,166,cs),
(207,263,o),
(228,407,o),
(248,540,c),
(268,549,o),
(286,556,o),
(301,564,cs),
(359,595,o),
(382,623,o),
(382,646,cs),
(382,668,o),
(364,693,o),
(338,705,c),
(328,686,o),
(294,661,o),
(263,642,c),
(275,722,o),
(284,790,o),
(284,832,cs),
(284,911,o),
(260,937,o),
(215,937,cs),
(196,937,o),
(163,928,o),
(148,915,c),
(168,875,o),
(169,828,o),
(169,780,cs),
(169,721,o),
(164,656,o),
(156,589,c),
(93,563,o),
(32,538,o),
(32,501,cs),
(32,471,o),
(64,446,o),
(85,434,c)
);
},
{
ref = l;
},
{
pos = (12,0);
ref = eslash;
}
);
width = 332;
}
);
unicode = 322;
},
{
glyphname = m;
layers = (
{
layerId = master01;
shapes = (
{
closed = 1;
nodes = (
(539,19,o),
(530,54,o),
(530,95,cs),
(530,229,o),
(664,574,o),
(743,574,cs),
(783,574,o),
(793,549,o),
(793,501,cs),
(793,438,o),
(761,315,o),
(761,187,cs,{
name = hr01;
}),
(761,63,o),
(789,-7,o),
(844,-7,cs),
(866,-7,o),
(890,4,o),
(913,29,c),
(877,70,o),
(869,162,o),
(869,220,cs),
(869,318,o),
(892,408,o),
(892,507,cs,{
name = hr02;
}),
(892,591,o),
(874,680,o),
(782,680,cs),
(690,680,o),
(604,496,o),
(544,330,c),
(555,408,o),
(557,439,o),
(557,507,cs),
(557,591,o),
(539,680,o),
(447,680,cs),
(355,680,o),
(273,491,o),
(209,330,c),
(223,408,o),
(238,500,o),
(238,568,cs),
(238,647,o),
(214,673,o),
(169,673,cs,{
name = hr03;
}),
(150,673,o),
(117,664,o),
(103,650,c),
(123,611,o),
(124,564,o),
(124,516,cs),
(124,357,o),
(86,199,o),
(86,93,cs,{
name = hr04;
}),
(86,34,o),
(97,-7,o),
(150,-7,cs),
(167,-7,o),
(187,-3,o),
(212,7,c),
(204,19,o),
(195,54,o),
(195,95,cs),
(195,229,o),
(330,574,o),
(409,574,cs),
(448,574,o),
(458,549,o),
(458,501,cs),
(458,343,o),
(421,199,o),
(421,93,cs,{
name = hr05;
}),
(421,34,o),
(432,-7,o),
(485,-7,cs),
(502,-7,o),
(522,-3,o),
(547,7,c)
);
}
);
width = 982;
}
);
unicode = 109;
},
{
glyphname = n;
layers = (
{
layerId = master01;
shapes = (
{
closed = 1;
nodes = (
(167,-7,o),
(187,-3,o),
(212,7,c),
(204,19,o),
(195,54,o),
(195,95,cs),
(195,229,o),
(338,574,o),
(432,574,cs),
(461,574,o),
(478,549,o),
(478,507,cs),
(478,438,o),
(445,315,o),
(445,187,cs,{
name = hr01;
}),
(445,63,o),
(473,-7,o),
(528,-7,cs),
(550,-7,o),
(574,4,o),
(598,29,c),
(562,70,o),
(554,162,o),
(554,220,cs),
(554,318,o),
(577,408,o),
(577,507,cs,{
name = hr02;
}),
(577,621,o),
(537,680,o),
(460,680,cs),
(364,680,o),
(277,491,o),
(209,330,c),
(223,408,o),
(238,500,o),
(238,568,cs),
(238,647,o),
(214,673,o),
(169,673,cs,{
name = hr03;
}),
(150,673,o),
(117,664,o),
(103,650,c),
(123,611,o),
(124,564,o),
(124,516,cs),
(124,357,o),
(86,199,o),
(86,93,cs,{
name = hr04;
}),
(86,34,o),
(97,-7,o),
(150,-7,c)
);
}
);
width = 667;
}
);
unicode = 110;
},
{
glyphname = ntilde;
layers = (
{
layerId = master01;
shapes = (
{
closed = 1;
nodes = (
(223,408,o),
(238,500,o),
(238,568,cs),
(238,647,o),
(214,673,o),
(169,673,cs),
(150,673,o),
(117,664,o),
(103,650,c),
(123,611,o),
(124,564,o),
(124,516,cs),
(124,357,o),
(86,199,o),
(86,93,cs),
(86,34,o),
(97,-7,o),
(150,-7,cs),
(167,-7,o),
(187,-3,o),
(212,7,c),
(204,19,o),
(195,54,o),
(195,95,cs),
(195,229,o),
(338,574,o),
(424,574,cs),
(466,574,o),
(478,549,o),
(478,501,cs),
(478,438,o),
(445,315,o),
(445,187,cs),
(445,63,o),
(473,-7,o),
(528,-7,cs),
(550,-7,o),
(574,4,o),
(598,29,c),
(562,70,o),
(554,162,o),
(554,220,cs),
(554,318,o),
(577,408,o),
(577,507,cs),
(577,591,o),
(557,680,o),
(460,680,cs),
(364,680,o),
(277,491,o),
(209,330,c)
);
},
{
closed = 1;
nodes = (
(492,856,o),
(470,836,o),
(448,836,cs),
(399,836,o),
(381,902,o),
(305,902,cs),
(249,902,o),
(206,842,o),
(206,787,cs),
(206,760,o),
(228,755,o),
(250,755,c),
(257,802,o),
(279,822,o),
(301,822,cs),
(350,822,o),
(368,756,o),
(444,756,cs),
(500,756,o),
(543,816,o),
(543,871,cs),
(543,898,o),
(521,903,o),
(499,903,c)
);
},
{
ref = n;
},
{
pos = (71,0);
ref = tilde;
}
);
width = 667;
}
);
unicode = 241;
},
{
glyphname = eng;
layers = (
{
layerId = master01;
shapes = (
{
closed = 1;
nodes = (
(577,621,o),
(537,680,o),
(460,680,cs),
(364,680,o),
(277,491,o),
(209,330,c),
(223,408,o),
(238,500,o),
(238,568,cs),
(238,647,o),
(214,673,o),
(169,673,cs),
(150,673,o),
(117,664,o),
(103,650,c),
(123,611,o),
(124,564,o),
(124,516,cs),
(124,357,o),
(86,199,o),
(86,93,cs),
(86,34,o),
(97,-7,o),
(150,-7,cs),
(167,-7,o),
(187,-3,o),
(212,7,c),
(204,19,o),
(195,54,o),
(195,95,cs),
(195,229,o),
(338,574,o),
(432,574,cs),
(461,574,o),
(478,549,o),
(478,507,cs),
(477,180,o),
(458,-192,o),
(274,-192,cs),
(228,-192,o),
(192,-170,o),
(170,-115,c),
(154,-126,o),
(134,-149,o),
(134,-189,cs),
(134,-241,o),
(187,-275,o),
(251,-275,cs),
(348,-275,o),
(459,-208,o),
(515,-23,cs),
(557,116,o),
(577,327,o),
(577,507,cs)
);
}
);
width = 666;
}
);
unicode = 331;
},
{
glyphname = o;
layers = (
{
layerId = master01;
shapes = (
{
closed = 1;
nodes = (
(440,609,o),
(502,529,o),
(502,373,cs),
(502,283,o),
(471,57,o),
(335,57,cs),
(237,57,o),
(176,138,o),
(176,294,cs),
(176,385,o),
(208,609,o),
(341,609,cs,{
name = hr00;
})
);
},
{
closed = 1;
nodes = (
(488,-17,o),
(610,216,o),
(610,408,cs),
(610,561,o),
(537,684,o),
(393,684,cs),
(190,684,o),
(68,451,o),
(68,259,cs),
(68,106,o),
(142,-17,o),
(286,-17,cs)
);
}
);
width = 678;
}
);
unicode = 111;
},
{
glyphname = oacute;
layers = (
{
layerId = master01;
shapes = (
{
closed = 1;
nodes = (
(440,609,o),
(502,529,o),
(502,373,cs),
(502,283,o),
(471,57,o),
(335,57,cs),
(237,57,o),
(176,138,o),
(176,294,cs),
(176,385,o),
(208,609,o),
(341,609,cs)
);
},
{
closed = 1;
nodes = (
(488,-17,o),
(610,216,o),
(610,408,cs),
(610,561,o),
(537,684,o),
(393,684,cs),
(190,684,o),
(68,451,o),
(68,259,cs),
(68,106,o),
(142,-17,o),
(286,-17,cs)
);
},
{
closed = 1;
nodes = (
(544,871,o),
(550,877,o),
(550,890,cs),
(550,902,o),
(537,918,o),
(493,918,cs),
(480,918,o),
(465,917,o),
(446,913,c),
(429,882,o),
(395,850,o),
(286,768,c),
(295,750,o),
(305,740,o),
(313,740,cs),
(333,740,o),
(441,798,o),
(513,849,cs)
);
},
{
ref = o;
},
{
pos = (169,0);
ref = acute;
}
);
width = 678;
}
);
unicode = 243;
},
{
glyphname = ocircumflex;
layers = (
{
layerId = master01;
shapes = (
{
closed = 1;
nodes = (
(440,609,o),
(502,529,o),
(502,373,cs),
(502,283,o),
(471,57,o),
(335,57,cs),
(237,57,o),
(176,138,o),
(176,294,cs),
(176,385,o),
(208,609,o),
(341,609,cs)
);
},
{
closed = 1;
nodes = (
(488,-17,o),
(610,216,o),
(610,408,cs),
(610,561,o),
(537,684,o),
(393,684,cs),
(190,684,o),
(68,451,o),
(68,259,cs),
(68,106,o),
(142,-17,o),
(286,-17,cs)
);
},
{
closed = 1;
nodes = (
(555,740,o),
(565,750,o),
(574,768,c),
(511,830,o),
(474,894,o),
(465,907,c),
(454,915,o),
(434,918,o),
(414,918,cs),
(397,918,o),
(381,916,o),
(371,913,c),
(354,882,o),
(334,850,o),
(225,768,c),
(235,750,o),
(245,740,o),
(252,740,cs),
(269,740,o),
(346,786,o),
(411,831,c),
(481,775,o),
(528,740,o),
(547,740,cs)
);
},
{
ref = o;
},
{
pos = (65,0);
ref = circumflex;
}
);
width = 678;
}
);
unicode = 244;
},
{
glyphname = odieresis;
layers = (
{
layerId = master01;
shapes = (
{
closed = 1;
nodes = (
(440,609,o),
(502,529,o),
(502,373,cs),
(502,283,o),
(471,57,o),
(335,57,cs),
(237,57,o),
(176,138,o),
(176,294,cs),
(176,385,o),
(208,609,o),
(341,609,cs)
);
},
{
closed = 1;
nodes = (
(488,-17,o),
(610,216,o),
(610,408,cs),
(610,561,o),
(537,684,o),
(393,684,cs),
(190,684,o),
(68,451,o),
(68,259,cs),
(68,106,o),
(142,-17,o),
(286,-17,cs)
);
},
{
closed = 1;
nodes = (
(338,872,o),
(311,884,o),
(280,884,cs),
(258,884,o),
(235,876,o),
(211,861,c),
(206,837,o),
(204,818,o),
(204,804,cs),
(204,772,o),
(218,757,o),
(258,757,cs),
(279,757,o),
(303,765,o),
(327,780,c),
(334,806,o),
(338,826,o),
(338,841,cs)
);
},
{
closed = 1;
nodes = (
(572,872,o),
(545,884,o),
(514,884,cs),
(492,884,o),
(470,876,o),
(445,861,c),
(441,837,o),
(438,818,o),
(438,804,cs),
(438,772,o),
(452,757,o),
(492,757,cs),
(513,757,o),
(537,765,o),
(561,780,c),
(569,806,o),
(572,826,o),
(572,841,cs)
);
},
{
ref = o;
},
{
pos = (199,0);
ref = dieresis;
}
);
width = 678;
}
);
unicode = 246;
},
{
glyphname = oslash;
layers = (
{
layerId = master01;
shapes = (
{
closed = 1;
nodes = (
(494,-5,o),
(610,221,o),
(610,408,cs),
(610,535,o),
(559,641,o),
(460,673,c),
(476,715,o),
(498,755,o),
(541,778,c),
(540,809,o),
(509,817,o),
(493,817,cs),
(454,817,o),
(415,785,o),
(379,683,c),
(184,673,o),
(68,446,o),
(68,259,cs),
(68,133,o),
(118,28,o),
(215,-5,c),
(189,-56,o),
(187,-79,o),
(147,-126,c),
(166,-146,o),
(188,-150,o),
(203,-150,cs),
(236,-150,o),
(264,-125,o),
(301,-16,c,{
name = hr00;
})
);
},
{
closed = 1;
nodes = (
(502,283,o),
(471,57,o),
(319,57,c),
(350,200,o),
(385,416,o),
(430,580,c),
(476,544,o),
(502,474,o),
(502,373,cs)
);
},
{
closed = 1;
nodes = (
(346,609,o),
(352,608,o),
(357,608,c),
(324,473,o),
(287,253,o),
(243,89,c),
(200,126,o),
(176,195,o),
(176,294,cs),
(176,385,o),
(208,609,o),
(341,609,cs)
);
}
);
width = 678;
}
);
unicode = 248;
},
{
glyphname = otilde;
layers = (
{
layerId = master01;
shapes = (
{
closed = 1;
nodes = (
(440,609,o),
(502,529,o),
(502,373,cs),
(502,283,o),
(471,57,o),
(335,57,cs),
(237,57,o),
(176,138,o),
(176,294,cs),
(176,385,o),
(208,609,o),
(341,609,cs)
);
},
{
closed = 1;
nodes = (
(488,-17,o),
(610,216,o),
(610,408,cs),
(610,561,o),
(537,684,o),
(393,684,cs),
(190,684,o),
(68,451,o),
(68,259,cs),
(68,106,o),
(142,-17,o),
(286,-17,cs)
);
},
{
closed = 1;
nodes = (
(518,856,o),
(496,836,o),
(474,836,cs),
(425,836,o),
(407,902,o),
(331,902,cs),
(275,902,o),
(232,842,o),
(232,787,cs),
(232,760,o),
(254,755,o),
(276,755,c),
(283,802,o),
(305,822,o),
(327,822,cs),
(376,822,o),
(394,756,o),
(470,756,cs),
(526,756,o),
(569,816,o),
(569,871,cs),
(569,898,o),
(547,903,o),
(525,903,c)
);
},
{
ref = o;
},
{
pos = (97,0);
ref = tilde;
}
);
width = 678;
}
);
unicode = 245;
},
{
glyphname = oe;
layers = (
{
layerId = master01;
shapes = (
{
closed = 1;
nodes = (
(859,281,o),
(978,431,o),
(978,548,cs),
(978,623,o),
(929,684,o),
(822,684,cs),
(722,684,o),
(642,627,o),
(586,547,c),
(554,629,o),
(489,684,o),
(393,684,cs),
(190,684,o),
(68,451,o),
(68,259,cs),
(68,106,o),
(142,-17,o),
(286,-17,cs),
(386,-17,o),
(466,40,o),
(522,120,c),
(556,38,o),
(627,-17,o),
(741,-17,cs),
(818,-17,o),
(934,20,o),
(934,102,cs),
(934,120,o),
(926,143,o),
(910,158,c),
(878,89,o),
(827,57,o),
(760,57,cs),
(663,57,o),
(607,135,o),
(605,284,c),
(623,282,o),
(641,281,o),
(659,281,cs,{
name = hr00;
})
);
},
{
closed = 1;
nodes = (
(440,609,o),
(502,529,o),
(502,373,cs),
(502,283,o),
(471,57,o),
(335,57,cs),
(237,57,o),
(176,138,o),
(176,294,cs),
(176,385,o),
(208,609,o),
(341,609,cs)
);
},
{
closed = 1;
nodes = (
(841,609,o),
(873,567,o),
(873,515,cs),
(873,436,o),
(797,345,o),
(652,345,cs),
(638,345,o),
(623,346,o),
(607,348,c),
(617,452,o),
(656,609,o),
(775,609,cs)
);
}
);
width = 1012;
}
);
unicode = 339;
},
{
glyphname = p;
layers = (
{
layerId = master01;
shapes = (
{
closed = 1;
nodes = (
(125,240,o),
(72,4,o),
(72,-118,cs,{
name = hr01;
}),
(72,-235,o),
(108,-271,o),
(157,-271,cs),
(174,-271,o),
(201,-264,o),
(225,-235,c),
(182,-191,o),
(178,-125,o),
(178,-61,cs),
(178,-26,o),
(180,7,o),
(183,41,c),
(222,9,o),
(295,-14,o),
(351,-14,cs),
(537,-14,o),
(621,205,o),
(621,398,cs),
(621,601,o),
(542,684,o),
(459,684,cs),
(386,684,o),
(297,552,o),
(210,330,c),
(231,444,o),
(239,492,o),
(239,568,cs,{
name = hr02;
}),
(239,647,o),
(215,673,o),
(170,673,cs),
(151,673,o),
(118,664,o),
(104,650,c),
(124,611,o),
(125,564,o),
(125,516,cs)
);
},
{
closed = 1;
nodes = (
(492,578,o),
(517,479,o),
(517,367,cs),
(517,193,o),
(455,54,o),
(343,54,cs),
(287,54,o),
(235,65,o),
(190,91,c),
(231,358,o),
(368,578,o),
(432,578,cs,{
name = hr03;
})
);
}
);
width = 689;
}
);
unicode = 112;
},
{
glyphname = thorn;
layers = (
{
layerId = master01;
shapes = (
{
closed = 1;
nodes = (
(188,504,o),
(98,212,o),
(98,-118,cs,{
name = hr01;
}),
(98,-235,o),
(134,-271,o),
(184,-271,cs),
(200,-271,o),
(228,-264,o),
(251,-235,c),
(208,-191,o),
(204,-125,o),
(204,-61,cs),
(204,-26,o),
(206,7,o),
(209,41,c),
(248,9,o),
(321,-14,o),
(377,-14,cs),
(563,-14,o),
(647,205,o),
(647,398,cs),
(647,601,o),
(568,684,o),
(486,684,cs),
(412,684,o),
(324,552,o),
(236,330,c),
(255,458,o),
(303,756,o),
(303,832,cs,{
name = hr02;
}),
(303,911,o),
(279,937,o),
(234,937,cs),
(215,937,o),
(182,928,o),
(167,915,c),
(187,875,o),
(188,828,o),
(188,780,cs)
);
},
{
closed = 1;
nodes = (
(519,578,o),
(543,479,o),
(543,367,cs),
(543,193,o),
(481,54,o),
(369,54,cs),
(313,54,o),
(261,65,o),
(216,91,c),
(257,358,o),
(395,578,o),
(458,578,cs)
);
}
);
width = 715;
}
);
unicode = 254;
},
{
glyphname = q;
layers = (
{
layerId = master01;
shapes = (
{
closed = 1;
nodes = (
(445,140,o),
(404,-79,o),
(404,-169,cs),
(404,-248,o),
(428,-274,o),
(473,-274,cs),
(492,-274,o),
(525,-265,o),
(540,-251,c),
(520,-212,o),
(519,-165,o),
(519,-117,cs),
(519,100,o),
(583,549,o),
(611,645,c),
(595,663,o),
(580,674,o),
(557,674,cs),
(529,674,o),
(513,661,o),
(502,617,c),
(470,655,o),
(423,684,o),
(361,684,cs,{
name = hr01;
}),
(163,684,o),
(68,437,o),
(68,237,cs),
(68,59,o),
(136,-14,o),
(215,-14,cs),
(289,-14,o),
(397,126,o),
(467,323,c)
);
},
{
closed = 1;
nodes = (
(473,375,o),
(323,92,o),
(249,92,cs),
(196,92,o),
(173,168,o),
(173,262,cs),
(173,454,o),
(244,615,o),
(365,615,cs),
(403,615,o),
(446,599,o),
(494,563,c)
);
}
);
width = 663;
}
);
unicode = 113;
},
{
glyphname = r;
layers = (
{
layerId = master01;
shapes = (
{
closed = 1;
nodes = (
(212,65,o),
(207,114,o),
(207,174,cs),
(207,285,o),
(335,563,o),
(473,563,cs),
(482,563,o),
(491,562,o),
(501,560,c),
(504,573,o),
(507,594,o),
(507,610,cs),
(507,637,o),
(495,684,o),
(457,684,cs),
(403,684,o),
(300,573,o),
(224,371,c),
(237,468,o),
(253,558,o),
(253,597,cs,{
name = hr01;
}),
(253,653,o),
(221,673,o),
(186,673,cs),
(167,673,o),
(134,664,o),
(119,650,c),
(139,612,o),
(140,563,o),
(140,521,cs),
(140,371,o),
(98,243,o),
(98,125,cs,{
name = hr02;
}),
(98,24,o),
(129,-7,o),
(176,-7,cs),
(192,-7,o),
(220,0,o),
(245,29,c)
);
}
);
width = 482;
}
);
unicode = 114;
},
{
glyphname = s;
layers = (
{
layerId = master01;
shapes = (
{
closed = 1;
nodes = (
(357,614,o),
(396,568,o),
(419,511,c),
(438,526,o),
(465,556,o),
(465,591,cs),
(465,662,o),
(409,684,o),
(330,684,cs),
(187,684,o),
(98,619,o),
(98,503,cs),
(98,428,o),
(131,381,o),
(181,342,cs),
(295,251,o),
(356,215,o),
(356,139,cs),
(356,85,o),
(306,52,o),
(248,52,cs),
(186,52,o),
(115,92,o),
(90,195,c),
(64,169,o),
(42,143,o),
(42,106,cs),
(42,25,o),
(129,-13,o),
(229,-13,cs),
(374,-13,o),
(452,65,o),
(452,179,cs),
(452,245,o),
(422,292,o),
(372,333,cs),
(228,451,o),
(191,474,o),
(191,538,cs),
(191,581,o),
(226,614,o),
(283,614,cs,{
name = hr00;
})
);
}
);
width = 516;
}
);
unicode = 115;
},
{
glyphname = scaron;
layers = (
{
layerId = master01;
shapes = (
{
closed = 1;
nodes = (
(158,918,o),
(148,908,o),
(138,890,c),
(201,828,o),
(238,764,o),
(248,751,c),
(259,743,o),
(279,740,o),
(299,740,cs),
(315,740,o),
(332,742,o),
(342,745,c),
(359,776,o),
(378,808,o),
(487,890,c),
(478,908,o),
(468,918,o),
(460,918,cs),
(443,918,o),
(367,872,o),
(301,828,c),
(232,883,o),
(185,918,o),
(165,918,cs)
);
},
{
ref = s;
},
{
pos = (-22,0);
ref = caron;
}
);
width = 516;
}
);
unicode = 353;
},
{
glyphname = germandbls;
layers = (
{
layerId = master01;
shapes = (
{
closed = 1;
nodes = (
(69,539,o),
(113,545,o),
(152,546,c),
(125,345,o),
(83,23,o),
(83,-91,cs),
(83,-191,o),
(114,-223,o),
(161,-223,cs),
(178,-223,o),
(206,-216,o),
(230,-187,c),
(198,-151,o),
(192,-102,o),
(192,-50,cs),
(192,-19,o),
(193,17,o),
(195,56,c),
(223,15,o),
(277,-16,o),
(355,-16,cs),
(561,-16,o),
(654,147,o),
(654,280,cs),
(654,415,o),
(588,496,o),
(463,526,c),
(585,584,o),
(653,697,o),
(653,794,cs),
(653,888,o),
(590,967,o),
(452,967,cs),
(287,967,o),
(198,803,o),
(164,630,c),
(45,630,o),
(39,589,o),
(39,520,c)
);
},
{
closed = 1;
nodes = (
(515,893,o),
(549,841,o),
(549,778,cs),
(549,687,o),
(478,568,o),
(349,556,cs),
(312,553,o),
(306,549,o),
(306,510,cs),
(306,505,o),
(306,495,o),
(307,488,c),
(325,489,o),
(343,491,o),
(361,494,c),
(488,479,o),
(536,378,o),
(536,263,cs,{
name = hr01;
}),
(536,166,o),
(474,58,o),
(363,58,cs),
(284,58,o),
(253,113,o),
(253,189,c),
(232,187,o),
(217,182,o),
(205,176,c),
(222,347,o),
(248,534,o),
(260,616,cs),
(285,796,o),
(325,893,o),
(440,893,cs)
);
}
);
width = 688;
}
);
unicode = 223;
},
{
glyphname = t;
layers = (
{
layerId = master01;
shapes = (
{
closed = 1;
nodes = (
(225,252,o),
(250,419,o),
(271,548,c),
(393,551,o),
(437,569,o),
(448,659,c),
(416,637,o),
(358,631,o),
(285,630,c),
(292,675,o),
(297,710,o),
(297,729,cs,{
name = hr01;
}),
(297,808,o),
(272,834,o),
(228,834,cs),
(208,834,o),
(175,824,o),
(161,811,c),
(181,771,o),
(182,725,o),
(182,676,cs),
(182,658,o),
(180,644,o),
(180,630,c),
(45,630,o),
(39,589,o),
(39,520,c),
(74,542,o),
(130,547,o),
(171,547,c),
(153,402,o),
(119,209,o),
(119,120,cs,{
name = hr02;
}),
(119,20,o),
(180,-15,o),
(244,-15,cs),
(340,-15,o),
(389,36,o),
(389,83,cs),
(389,99,o),
(383,115,o),
(371,130,c),
(350,89,o),
(309,58,o),
(276,58,cs),
(249,58,o),
(225,76,o),
(225,123,cs)
);
}
);
width = 409;
}
);
unicode = 116;
},
{
glyphname = u;
layers = (
{
layerId = master01;
shapes = (
{
closed = 1;
nodes = (
(90,68,o),
(112,-16,o),
(209,-16,cs),
(306,-16,o),
(393,173,o),
(462,335,c),
(458,298,o),
(450,250,o),
(450,204,cs),
(450,71,o),
(478,-7,o),
(536,-7,cs,{
name = hr01;
}),
(559,-7,o),
(583,4,o),
(604,30,c),
(566,92,o),
(557,162,o),
(557,269,cs),
(557,362,o),
(595,491,o),
(595,597,cs,{
name = hr02;
}),
(595,653,o),
(562,673,o),
(527,673,cs),
(508,673,o),
(476,664,o),
(460,650,c),
(470,627,o),
(475,600,o),
(475,569,cs),
(475,435,o),
(326,80,o),
(241,80,cs),
(206,80,o),
(193,112,o),
(193,158,cs),
(193,300,o),
(240,529,o),
(240,597,cs,{
name = hr03;
}),
(240,653,o),
(208,673,o),
(173,673,cs),
(153,673,o),
(121,664,o),
(106,650,c),
(126,612,o),
(127,563,o),
(127,521,cs),
(127,371,o),
(90,271,o),
(90,153,cs)
);
}
);
width = 677;
}
);
unicode = 117;
},
{
glyphname = uacute;
layers = (
{
layerId = master01;
shapes = (
{
closed = 1;
nodes = (
(90,68,o),
(112,-16,o),
(209,-16,cs),
(306,-16,o),
(393,173,o),
(462,335,c),
(458,298,o),
(450,250,o),
(450,204,cs),
(450,71,o),
(478,-7,o),
(536,-7,cs),
(559,-7,o),
(583,4,o),
(604,30,c),
(566,92,o),
(557,162,o),
(557,269,cs),
(557,362,o),
(595,491,o),
(595,597,cs),
(595,653,o),
(562,673,o),
(527,673,cs),
(508,673,o),
(476,664,o),
(460,650,c),
(470,627,o),
(475,600,o),
(475,569,cs),
(475,435,o),
(326,80,o),
(241,80,cs),
(206,80,o),
(193,112,o),
(193,158,cs),
(193,300,o),
(240,529,o),
(240,597,cs),
(240,653,o),
(208,673,o),
(173,673,cs),
(153,673,o),
(121,664,o),
(106,650,c),
(126,612,o),
(127,563,o),
(127,521,cs),
(127,371,o),
(90,271,o),
(90,153,cs)
);
},
{
closed = 1;
nodes = (
(516,871,o),
(522,877,o),
(522,890,cs),
(522,902,o),
(509,918,o),
(465,918,cs),
(452,918,o),
(437,917,o),
(418,913,c),
(401,882,o),
(367,850,o),
(258,768,c),
(267,750,o),
(277,740,o),
(285,740,cs),
(305,740,o),
(413,798,o),
(485,849,cs)
);
},
{
ref = u;
},
{
pos = (141,0);
ref = acute;
}
);
width = 677;
}
);
unicode = 250;
},
{
glyphname = ucircumflex;
layers = (
{
layerId = master01;
shapes = (
{
closed = 1;
nodes = (
(90,68,o),
(112,-16,o),
(209,-16,cs),
(306,-16,o),
(393,173,o),
(462,335,c),
(458,298,o),
(450,250,o),
(450,204,cs),
(450,71,o),
(478,-7,o),
(536,-7,cs),
(559,-7,o),
(583,4,o),
(604,30,c),
(566,92,o),
(557,162,o),
(557,269,cs),
(557,362,o),
(595,491,o),
(595,597,cs),
(595,653,o),
(562,673,o),
(527,673,cs),
(508,673,o),
(476,664,o),
(460,650,c),
(470,627,o),
(475,600,o),
(475,569,cs),
(475,435,o),
(326,80,o),
(241,80,cs),
(206,80,o),
(193,112,o),
(193,158,cs),
(193,300,o),
(240,529,o),
(240,597,cs),
(240,653,o),
(208,673,o),
(173,673,cs),
(153,673,o),
(121,664,o),
(106,650,c),
(126,612,o),
(127,563,o),
(127,521,cs),
(127,371,o),
(90,271,o),
(90,153,cs)
);
},
{
closed = 1;
nodes = (
(521,740,o),
(531,750,o),
(540,768,c),
(477,830,o),
(440,894,o),
(431,907,c),
(420,915,o),
(400,918,o),
(380,918,cs),
(363,918,o),
(347,916,o),
(337,913,c),
(320,882,o),
(300,850,o),
(191,768,c),
(201,750,o),
(211,740,o),
(218,740,cs),
(235,740,o),
(312,786,o),
(377,831,c),
(447,775,o),
(494,740,o),
(513,740,cs)
);
},
{
ref = u;
},
{
pos = (31,0);
ref = circumflex;
}
);
width = 677;
}
);
unicode = 251;
},
{
glyphname = udieresis;
layers = (
{
layerId = master01;
shapes = (
{
closed = 1;
nodes = (
(90,68,o),
(112,-16,o),
(209,-16,cs),
(306,-16,o),
(393,173,o),
(462,335,c),
(458,298,o),
(450,250,o),
(450,204,cs),
(450,71,o),
(478,-7,o),
(536,-7,cs),
(559,-7,o),
(583,4,o),
(604,30,c),
(566,92,o),
(557,162,o),
(557,269,cs),
(557,362,o),
(595,491,o),
(595,597,cs),
(595,653,o),
(562,673,o),
(527,673,cs),
(508,673,o),
(476,664,o),
(460,650,c),
(470,627,o),
(475,600,o),
(475,569,cs),
(475,435,o),
(326,80,o),
(241,80,cs),
(206,80,o),
(193,112,o),
(193,158,cs),
(193,300,o),
(240,529,o),
(240,597,cs),
(240,653,o),
(208,673,o),
(173,673,cs),
(153,673,o),
(121,664,o),
(106,650,c),
(126,612,o),
(127,563,o),
(127,521,cs),
(127,371,o),
(90,271,o),
(90,153,cs)
);
},
{
closed = 1;
nodes = (
(337,872,o),
(310,884,o),
(279,884,cs),
(257,884,o),
(234,876,o),
(210,861,c),
(205,837,o),
(203,818,o),
(203,804,cs),
(203,772,o),
(217,757,o),
(257,757,cs),
(278,757,o),
(302,765,o),
(326,780,c),
(333,806,o),
(337,826,o),
(337,841,cs)
);
},
{
closed = 1;
nodes = (
(571,872,o),
(544,884,o),
(513,884,cs),
(491,884,o),
(469,876,o),
(444,861,c),
(440,837,o),
(437,818,o),
(437,804,cs),
(437,772,o),
(451,757,o),
(491,757,cs),
(512,757,o),
(536,765,o),
(560,780,c),
(568,806,o),
(571,826,o),
(571,841,cs)
);
},
{
ref = u;
},
{
pos = (198,0);
ref = dieresis;
}
);
width = 677;
}
);
unicode = 252;
},
{
glyphname = ugrave;
layers = (
{
layerId = master01;
shapes = (
{
closed = 1;
nodes = (
(90,68,o),
(112,-16,o),
(209,-16,cs),
(306,-16,o),
(393,173,o),
(462,335,c),
(458,298,o),
(450,250,o),
(450,204,cs),
(450,71,o),
(478,-7,o),
(536,-7,cs),
(559,-7,o),
(583,4,o),
(604,30,c),
(566,92,o),
(557,162,o),
(557,269,cs),
(557,362,o),
(595,491,o),
(595,597,cs),
(595,653,o),
(562,673,o),
(527,673,cs),
(508,673,o),
(476,664,o),
(460,650,c),
(470,627,o),
(475,600,o),
(475,569,cs),
(475,435,o),
(326,80,o),
(241,80,cs),
(206,80,o),
(193,112,o),
(193,158,cs),
(193,300,o),
(240,529,o),
(240,597,cs),
(240,653,o),
(208,673,o),
(173,673,cs),
(153,673,o),
(121,664,o),
(106,650,c),
(126,612,o),
(127,563,o),
(127,521,cs),
(127,371,o),
(90,271,o),
(90,153,cs)
);
},
{
closed = 1;
nodes = (
(318,798,o),
(427,740,o),
(447,740,cs),
(454,740,o),
(464,750,o),
(474,768,c),
(365,850,o),
(330,882,o),
(313,913,c),
(294,917,o),
(279,918,o),
(266,918,cs),
(222,918,o),
(209,902,o),
(209,890,cs),
(209,877,o),
(215,871,o),
(246,849,cs)
);
},
{
ref = u;
},
{
pos = (57,0);
ref = grave;
}
);
width = 677;
}
);
unicode = 249;
},
{
glyphname = v;
layers = (
{
layerId = master01;
shapes = (
{
closed = 1;
nodes = (
(421,482,o),
(372,276,o),
(302,110,c),
(263,276,o),
(206,514,o),
(186,567,cs),
(156,643,o),
(119,670,o),
(84,670,cs),
(60,670,o),
(19,655,o),
(2,604,c),
(83,602,o),
(164,270,o),
(220,33,cs),
(226,6,o),
(240,-10,o),
(271,-10,cs),
(287,-10,o),
(305,-6,o),
(327,2,c),
(327,7,o),
(326,11,o),
(326,15,cs),
(327,27,o),
(331,37,o),
(343,62,cs),
(440,255,o),
(527,550,o),
(527,616,cs),
(527,653,o),
(509,667,o),
(481,667,cs),
(464,667,o),
(428,659,o),
(410,630,c),
(418,616,o),
(421,600,o),
(421,582,cs,{
name = hr00;
})
);
}
);
width = 563;
}
);
unicode = 118;
},
{
glyphname = w;
layers = (
{
layerId = master01;
shapes = (
{
closed = 1;
nodes = (
(729,495,o),
(678,267,o),
(605,99,c),
(603,141,o),
(524,492,o),
(499,558,cs),
(486,590,o),
(459,604,o),
(434,604,cs),
(401,604,o),
(368,582,o),
(354,555,c),
(379,542,o),
(398,506,o),
(414,466,c),
(393,342,o),
(341,211,o),
(297,99,c),
(295,141,o),
(211,501,o),
(186,567,cs),
(156,643,o),
(119,670,o),
(84,670,cs),
(60,670,o),
(19,655,o),
(2,604,c),
(83,602,o),
(164,270,o),
(220,33,cs),
(226,6,o),
(240,-10,o),
(271,-10,cs),
(287,-10,o),
(305,-6,o),
(327,2,c),
(327,7,o),
(326,11,o),
(326,15,cs),
(327,27,o),
(331,37,o),
(343,62,cs),
(383,140,o),
(422,240,o),
(453,335,c),
(467,282,o),
(482,221,o),
(527,33,cs),
(534,6,o),
(547,-10,o),
(579,-10,cs),
(594,-10,o),
(612,-6,o),
(635,2,c),
(634,7,o),
(634,11,o),
(634,15,cs),
(634,27,o),
(638,37,o),
(651,62,cs),
(750,253,o),
(834,550,o),
(834,616,cs),
(834,653,o),
(816,667,o),
(789,667,cs),
(771,667,o),
(736,659,o),
(717,630,c),
(726,616,o),
(729,600,o),
(729,582,cs,{
name = hr00;
})
);
}
);
width = 871;
}
);
unicode = 119;
},
{
glyphname = x;
layers = (
{
layerId = master01;
shapes = (
{
closed = 1;
nodes = (
(232,484,o),
(191,593,o),
(183,670,c),
(120,649,o),
(93,635,o),
(93,589,cs),
(93,554,o),
(143,425,o),
(210,296,c),
(122,191,o),
(45,79,o),
(45,35,cs),
(45,-2,o),
(69,-9,o),
(97,-9,cs),
(114,-9,o),
(135,-1,o),
(155,18,c),
(150,26,o),
(147,36,o),
(147,48,cs),
(147,98,o),
(217,197,o),
(243,234,c),
(316,104,o),
(402,-10,o),
(464,-10,cs,{
name = hr01;
}),
(515,-10,o),
(533,18,o),
(540,51,c),
(478,72,o),
(390,187,o),
(316,320,c),
(418,436,o),
(517,571,o),
(517,622,cs),
(517,659,o),
(493,667,o),
(465,667,cs),
(448,667,o),
(427,659,o),
(407,640,c),
(412,631,o),
(415,621,o),
(415,609,cs),
(415,553,o),
(319,422,o),
(285,379,c)
);
}
);
width = 557;
}
);
unicode = 120;
},
{
glyphname = y;
layers = (
{
layerId = master01;
shapes = (
{
closed = 1;
nodes = (
(421,485,o),
(378,279,o),
(303,94,c),
(268,250,o),
(208,509,o),
(186,567,cs),
(156,643,o),
(119,670,o),
(84,670,cs),
(60,670,o),
(19,655,o),
(2,604,c),
(83,602,o),
(153,303,o),
(209,66,cs),
(216,39,o),
(229,22,o),
(271,22,c),
(215,-93,o),
(145,-170,o),
(68,-170,cs),
(0,-170,o),
(-34,-138,o),
(-51,-81,c),
(-63,-95,o),
(-83,-121,o),
(-83,-161,cs),
(-83,-238,o),
(-9,-254,o),
(55,-254,cs),
(354,-254,o),
(527,544,o),
(527,616,cs),
(527,653,o),
(509,667,o),
(481,667,cs),
(464,667,o),
(428,659,o),
(410,630,c),
(418,616,o),
(421,600,o),
(421,582,cs,{
name = hr00;
})
);
}
);
width = 563;
}
);
unicode = 121;
},
{
glyphname = yacute;
layers = (
{
layerId = master01;
shapes = (
{
closed = 1;
nodes = (
(488,871,o),
(494,877,o),
(494,890,cs),
(494,902,o),
(481,918,o),
(437,918,cs),
(424,918,o),
(409,917,o),
(390,913,c),
(373,882,o),
(339,850,o),
(230,768,c),
(239,750,o),
(249,740,o),
(257,740,cs),
(277,740,o),
(385,798,o),
(457,849,cs)
);
},
{
ref = y;
},
{
pos = (113,0);
ref = acute;
}
);
width = 563;
}
);
unicode = 253;
},
{
glyphname = ydieresis;
layers = (
{
layerId = master01;
shapes = (
{
closed = 1;
nodes = (
(421,485,o),
(378,279,o),
(303,94,c),
(268,250,o),
(208,509,o),
(186,567,cs),
(156,643,o),
(119,670,o),
(84,670,cs),
(60,670,o),
(19,655,o),
(2,604,c),
(83,602,o),
(153,303,o),
(209,66,cs),
(216,39,o),
(229,22,o),
(271,22,c),
(215,-93,o),
(145,-170,o),
(68,-170,cs),
(0,-170,o),
(-34,-138,o),
(-51,-81,c),
(-63,-95,o),
(-83,-121,o),
(-83,-161,cs),
(-83,-238,o),
(-9,-254,o),
(55,-254,cs),
(354,-254,o),
(527,544,o),
(527,616,cs),
(527,653,o),
(509,667,o),
(481,667,cs),
(464,667,o),
(428,659,o),
(410,630,c),
(418,616,o),
(421,600,o),
(421,582,cs)
);
},
{
closed = 1;
nodes = (
(273,872,o),
(246,884,o),
(215,884,cs),
(193,884,o),
(170,876,o),
(146,861,c),
(141,837,o),
(139,818,o),
(139,804,cs),
(139,772,o),
(153,757,o),
(193,757,cs),
(214,757,o),
(238,765,o),
(262,780,c),
(269,806,o),
(273,826,o),
(273,841,cs)
);
},
{
closed = 1;
nodes = (
(507,872,o),
(480,884,o),
(449,884,cs),
(427,884,o),
(405,876,o),
(380,861,c),
(376,837,o),
(373,818,o),
(373,804,cs),
(373,772,o),
(387,757,o),
(427,757,cs),
(448,757,o),
(472,765,o),
(496,780,c),
(504,806,o),
(507,826,o),
(507,841,cs)
);
},
{
ref = y;
},
{
pos = (134,0);
ref = dieresis;
}
);
width = 563;
}
);
unicode = 255;
},
{
glyphname = z;
layers = (
{
layerId = master01;
shapes = (
{
closed = 1;
nodes = (
(27,-4,o),
(42,-16,o),
(63,-16,cs),
(80,-16,o),
(105,-8,o),
(119,9,c),
(160,16,o),
(205,19,o),
(258,19,cs),
(375,19,o),
(422,3,o),
(476,-18,c,{
name = hr01;
}),
(477,-7,o),
(477,3,o),
(477,13,cs),
(477,97,o),
(426,105,o),
(345,105,cs),
(311,105,o),
(239,100,o),
(157,81,c),
(268,297,o),
(436,601,o),
(519,606,c),
(514,672,o),
(465,673,o),
(448,673,cs),
(422,673,o),
(400,666,o),
(371,632,c),
(352,630,o),
(331,630,o),
(306,630,cs,{
name = hr02;
}),
(211,630,o),
(142,657,o),
(100,680,c),
(81,649,o),
(80,638,o),
(80,614,cs),
(80,573,o),
(119,548,o),
(208,548,cs),
(221,548,o),
(268,551,o),
(322,558,c),
(247,434,o),
(72,121,o),
(18,13,c)
);
}
);
width = 523;
}
);
unicode = 122;
},
{
glyphname = zcaron;
layers = (
{
layerId = master01;
shapes = (
{
closed = 1;
nodes = (
(27,-4,o),
(42,-16,o),
(63,-16,cs),
(80,-16,o),
(105,-8,o),
(119,9,c),
(160,16,o),
(205,19,o),
(258,19,cs),
(375,19,o),
(422,3,o),
(476,-18,c),
(477,-7,o),
(477,3,o),
(477,13,cs),
(477,97,o),
(426,105,o),
(345,105,cs),
(311,105,o),
(239,100,o),
(157,81,c),
(268,297,o),
(436,601,o),
(519,606,c),
(514,672,o),
(465,673,o),
(448,673,cs),
(422,673,o),
(400,666,o),
(371,632,c),
(352,630,o),
(331,630,o),
(306,630,cs),
(211,630,o),
(142,657,o),
(100,680,c),
(81,649,o),
(80,638,o),
(80,614,cs),
(80,573,o),
(119,548,o),
(208,548,cs),
(221,548,o),
(268,551,o),
(322,558,c),
(247,434,o),
(72,121,o),
(18,13,c)
);
},
{
closed = 1;
nodes = (
(162,918,o),
(152,908,o),
(142,890,c),
(205,828,o),
(242,764,o),
(252,751,c),
(263,743,o),
(283,740,o),
(303,740,cs),
(319,740,o),
(336,742,o),
(346,745,c),
(363,776,o),
(382,808,o),
(491,890,c),
(482,908,o),
(472,918,o),
(464,918,cs),
(447,918,o),
(371,872,o),
(305,828,c),
(236,883,o),
(189,918,o),
(169,918,cs)
);
},
{
ref = z;
},
{
pos = (-18,0);
ref = caron;
}
);
width = 523;
}
);
unicode = 382;
},
{
glyphname = f.alt;
layers = (
{
layerId = master01;
shapes = (
{
closed = 1;
nodes = (
(47,630,o),
(39,589,o),
(39,520,c),
(69,539,o),
(114,545,o),
(152,546,c),
(125,340,o),
(83,18,o),
(83,-91,cs),
(83,-191,o),
(114,-223,o),
(161,-223,cs),
(178,-223,o),
(206,-216,o),
(230,-187,c),
(198,-151,o),
(192,-102,o),
(192,-50,cs),
(192,105,o),
(228,388,o),
(250,547,c),
(386,549,o),
(412,564,o),
(423,659,c),
(387,641,o),
(341,632,o),
(308,632,cs),
(220,632,o),
(172,709,o),
(172,780,cs,{
name = hr01;
}),
(172,839,o),
(206,893,o),
(278,893,cs),
(338,893,o),
(379,852,o),
(395,784,c),
(425,805,o),
(441,833,o),
(441,867,cs),
(441,925,o),
(384,967,o),
(290,967,cs),
(158,967,o),
(78,883,o),
(78,785,cs),
(78,734,o),
(100,678,o),
(149,630,c)
);
}
);
width = 363;
}
);
},
{
glyphname = f_f;
layers = (
{
layerId = master01;
shapes = (
{
closed = 1;
nodes = (
(490,358,o),
(447,25,o),
(447,-91,cs),
(447,-191,o),
(478,-223,o),
(524,-223,cs),
(541,-223,o),
(569,-216,o),
(594,-187,c),
(561,-151,o),
(555,-102,o),
(555,-50,cs),
(555,112,o),
(592,405,o),
(614,558,c),
(760,561,o),
(777,577,o),
(787,659,c),
(752,635,o),
(706,630,o),
(625,630,c),
(657,826,o),
(712,893,o),
(788,893,cs),
(848,893,o),
(881,862,o),
(897,794,c),
(927,815,o),
(943,843,o),
(943,877,cs),
(943,935,o),
(896,967,o),
(802,967,cs),
(730,967,o),
(669,925,o),
(623,860,c),
(600,911,o),
(540,942,o),
(471,942,cs,{
name = hr01;
}),
(355,942,o),
(213,856,o),
(165,630,c),
(45,630,o),
(39,589,o),
(39,520,c),
(67,536,o),
(104,545,o),
(152,551,c),
(125,350,o),
(83,23,o),
(83,-91,cs),
(83,-191,o),
(114,-223,o),
(161,-223,cs),
(178,-223,o),
(206,-216,o),
(230,-187,c),
(198,-151,o),
(192,-102,o),
(192,-50,cs),
(192,112,o),
(230,403,o),
(251,557,c),
(297,558,o),
(349,558,o),
(517,558,c)
);
},
{
closed = 1;
nodes = (
(557,739,o),
(540,685,o),
(529,630,c),
(262,630,l),
(290,801,o),
(368,873,o),
(444,873,cs),
(494,873,o),
(544,842,o),
(580,788,c)
);
}
);
width = 727;
}
);
unicode = 64256;
},
{
glyphname = f_f_i;
layers = (
{
layerId = master01;
shapes = (
{
closed = 1;
nodes = (
(730,967,o),
(669,925,o),
(623,860,c),
(600,911,o),
(540,942,o),
(471,942,cs,{
name = hr01;
}),
(355,942,o),
(213,856,o),
(165,630,c),
(45,630,o),
(39,589,o),
(39,520,c),
(67,536,o),
(104,545,o),
(152,551,c),
(125,350,o),
(83,23,o),
(83,-91,cs),
(83,-191,o),
(114,-223,o),
(161,-223,cs),
(178,-223,o),
(206,-216,o),
(230,-187,c),
(198,-151,o),
(192,-102,o),
(192,-50,cs),
(192,112,o),
(230,403,o),
(251,557,c),
(297,558,o),
(349,558,o),
(517,558,c),
(490,358,o),
(447,25,o),
(447,-91,cs),
(447,-191,o),
(478,-223,o),
(524,-223,cs),
(541,-223,o),
(569,-216,o),
(594,-187,c),
(561,-151,o),
(555,-102,o),
(555,-50,cs),
(555,112,o),
(592,405,o),
(614,558,c),
(691,558,o),
(763,559,o),
(859,611,c),
(864,599,o),
(866,545,o),
(866,521,cs),
(866,371,o),
(824,243,o),
(824,125,cs,{
name = hr02;
}),
(824,24,o),
(855,-7,o),
(902,-7,cs),
(919,-7,o),
(946,0,o),
(971,29,c),
(939,65,o),
(933,114,o),
(933,166,cs),
(933,308,o),
(980,530,o),
(980,597,cs,{
name = hr03;
}),
(980,653,o),
(947,673,o),
(912,673,cs),
(856,673,o),
(829,632,o),
(625,630,c),
(657,826,o),
(712,893,o),
(788,893,cs),
(822,893,o),
(852,882,o),
(870,861,c),
(866,837,o),
(863,818,o),
(863,804,cs),
(863,772,o),
(887,761,o),
(915,761,cs),
(937,761,o),
(962,769,o),
(977,780,c),
(982,797,o),
(984,813,o),
(984,828,cs),
(984,913,o),
(905,967,o),
(802,967,cs)
);
},
{
closed = 1;
nodes = (
(557,739,o),
(540,685,o),
(529,630,c),
(262,630,l),
(290,801,o),
(368,873,o),
(444,873,cs,{
name = hr04;
}),
(494,873,o),
(544,842,o),
(580,788,c)
);
}
);
width = 1058;
}
);
unicode = 64259;
},
{
glyphname = f_f_l;
layers = (
{
layerId = master01;
shapes = (
{
closed = 1;
nodes = (
(557,741,o),
(539,685,o),
(529,630,c),
(262,630,l),
(290,801,o),
(368,873,o),
(444,873,cs),
(504,873,o),
(545,842,o),
(580,788,c)
);
},
{
closed = 1;
nodes = (
(745,558,o),
(775,573,o),
(786,659,c),
(751,635,o),
(706,630,o),
(625,630,c),
(657,826,o),
(712,903,o),
(804,903,cs,{
name = hr01;
}),
(848,903,o),
(899,872,o),
(899,780,cs),
(899,563,o),
(824,246,o),
(824,125,cs,{
name = hr02;
}),
(824,24,o),
(855,-7,o),
(902,-7,cs),
(918,-7,o),
(946,0,o),
(971,29,c),
(938,65,o),
(933,114,o),
(933,166,cs),
(933,352,o),
(1007,680,o),
(1007,802,cs,{
name = hr03;
}),
(1007,901,o),
(945,967,o),
(824,967,cs,{
name = hr04;
}),
(743,967,o),
(675,925,o),
(623,860,c),
(600,911,o),
(540,942,o),
(471,942,cs,{
name = hr05;
}),
(355,942,o),
(213,856,o),
(165,630,c),
(45,630,o),
(39,589,o),
(39,520,c),
(67,536,o),
(104,545,o),
(152,551,c),
(125,350,o),
(83,23,o),
(83,-91,cs),
(83,-191,o),
(114,-223,o),
(161,-223,cs),
(178,-223,o),
(206,-216,o),
(230,-187,c),
(198,-151,o),
(192,-102,o),
(192,-50,cs),
(192,112,o),
(230,403,o),
(251,557,c),
(297,558,o),
(349,558,o),
(517,558,c),
(490,358,o),
(447,25,o),
(447,-91,cs),
(447,-191,o),
(478,-223,o),
(524,-223,cs),
(541,-223,o),
(569,-216,o),
(594,-187,c),
(561,-151,o),
(555,-102,o),
(555,-50,cs),
(555,112,o),
(592,405,o),
(614,558,c)
);
}
);
width = 1058;
}
);
unicode = 64260;
},
{
glyphname = f_t;
layers = (
{
layerId = master01;
shapes = (
{
closed = 1;
nodes = (
(465,20,o),
(526,-15,o),
(590,-15,cs),
(686,-15,o),
(735,36,o),
(735,83,cs),
(735,99,o),
(729,115,o),
(717,130,c),
(696,89,o),
(655,58,o),
(622,58,cs),
(595,58,o),
(571,76,o),
(571,123,cs),
(571,264,o),
(600,430,o),
(618,548,c),
(740,551,o),
(783,569,o),
(794,659,c),
(762,637,o),
(704,631,o),
(631,630,c),
(634,651,o),
(636,669,o),
(636,681,cs,{
name = hr01;
}),
(636,760,o),
(628,786,o),
(584,786,cs),
(564,786,o),
(531,775,o),
(518,765,c),
(526,738,o),
(529,707,o),
(529,673,cs),
(529,658,o),
(528,644,o),
(527,628,c),
(261,621,l),
(292,824,o),
(347,893,o),
(425,893,cs),
(469,893,o),
(490,867,o),
(504,829,c),
(567,852,o),
(581,875,o),
(581,889,cs),
(581,933,o),
(513,967,o),
(450,967,cs),
(288,967,o),
(195,796,o),
(162,618,c),
(43,609,o),
(39,562,o),
(39,500,c),
(62,517,o),
(90,528,o),
(150,535,c),
(123,334,o),
(83,21,o),
(83,-91,cs),
(83,-191,o),
(114,-223,o),
(161,-223,cs),
(178,-223,o),
(206,-216,o),
(230,-187,c),
(198,-151,o),
(192,-102,o),
(192,-50,cs),
(192,107,o),
(226,386,o),
(249,543,c),
(314,546,o),
(401,547,o),
(519,547,c),
(501,413,o),
(465,258,o),
(465,120,cs)
);
}
);
width = 695;
}
);
},
{
glyphname = fi;
layers = (
{
layerId = master01;
shapes = (
{
closed = 1;
nodes = (
(503,371,o),
(461,243,o),
(461,125,cs,{
name = hr01;
}),
(461,24,o),
(492,-7,o),
(539,-7,cs),
(556,-7,o),
(583,0,o),
(608,29,c),
(576,65,o),
(570,114,o),
(570,166,cs),
(570,308,o),
(617,530,o),
(617,597,cs,{
name = hr02;
}),
(617,653,o),
(584,673,o),
(549,673,cs),
(493,673,o),
(466,632,o),
(262,630,c),
(294,826,o),
(349,893,o),
(425,893,cs),
(459,893,o),
(489,882,o),
(507,861,c),
(503,837,o),
(500,818,o),
(500,804,cs),
(500,772,o),
(524,761,o),
(552,761,cs),
(574,761,o),
(599,769,o),
(614,780,c),
(619,797,o),
(621,813,o),
(621,828,cs),
(621,913,o),
(542,967,o),
(439,967,cs),
(297,967,o),
(200,803,o),
(165,630,c),
(45,630,o),
(39,589,o),
(39,520,c),
(69,539,o),
(113,545,o),
(152,546,c),
(125,345,o),
(83,23,o),
(83,-91,cs),
(83,-191,o),
(114,-223,o),
(161,-223,cs),
(178,-223,o),
(206,-216,o),
(230,-187,c),
(198,-151,o),
(192,-102,o),
(192,-50,cs),
(192,108,o),
(227,391,o),
(249,547,c),
(326,548,o),
(400,557,o),
(496,611,c),
(501,599,o),
(503,545,o),
(503,521,cs)
);
}
);
width = 695;
}
);
unicode = 64257;
},
{
glyphname = fl;
layers = (
{
layerId = master01;
shapes = (
{
closed = 1;
nodes = (
(288,967,o),
(200,803,o),
(165,630,c),
(45,630,o),
(39,589,o),
(39,520,c),
(69,539,o),
(113,545,o),
(152,546,c),
(125,345,o),
(83,23,o),
(83,-91,cs),
(83,-191,o),
(114,-223,o),
(161,-223,cs),
(178,-223,o),
(206,-216,o),
(230,-187,c),
(198,-151,o),
(192,-102,o),
(192,-50,cs),
(192,108,o),
(227,391,o),
(249,547,c),
(382,550,o),
(412,564,o),
(423,659,c),
(388,635,o),
(343,630,o),
(262,630,c),
(294,826,o),
(349,903,o),
(441,903,cs),
(485,903,o),
(536,872,o),
(536,780,cs,{
name = hr01;
}),
(536,563,o),
(461,246,o),
(461,125,cs,{
name = hr02;
}),
(461,24,o),
(492,-7,o),
(539,-7,cs),
(555,-7,o),
(583,0,o),
(608,29,c),
(575,65,o),
(570,114,o),
(570,166,cs),
(570,166,ls),
(570,352,o),
(644,680,o),
(644,802,cs,{
name = hr03;
}),
(644,901,o),
(582,967,o),
(461,967,cs)
);
}
);
width = 695;
}
);
unicode = 64258;
},
{
glyphname = ordfeminine;
layers = (
{
layerId = master01;
shapes = (
{
closed = 1;
nodes = (
(298,505,o),
(317,460,o),
(354,460,cs),
(370,460,o),
(386,469,o),
(400,487,c),
(380,521,o),
(373,558,o),
(373,627,cs),
(373,708,o),
(385,812,o),
(399,851,c),
(386,865,o),
(375,870,o),
(360,870,cs),
(342,870,o),
(332,862,o),
(326,843,c),
(304,864,o),
(276,876,o),
(246,876,cs),
(146,876,o),
(68,759,o),
(68,609,cs),
(68,514,o),
(103,456,o),
(161,456,cs),
(200,456,o),
(253,518,o),
(293,607,c),
(298,607,l,{
name = hr00;
})
);
},
{
closed = 1;
nodes = (
(156,529,o),
(141,564,o),
(141,623,cs),
(141,742,o),
(186,825,o),
(248,825,cs),
(269,825,o),
(292,815,o),
(317,797,c),
(304,689,o),
(222,529,o),
(180,529,cs)
);
}
);
width = 474;
}
);
unicode = 170;
},
{
glyphname = ordmasculine;
layers = (
{
layerId = master01;
shapes = (
{
closed = 1;
nodes = (
(289,821,o),
(323,776,o),
(323,688,cs),
(323,637,o),
(305,509,o),
(230,509,cs),
(176,509,o),
(143,555,o),
(143,642,cs),
(143,694,o),
(161,821,o),
(234,821,cs,{
name = hr00;
})
);
},
{
closed = 1;
nodes = (
(323,454,o),
(397,594,o),
(397,709,cs),
(397,802,o),
(352,876,o),
(264,876,cs),
(143,876,o),
(68,736,o),
(68,621,cs),
(68,528,o),
(113,454,o),
(202,454,cs)
);
}
);
width = 465;
}
);
unicode = 186;
},
{
glyphname = pi;
layers = (
{
layerId = master01;
shapes = (
{
closed = 1;
nodes = (
(651,683,o),
(565,683,o),
(485,683,cs),
(366,683,o),
(226,697,o),
(158,697,cs,{
name = hr01;
}),
(85,697,o),
(60,664,o),
(60,624,cs),
(60,607,o),
(69,577,o),
(83,562,c),
(113,579,o),
(152,588,o),
(195,593,c),
(175,425,o),
(134,218,o),
(134,125,cs),
(134,24,o),
(165,-7,o),
(212,-7,cs),
(228,-7,o),
(256,0,o),
(281,29,c),
(248,65,o),
(243,114,o),
(243,166,cs),
(243,287,o),
(275,458,o),
(298,598,c),
(379,597,o),
(462,588,o),
(524,586,c,{
name = hr02;
}),
(504,419,o),
(464,216,o),
(464,125,cs),
(464,24,o),
(495,-7,o),
(542,-7,cs),
(558,-7,o),
(586,0,o),
(611,29,c),
(578,65,o),
(573,114,o),
(573,166,cs),
(573,284,o),
(604,450,o),
(626,588,c),
(713,599,o),
(740,630,o),
(740,670,cs),
(740,686,o),
(733,714,o),
(704,739,c)
);
}
);
width = 730;
}
);
unicode = 960;
},
{
glyphname = zero;
layers = (
{
layerId = master01;
shapes = (
{
closed = 1;
nodes = (
(527,364,o),
(484,61,o),
(320,61,cs),
(201,61,o),
(132,169,o),
(132,388,cs),
(132,516,o),
(179,810,o),
(338,810,cs),
(458,810,o),
(527,700,o),
(527,487,cs,{
name = hr00;
})
);
},
{
closed = 1;
nodes = (
(517,-16,o),
(633,271,o),
(633,517,cs),
(633,722,o),
(545,887,o),
(381,887,cs),
(142,887,o),
(26,597,o),
(26,350,cs),
(26,145,o),
(114,-16,o),
(278,-16,cs)
);
}
);
width = 659;
}
);
unicode = 48;
},
{
glyphname = one;
layers = (
{
layerId = master01;
shapes = (
{
closed = 1;
nodes = (
(350,352,o),
(427,660,o),
(427,782,cs,{
name = hr01;
}),
(427,861,o),
(403,887,o),
(358,887,cs),
(293,887,o),
(274,837,o),
(232,799,cs),
(154,727,o),
(124,705,o),
(66,690,c),
(97,627,o),
(120,622,o),
(147,622,cs),
(164,622,o),
(225,639,o),
(312,769,c),
(312,531,o),
(241,246,o),
(241,125,cs,{
name = hr02;
}),
(241,24,o),
(272,-7,o),
(319,-7,cs),
(335,-7,o),
(363,0,o),
(388,29,c),
(355,65,o),
(350,114,o),
(350,166,cs)
);
}
);
width = 581;
}
);
unicode = 49;
},
{
glyphname = two;
layers = (
{
layerId = master01;
shapes = (
{
closed = 1;
nodes = (
(576,805,o),
(502,887,o),
(322,887,cs),
(155,887,o),
(89,806,o),
(89,733,cs),
(89,699,o),
(109,683,o),
(160,663,c),
(172,752,o),
(217,817,o),
(310,817,cs),
(407,817,o),
(458,749,o),
(458,675,cs),
(458,471,o),
(109,117,o),
(27,22,c),
(38,-1,o),
(56,-16,o),
(82,-16,cs),
(95,-16,o),
(107,-9,o),
(118,2,c),
(179,17,o),
(228,19,o),
(312,19,cs),
(445,19,o),
(500,11,o),
(562,-13,c),
(562,-1,o),
(563,11,o),
(563,21,cs),
(563,108,o),
(504,116,o),
(412,116,cs),
(371,116,o),
(275,106,o),
(189,83,c),
(357,267,o),
(576,503,o),
(576,692,cs)
);
}
);
width = 669;
}
);
unicode = 50;
},
{
glyphname = three;
layers = (
{
layerId = master01;
shapes = (
{
closed = 1;
nodes = (
(210,412,o),
(248,418,o),
(282,428,c),
(401,415,o),
(446,341,o),
(446,263,cs),
(446,166,o),
(375,58,o),
(246,58,cs),
(154,58,o),
(111,113,o),
(95,189,c),
(45,170,o),
(26,147,o),
(26,123,cs),
(26,54,o),
(109,-16,o),
(221,-16,cs),
(471,-16,o),
(564,168,o),
(564,280,cs),
(564,378,o),
(508,447,o),
(393,473,c),
(498,533,o),
(550,621,o),
(550,692,cs,{
name = hr01;
}),
(550,805,o),
(481,887,o),
(312,887,cs),
(144,887,o),
(88,808,o),
(88,763,cs),
(88,729,o),
(104,712,o),
(154,692,c),
(176,757,o),
(206,817,o),
(299,817,cs),
(386,817,o),
(433,749,o),
(433,675,cs),
(433,596,o),
(370,509,o),
(212,492,cs),
(176,488,o),
(169,485,o),
(169,446,cs),
(169,441,o),
(169,416,o),
(170,409,c)
);
}
);
width = 679;
}
);
unicode = 51;
},
{
glyphname = four;
layers = (
{
layerId = master01;
shapes = (
{
closed = 1;
nodes = (
(376,875,o),
(357,887,o),
(328,887,cs),
(311,887,o),
(281,880,o),
(246,851,c),
(252,838,o),
(255,824,o),
(255,808,cs),
(255,613,o),
(81,334,o),
(-47,194,c),
(-36,171,o),
(-18,157,o),
(8,157,cs),
(22,157,o),
(32,163,o),
(43,174,c),
(101,188,o),
(180,195,o),
(259,195,cs),
(289,195,o),
(318,194,o),
(347,192,c),
(341,158,o),
(337,125,o),
(337,93,cs,{
name = hr01;
}),
(337,18,o),
(366,-6,o),
(413,-6,cs),
(430,-6,o),
(459,0,o),
(485,24,c),
(457,51,o),
(449,75,o),
(449,109,cs),
(449,128,o),
(452,153,o),
(456,180,c),
(487,174,o),
(514,167,o),
(532,159,c),
(533,171,o),
(534,183,o),
(534,194,cs),
(534,235,o),
(509,257,o),
(471,268,c),
(479,312,o),
(486,353,o),
(486,378,cs,{
name = hr02;
}),
(486,433,o),
(464,452,o),
(424,452,cs),
(404,452,o),
(371,443,o),
(357,433,c),
(371,408,o),
(374,381,o),
(374,352,cs),
(374,333,o),
(370,307,o),
(364,279,c),
(293,278,o),
(192,266,o),
(100,242,c),
(248,434,o),
(376,693,o),
(376,820,cs)
);
}
);
width = 595;
}
);
unicode = 52;
},
{
glyphname = five;
layers = (
{
layerId = master01;
shapes = (
{
closed = 1;
nodes = (
(159,58,o),
(116,113,o),
(100,189,c),
(50,170,o),
(31,147,o),
(31,123,cs),
(31,54,o),
(114,-16,o),
(226,-16,cs),
(476,-16,o),
(569,168,o),
(569,280,cs),
(569,385,o),
(501,491,o),
(281,491,cs),
(256,491,o),
(229,490,o),
(200,487,c),
(220,603,o),
(241,713,o),
(242,777,c),
(310,761,o),
(378,755,o),
(411,755,cs),
(504,755,o),
(563,763,o),
(563,850,cs),
(563,860,o),
(562,873,o),
(561,884,c),
(500,860,o),
(445,852,o),
(311,852,cs),
(278,852,o),
(253,852,o),
(231,853,c),
(220,879,o),
(200,889,o),
(173,889,cs),
(153,889,o),
(121,879,o),
(106,866,c),
(126,826,o),
(127,779,o),
(127,731,cs),
(127,594,o),
(93,441,o),
(93,422,cs),
(93,414,o),
(96,407,o),
(106,407,cs),
(118,407,o),
(177,430,o),
(262,430,cs),
(416,430,o),
(451,331,o),
(451,263,cs),
(451,166,o),
(379,58,o),
(250,58,cs,{
name = hr00;
})
);
}
);
width = 679;
}
);
unicode = 53;
},
{
glyphname = six;
layers = (
{
layerId = master01;
shapes = (
{
closed = 1;
nodes = (
(212,405,o),
(261,437,o),
(327,437,cs),
(404,437,o),
(464,388,o),
(464,263,cs),
(464,166,o),
(408,61,o),
(301,61,cs),
(187,61,o),
(146,167,o),
(146,382,cs),
(146,504,o),
(210,800,o),
(383,800,cs),
(447,800,o),
(490,792,o),
(529,740,c),
(548,754,o),
(567,782,o),
(567,805,cs),
(567,863,o),
(514,887,o),
(432,887,cs),
(177,887,o),
(39,586,o),
(39,336,cs),
(39,138,o),
(125,-16,o),
(285,-16,cs),
(503,-16,o),
(583,168,o),
(583,280,cs),
(583,432,o),
(480,505,o),
(355,505,cs),
(306,505,o),
(253,494,o),
(202,472,c),
(193,456,o),
(189,437,o),
(189,421,cs),
(189,408,o),
(197,405,o),
(204,405,cs,{
name = hr00;
})
);
}
);
width = 685;
}
);
unicode = 54;
},
{
glyphname = seven;
layers = (
{
layerId = master01;
shapes = (
{
closed = 1;
nodes = (
(140,-3,o),
(158,-16,o),
(188,-16,cs),
(205,-16,o),
(235,-9,o),
(270,20,c),
(263,33,o),
(260,47,o),
(260,63,cs),
(260,268,o),
(396,664,o),
(580,849,c),
(569,872,o),
(550,887,o),
(525,887,cs),
(510,887,o),
(499,880,o),
(488,868,c),
(428,854,o),
(377,852,o),
(295,852,cs),
(161,852,o),
(106,860,o),
(45,884,c),
(44,873,o),
(43,860,o),
(43,850,cs),
(43,763,o),
(102,755,o),
(195,755,cs),
(236,755,o),
(337,765,o),
(425,789,c),
(274,579,o),
(140,223,o),
(140,51,cs,{
name = hr00;
})
);
}
);
width = 589;
}
);
unicode = 55;
},
{
glyphname = eight;
layers = (
{
layerId = master01;
shapes = (
{
closed = 1;
nodes = (
(506,518,o),
(597,588,o),
(597,711,cs),
(597,798,o),
(534,887,o),
(378,887,cs),
(204,887,o),
(95,797,o),
(95,660,cs),
(95,561,o),
(159,492,o),
(235,434,c),
(96,386,o),
(33,291,o),
(33,189,cs,{
name = hr01;
}),
(33,85,o),
(106,-16,o),
(287,-16,cs),
(463,-16,o),
(577,79,o),
(577,209,cs),
(577,439,o),
(204,485,o),
(204,673,cs,{
name = hr02;
}),
(204,759,o),
(271,812,o),
(354,812,cs),
(447,812,o),
(492,754,o),
(492,692,cs),
(492,568,o),
(402,529,o),
(402,514,cs),
(402,500,o),
(427,486,o),
(444,483,c)
);
},
{
closed = 1;
nodes = (
(466,105,o),
(366,59,o),
(292,59,cs),
(200,59,o),
(137,118,o),
(137,194,cs),
(137,270,o),
(204,344,o),
(277,402,c),
(371,336,o),
(466,281,o),
(466,202,cs,{
name = hr03;
})
);
}
);
width = 688;
}
);
unicode = 56;
},
{
glyphname = nine;
layers = (
{
layerId = master01;
shapes = (
{
closed = 1;
nodes = (
(107,887,o),
(28,702,o),
(28,591,cs),
(28,439,o),
(131,365,o),
(256,365,cs),
(305,365,o),
(357,376,o),
(409,399,c),
(417,415,o),
(421,434,o),
(421,450,cs),
(421,462,o),
(414,466,o),
(407,466,cs),
(398,466,o),
(350,434,o),
(284,434,cs),
(207,434,o),
(146,482,o),
(146,608,cs),
(146,705,o),
(203,810,o),
(310,810,cs),
(424,810,o),
(464,704,o),
(464,488,cs),
(464,366,o),
(400,70,o),
(228,70,cs),
(164,70,o),
(121,79,o),
(82,130,c),
(62,117,o),
(44,88,o),
(44,65,cs),
(44,8,o),
(97,-16,o),
(179,-16,cs),
(434,-16,o),
(572,285,o),
(572,534,cs),
(572,733,o),
(486,887,o),
(326,887,cs,{
name = hr00;
})
);
}
);
width = 655;
}
);
unicode = 57;
},
{
glyphname = zeroinferior;
layers = (
{
layerId = master01;
shapes = (
{
closed = 1;
nodes = (
(291,208,o),
(269,52,o),
(189,52,cs),
(131,52,o),
(97,107,o),
(97,218,cs),
(97,284,o),
(120,436,o),
(199,436,cs),
(256,436,o),
(291,380,o),
(291,272,cs,{
name = hr00;
})
);
},
{
closed = 1;
nodes = (
(301,-9,o),
(367,151,o),
(367,288,cs),
(367,403,o),
(316,496,o),
(222,496,cs),
(87,496,o),
(21,335,o),
(21,198,cs),
(21,82,o),
(72,-9,o),
(166,-9,cs)
);
}
);
width = 392;
}
);
unicode = 8320;
},
{
glyphname = oneinferior;
layers = (
{
layerId = master01;
shapes = (
{
closed = 1;
nodes = (
(214,187,o),
(255,366,o),
(255,430,cs,{
name = hr01;
}),
(255,480,o),
(239,496,o),
(209,496,cs),
(148,496,o),
(139,412,o),
(38,387,c),
(62,339,o),
(77,335,o),
(95,335,cs),
(104,335,o),
(134,341,o),
(175,393,c),
(173,312,o),
(136,143,o),
(136,77,cs,{
name = hr02;
}),
(136,16,o),
(157,-4,o),
(187,-4,cs),
(199,-4,o),
(218,2,o),
(238,25,c),
(217,47,o),
(214,73,o),
(214,99,cs)
);
}
);
width = 349;
}
);
unicode = 8321;
},
{
glyphname = twoinferior;
layers = (
{
layerId = master01;
shapes = (
{
closed = 1;
nodes = (
(335,448,o),
(293,496,o),
(190,496,cs),
(93,496,o),
(55,447,o),
(55,404,cs),
(55,381,o),
(70,368,o),
(110,353,c),
(117,403,o),
(139,439,o),
(183,439,cs),
(229,439,o),
(253,407,o),
(253,373,cs),
(253,279,o),
(109,121,o),
(20,23,c),
(28,4,o),
(42,-9,o),
(61,-9,cs),
(71,-9,o),
(78,-4,o),
(85,2,c),
(114,9,o),
(142,10,o),
(184,10,cs,{
name = hr01;
}),
(255,10,o),
(286,5,o),
(326,-11,c),
(328,4,o),
(329,15,o),
(329,21,cs),
(329,76,o),
(293,82,o),
(238,82,cs,{
name = hr02;
}),
(221,82,o),
(184,78,o),
(146,70,c),
(233,169,o),
(335,284,o),
(335,381,cs)
);
}
);
width = 397;
}
);
unicode = 8322;
},
{
glyphname = threeinferior;
layers = (
{
layerId = master01;
shapes = (
{
closed = 1;
nodes = (
(126,222,o),
(150,226,o),
(168,230,c),
(225,224,o),
(247,188,o),
(247,151,cs),
(247,103,o),
(212,50,o),
(149,50,cs),
(105,50,o),
(84,82,o),
(75,125,c),
(36,109,o),
(21,93,o),
(21,76,cs),
(21,34,o),
(69,-9,o),
(135,-9,cs),
(277,-9,o),
(330,97,o),
(330,160,cs),
(330,212,o),
(304,250,o),
(251,268,c),
(298,301,o),
(322,345,o),
(322,381,cs),
(322,448,o),
(282,496,o),
(184,496,cs),
(86,496,o),
(54,447,o),
(54,420,cs),
(54,397,o),
(66,385,o),
(105,370,c),
(113,406,o),
(133,439,o),
(177,439,cs),
(218,439,o),
(240,407,o),
(240,373,cs),
(240,335,o),
(204,289,o),
(129,279,cs),
(104,275,o),
(98,273,o),
(98,245,cs),
(98,220,l,{
name = hr00;
})
);
}
);
width = 403;
}
);
unicode = 8323;
},
{
glyphname = fourinferior;
layers = (
{
layerId = master01;
shapes = (
{
closed = 1;
nodes = (
(228,488,o),
(214,496,o),
(192,496,cs),
(182,496,o),
(162,491,o),
(137,470,c),
(141,461,o),
(144,452,o),
(144,444,cs),
(144,342,o),
(49,192,o),
(-21,116,c),
(-12,97,o),
(2,84,o),
(21,84,cs),
(30,84,o),
(38,88,o),
(45,95,c),
(74,101,o),
(115,104,o),
(155,104,cs),
(191,104,l),
(189,89,o),
(188,75,o),
(188,60,cs,{
name = hr01;
}),
(188,12,o),
(208,-3,o),
(238,-3,cs),
(249,-3,o),
(269,2,o),
(291,23,c),
(272,41,o),
(267,53,o),
(267,68,cs),
(267,76,o),
(268,84,o),
(269,95,c),
(280,92,o),
(294,88,o),
(311,81,c),
(311,88,o),
(312,108,o),
(312,114,cs,{
name = hr02;
}),
(312,139,o),
(302,153,o),
(281,161,c),
(285,181,o),
(288,200,o),
(288,213,cs,{
name = hr03;
}),
(288,250,o),
(272,262,o),
(244,262,cs),
(232,262,o),
(208,254,o),
(196,246,c),
(204,229,o),
(207,215,o),
(207,200,cs),
(207,190,o),
(206,180,o),
(204,169,c),
(173,168,o),
(133,164,o),
(93,155,c),
(167,257,o),
(228,385,o),
(228,451,cs)
);
}
);
width = 356;
}
);
unicode = 8324;
},
{
glyphname = fiveinferior;
layers = (
{
layerId = master01;
shapes = (
{
closed = 1;
nodes = (
(108,50,o),
(86,82,o),
(78,125,c),
(39,109,o),
(23,94,o),
(23,76,cs),
(23,34,o),
(72,-9,o),
(138,-9,cs),
(280,-9,o),
(332,97,o),
(332,160,cs),
(332,221,o),
(293,283,o),
(167,283,cs),
(159,283,o),
(146,283,o),
(136,282,c),
(146,343,o),
(153,386,o),
(155,416,c),
(187,410,o),
(221,406,o),
(238,406,cs),
(293,406,o),
(329,411,o),
(329,467,cs),
(329,472,o),
(327,493,o),
(327,499,c),
(280,482,o),
(232,476,o),
(187,476,cs),
(173,476,o),
(160,477,o),
(147,478,c),
(139,491,o),
(125,497,o),
(109,497,cs),
(98,497,o),
(75,489,o),
(62,477,c),
(75,452,o),
(75,427,o),
(75,403,cs),
(75,363,o),
(57,259,o),
(57,236,cs),
(57,227,o),
(61,219,o),
(74,219,cs),
(82,219,o),
(106,231,o),
(157,231,cs),
(233,231,o),
(250,184,o),
(250,151,cs),
(250,103,o),
(214,50,o),
(151,50,cs,{
name = hr00;
})
);
}
);
width = 403;
}
);
unicode = 8325;
},
{
glyphname = sixinferior;
layers = (
{
layerId = master01;
shapes = (
{
closed = 1;
nodes = (
(254,430,o),
(276,425,o),
(299,395,c),
(315,406,o),
(331,427,o),
(331,443,cs),
(331,480,o),
(299,496,o),
(249,496,cs),
(105,496,o),
(28,329,o),
(28,190,cs),
(28,78,o),
(78,-9,o),
(170,-9,cs),
(294,-9,o),
(339,97,o),
(339,160,cs),
(339,248,o),
(280,291,o),
(208,291,cs),
(166,291,o),
(135,282,o),
(110,272,c),
(123,342,o),
(157,430,o),
(223,430,cs,{
name = hr00;
})
);
},
{
closed = 1;
nodes = (
(229,235,o),
(257,211,o),
(257,151,cs),
(257,103,o),
(229,52,o),
(178,52,cs),
(125,52,o),
(105,105,o),
(105,214,c),
(122,223,o),
(148,235,o),
(192,235,cs)
);
}
);
width = 406;
}
);
unicode = 8326;
},
{
glyphname = seveninferior;
layers = (
{
layerId = master01;
shapes = (
{
closed = 1;
nodes = (
(82,0,o),
(96,-9,o),
(118,-9,cs),
(128,-9,o),
(148,-3,o),
(174,18,c),
(168,28,o),
(166,36,o),
(166,43,cs),
(166,151,o),
(240,364,o),
(340,464,c),
(331,483,o),
(317,496,o),
(299,496,cs),
(289,496,o),
(282,492,o),
(275,486,c),
(244,479,o),
(217,478,o),
(175,478,cs),
(106,478,o),
(76,483,o),
(34,500,c),
(31,488,o),
(30,477,o),
(30,467,cs),
(30,411,o),
(66,406,o),
(121,406,cs),
(140,406,o),
(181,410,o),
(223,419,c),
(146,303,o),
(82,126,o),
(82,37,cs,{
name = hr00;
})
);
}
);
width = 353;
}
);
unicode = 8327;
},
{
glyphname = eightinferior;
layers = (
{
layerId = master01;
shapes = (
{
closed = 1;
nodes = (
(348,444,o),
(311,496,o),
(220,496,cs),
(120,496,o),
(58,444,o),
(58,364,cs),
(58,314,o),
(95,273,o),
(131,244,c),
(64,214,o),
(25,166,o),
(25,111,cs,{
name = hr01;
}),
(25,51,o),
(67,-9,o),
(171,-9,cs),
(271,-9,o),
(336,46,o),
(336,122,cs),
(336,180,o),
(290,216,o),
(242,250,c),
(309,286,o),
(348,330,o),
(348,392,cs)
);
},
{
closed = 1;
nodes = (
(258,73,o),
(209,51,o),
(174,51,cs),
(130,51,o),
(100,78,o),
(100,114,cs),
(100,149,o),
(131,188,o),
(167,213,c),
(199,191,o),
(258,163,o),
(258,118,cs,{
name = hr03;
})
);
},
{
closed = 1;
nodes = (
(136,412,o),
(167,437,o),
(207,437,cs),
(250,437,o),
(271,410,o),
(271,382,cs),
(271,331,o),
(239,304,o),
(202,277,c),
(165,303,o),
(136,332,o),
(136,372,cs,{
name = hr04;
})
);
}
);
width = 408;
}
);
unicode = 8328;
},
{
glyphname = nineinferior;
layers = (
{
layerId = master01;
shapes = (
{
closed = 1;
nodes = (
(67,496,o),
(22,391,o),
(22,327,cs),
(22,239,o),
(82,196,o),
(154,196,cs),
(190,196,o),
(224,207,o),
(252,218,c),
(240,148,o),
(205,57,o),
(139,57,cs),
(107,57,o),
(86,62,o),
(62,93,c),
(46,81,o),
(31,61,o),
(31,45,cs),
(31,7,o),
(63,-9,o),
(112,-9,cs),
(256,-9,o),
(333,159,o),
(333,297,cs),
(333,409,o),
(284,496,o),
(192,496,cs,{
name = hr00;
})
);
},
{
closed = 1;
nodes = (
(133,252,o),
(105,275,o),
(105,337,cs),
(105,384,o),
(132,436,o),
(183,436,cs),
(237,436,o),
(257,382,o),
(257,272,c),
(238,262,o),
(208,252,o),
(169,252,cs)
);
}
);
width = 390;
}
);
unicode = 8329;
},
{
glyphname = onesuperior;
layers = (
{
layerId = master01;
shapes = (
{
closed = 1;
nodes = (
(214,633,o),
(255,812,o),
(255,876,cs,{
name = hr01;
}),
(255,926,o),
(239,942,o),
(209,942,cs),
(148,942,o),
(139,858,o),
(38,833,c),
(62,785,o),
(77,781,o),
(95,781,cs),
(104,781,o),
(134,787,o),
(175,839,c),
(173,758,o),
(136,589,o),
(136,523,cs,{
name = hr02;
}),
(136,462,o),
(157,442,o),
(187,442,cs),
(199,442,o),
(218,448,o),
(238,471,c),
(217,493,o),
(214,519,o),
(214,545,cs)
);
}
);
width = 349;
}
);
unicode = 185;
},
{
glyphname = twosuperior;
layers = (
{
layerId = master01;
shapes = (
{
closed = 1;
nodes = (
(335,894,o),
(293,942,o),
(190,942,cs),
(93,942,o),
(55,893,o),
(55,850,cs),
(55,827,o),
(70,814,o),
(110,799,c),
(117,849,o),
(139,885,o),
(183,885,cs),
(229,885,o),
(253,853,o),
(253,819,cs),
(253,725,o),
(109,567,o),
(20,469,c),
(28,450,o),
(42,437,o),
(61,437,cs),
(71,437,o),
(78,442,o),
(85,448,c),
(114,455,o),
(142,456,o),
(184,456,cs),
(255,456,o),
(286,451,o),
(326,435,c),
(328,450,o),
(329,461,o),
(329,467,cs),
(329,522,o),
(293,528,o),
(238,528,cs,{
name = hr01;
}),
(221,528,o),
(184,524,o),
(146,516,c),
(233,615,o),
(335,730,o),
(335,827,cs)
);
}
);
width = 397;
}
);
unicode = 178;
},
{
glyphname = threesuperior;
layers = (
{
layerId = master01;
shapes = (
{
closed = 1;
nodes = (
(126,668,o),
(150,672,o),
(168,676,c),
(225,670,o),
(247,634,o),
(247,597,cs),
(247,549,o),
(212,496,o),
(149,496,cs),
(105,496,o),
(84,528,o),
(75,571,c),
(36,555,o),
(21,539,o),
(21,522,cs),
(21,480,o),
(69,437,o),
(135,437,cs),
(277,437,o),
(330,543,o),
(330,606,cs),
(330,658,o),
(304,696,o),
(251,714,c),
(298,747,o),
(322,791,o),
(322,827,cs),
(322,894,o),
(282,942,o),
(184,942,cs),
(86,942,o),
(54,893,o),
(54,866,cs),
(54,843,o),
(66,831,o),
(105,816,c),
(113,852,o),
(133,885,o),
(177,885,cs),
(218,885,o),
(240,853,o),
(240,819,cs),
(240,781,o),
(204,735,o),
(129,725,cs),
(104,721,o),
(98,719,o),
(98,691,cs),
(98,666,l,{
name = hr00;
})
);
}
);
width = 403;
}
);
unicode = 179;
},
{
glyphname = fraction;
layers = (
{
layerId = master01;
shapes = (
{
closed = 1;
nodes = (
(235,333,o),
(423,659,o),
(466,781,cs),
(476,809,o),
(480,830,o),
(480,845,cs),
(480,875,o),
(464,887,o),
(435,887,cs),
(415,887,o),
(394,877,o),
(375,864,c),
(375,857,o),
(376,851,o),
(376,845,cs),
(376,810,o),
(362,770,o),
(348,729,cs),
(289,562,o),
(104,226,o),
(62,106,cs),
(50,70,o),
(44,43,o),
(44,23,cs),
(44,-13,o),
(63,-26,o),
(93,-26,cs),
(109,-26,o),
(125,-19,o),
(160,10,c),
(153,23,o),
(149,39,o),
(149,55,cs),
(149,83,o),
(158,114,o),
(169,147,cs,{
name = hr00;
})
);
}
);
width = 521;
}
);
unicode = 8260;
},
{
glyphname = onehalf;
layers = (
{
layerId = master01;
shapes = (
{
closed = 1;
nodes = (
(420,333,o),
(608,659,o),
(651,781,cs),
(661,809,o),
(665,830,o),
(665,845,cs),
(665,875,o),
(649,887,o),
(620,887,cs),
(600,887,o),
(579,877,o),
(560,864,c),
(560,857,o),
(561,851,o),
(561,845,cs),
(561,810,o),
(547,770,o),
(533,729,cs),
(474,562,o),
(289,226,o),
(247,106,cs),
(235,70,o),
(229,43,o),
(229,23,cs),
(229,-13,o),
(248,-26,o),
(278,-26,cs),
(294,-26,o),
(310,-19,o),
(345,10,c),
(338,23,o),
(334,39,o),
(334,55,cs),
(334,83,o),
(343,114,o),
(354,147,cs)
);
},
{
closed = 1;
nodes = (
(250,577,o),
(291,756,o),
(291,820,cs,{
name = hr02;
}),
(291,870,o),
(275,886,o),
(245,886,cs),
(184,886,o),
(175,802,o),
(74,777,c),
(98,729,o),
(113,725,o),
(131,725,cs),
(140,725,o),
(170,731,o),
(211,783,c),
(209,702,o),
(172,533,o),
(172,467,cs,{
name = hr03;
}),
(172,406,o),
(193,386,o),
(223,386,cs),
(235,386,o),
(254,392,o),
(274,415,c),
(253,437,o),
(250,463,o),
(250,489,cs,{
name = hr01;
})
);
},
{
closed = 1;
nodes = (
(851,426,o),
(809,474,o),
(706,474,cs),
(609,474,o),
(571,425,o),
(571,382,cs),
(571,359,o),
(586,346,o),
(626,331,c),
(633,381,o),
(655,417,o),
(699,417,cs),
(745,417,o),
(769,385,o),
(769,351,cs),
(769,257,o),
(625,99,o),
(536,1,c),
(544,-18,o),
(558,-31,o),
(577,-31,cs),
(587,-31,o),
(594,-26,o),
(601,-20,c),
(630,-13,o),
(658,-12,o),
(700,-12,cs),
(771,-12,o),
(802,-17,o),
(842,-33,c),
(844,-18,o),
(845,-7,o),
(845,-1,cs),
(845,54,o),
(809,60,o),
(754,60,cs,{
name = hr04;
}),
(737,60,o),
(700,56,o),
(662,48,c),
(749,147,o),
(851,262,o),
(851,359,cs)
);
}
);
width = 901;
}
);
unicode = 189;
},
{
glyphname = onequarter;
layers = (
{
layerId = master01;
shapes = (
{
closed = 1;
nodes = (
(420,333,o),
(608,659,o),
(651,781,cs),
(661,809,o),
(665,830,o),
(665,845,cs),
(665,875,o),
(649,887,o),
(620,887,cs),
(600,887,o),
(579,877,o),
(560,864,c),
(560,857,o),
(561,851,o),
(561,845,cs),
(561,810,o),
(547,770,o),
(533,729,cs),
(474,562,o),
(289,226,o),
(247,106,cs),
(235,70,o),
(229,43,o),
(229,23,cs),
(229,-13,o),
(248,-26,o),
(278,-26,cs),
(294,-26,o),
(310,-19,o),
(345,10,c),
(338,23,o),
(334,39,o),
(334,55,cs),
(334,83,o),
(343,114,o),
(354,147,cs)
);
},
{
closed = 1;
nodes = (
(250,577,o),
(291,756,o),
(291,820,cs,{
name = hr02;
}),
(291,870,o),
(275,886,o),
(245,886,cs),
(184,886,o),
(175,802,o),
(74,777,c),
(98,729,o),
(113,725,o),
(131,725,cs),
(140,725,o),
(170,731,o),
(211,783,c),
(209,702,o),
(172,533,o),
(172,467,cs,{
name = hr03;
}),
(172,406,o),
(193,386,o),
(223,386,cs),
(235,386,o),
(254,392,o),
(274,415,c),
(253,437,o),
(250,463,o),
(250,489,cs,{
name = hr01;
})
);
},
{
closed = 1;
nodes = (
(744,466,o),
(730,474,o),
(708,474,cs),
(698,474,o),
(678,469,o),
(653,448,c),
(657,439,o),
(660,430,o),
(660,422,cs),
(660,320,o),
(565,170,o),
(495,94,c),
(504,75,o),
(518,62,o),
(537,62,cs),
(546,62,o),
(554,66,o),
(561,73,c,{
name = hr04;
}),
(590,79,o),
(631,82,o),
(671,82,cs),
(707,82,l),
(705,67,o),
(704,53,o),
(704,38,cs),
(704,-10,o),
(724,-25,o),
(754,-25,cs),
(765,-25,o),
(785,-20,o),
(807,1,c),
(788,19,o),
(783,31,o),
(783,46,cs),
(783,54,o),
(784,62,o),
(785,73,c),
(796,70,o),
(810,66,o),
(827,59,c),
(827,66,o),
(828,86,o),
(828,92,cs),
(828,117,o),
(818,131,o),
(797,139,c),
(801,159,o),
(804,178,o),
(804,191,cs,{
name = hr05;
}),
(804,228,o),
(788,240,o),
(760,240,cs),
(748,240,o),
(724,232,o),
(712,224,c),
(720,207,o),
(723,193,o),
(723,178,cs),
(723,168,o),
(722,158,o),
(720,147,c),
(689,146,o),
(649,142,o),
(609,133,c),
(683,235,o),
(744,363,o),
(744,429,cs)
);
}
);
width = 901;
}
);
unicode = 188;
},
{
glyphname = threequarters;
layers = (
{
layerId = master01;
shapes = (
{
closed = 1;
nodes = (
(454,333,o),
(642,659,o),
(685,781,cs),
(695,809,o),
(699,830,o),
(699,845,cs),
(699,875,o),
(683,887,o),
(654,887,cs),
(634,887,o),
(613,877,o),
(594,864,c),
(594,857,o),
(595,851,o),
(595,845,cs),
(595,810,o),
(581,770,o),
(567,729,cs),
(508,562,o),
(323,226,o),
(281,106,cs),
(269,70,o),
(263,43,o),
(263,23,cs),
(263,-13,o),
(282,-26,o),
(312,-26,cs),
(328,-26,o),
(344,-19,o),
(379,10,c),
(372,23,o),
(368,39,o),
(368,55,cs),
(368,83,o),
(377,114,o),
(388,147,cs)
);
},
{
closed = 1;
nodes = (
(162,612,o),
(186,616,o),
(204,620,c),
(261,614,o),
(283,578,o),
(283,541,cs,{
name = hr01;
}),
(283,493,o),
(248,440,o),
(185,440,cs),
(141,440,o),
(120,472,o),
(111,515,c),
(72,499,o),
(57,483,o),
(57,466,cs),
(57,424,o),
(105,381,o),
(171,381,cs),
(313,381,o),
(366,487,o),
(366,550,cs),
(366,602,o),
(340,640,o),
(287,658,c),
(334,691,o),
(358,735,o),
(358,771,cs),
(358,838,o),
(318,886,o),
(220,886,cs),
(122,886,o),
(90,837,o),
(90,810,cs),
(90,787,o),
(102,775,o),
(141,760,c),
(149,796,o),
(169,829,o),
(213,829,cs),
(254,829,o),
(276,797,o),
(276,763,cs),
(276,725,o),
(240,679,o),
(165,669,cs),
(140,665,o),
(134,663,o),
(134,635,cs),
(134,610,l)
);
},
{
closed = 1;
nodes = (
(744,466,o),
(730,474,o),
(708,474,cs),
(698,474,o),
(678,469,o),
(653,448,c),
(657,439,o),
(660,430,o),
(660,422,cs),
(660,320,o),
(565,170,o),
(495,94,c),
(504,75,o),
(518,62,o),
(537,62,cs),
(546,62,o),
(554,66,o),
(561,73,c),
(590,79,o),
(631,82,o),
(671,82,cs),
(707,82,l),
(705,67,o),
(704,53,o),
(704,38,cs,{
name = hr02;
}),
(704,-10,o),
(724,-25,o),
(754,-25,cs),
(765,-25,o),
(785,-20,o),
(807,1,c),
(788,19,o),
(783,31,o),
(783,46,cs),
(783,54,o),
(784,62,o),
(785,73,c),
(796,70,o),
(810,66,o),
(827,59,c),
(827,66,o),
(828,86,o),
(828,92,cs),
(828,117,o),
(818,131,o),
(797,139,c),
(801,159,o),
(804,178,o),
(804,191,cs,{
name = hr03;
}),
(804,228,o),
(788,240,o),
(760,240,cs),
(748,240,o),
(724,232,o),
(712,224,c),
(720,207,o),
(723,193,o),
(723,178,cs),
(723,168,o),
(722,158,o),
(720,147,c),
(689,146,o),
(649,142,o),
(609,133,c),
(683,235,o),
(744,363,o),
(744,429,cs)
);
}
);
width = 901;
}
);
unicode = 190;
},
{
glyphname = period;
layers = (
{
layerId = master01;
shapes = (
{
closed = 1;
nodes = (
(225,119,o),
(194,133,o),
(159,133,cs),
(133,133,o),
(107,124,o),
(79,106,c),
(74,79,o),
(71,57,o),
(71,41,cs),
(71,4,o),
(87,-14,o),
(133,-14,cs),
(157,-14,o),
(184,-4,o),
(212,14,c),
(221,42,o),
(225,66,o),
(225,83,cs,{
name = hr00;
})
);
}
);
width = 295;
}
);
unicode = 46;
},
{
glyphname = comma;
layers = (
{
layerId = master01;
shapes = (
{
closed = 1;
nodes = (
(25,-97,o),
(25,-103,o),
(25,-109,cs),
(25,-131,o),
(40,-137,o),
(59,-137,cs),
(156,-137,o),
(240,-33,o),
(240,61,cs),
(240,109,o),
(223,133,o),
(186,133,cs),
(151,133,o),
(124,121,o),
(92,96,c),
(115,77,o),
(125,46,o),
(125,16,cs),
(125,-37,o),
(94,-89,o),
(41,-89,cs),
(36,-89,o),
(31,-89,o),
(26,-88,c,{
name = hr00;
})
);
}
);
width = 319;
}
);
unicode = 44;
},
{
glyphname = colon;
layers = (
{
layerId = master01;
shapes = (
{
closed = 1;
nodes = (
(225,119,o),
(194,133,o),
(159,133,cs),
(133,133,o),
(107,124,o),
(79,106,c),
(74,79,o),
(71,57,o),
(71,41,cs),
(71,4,o),
(87,-14,o),
(133,-14,cs),
(157,-14,o),
(184,-4,o),
(212,14,c),
(221,42,o),
(225,66,o),
(225,83,cs,{
name = hr00;
})
);
},
{
closed = 1;
nodes = (
(250,635,o),
(219,649,o),
(184,649,cs),
(158,649,o),
(132,640,o),
(104,622,c),
(99,595,o),
(96,573,o),
(96,557,cs),
(96,520,o),
(112,502,o),
(158,502,cs),
(182,502,o),
(209,512,o),
(237,530,c),
(246,558,o),
(250,582,o),
(250,599,cs)
);
}
);
width = 295;
}
);
unicode = 58;
},
{
glyphname = semicolon;
layers = (
{
layerId = master01;
shapes = (
{
closed = 1;
nodes = (
(250,635,o),
(219,649,o),
(184,649,cs),
(158,649,o),
(132,640,o),
(104,622,c),
(99,595,o),
(96,573,o),
(96,557,cs),
(96,520,o),
(112,502,o),
(158,502,cs),
(182,502,o),
(209,512,o),
(237,530,c),
(246,558,o),
(250,582,o),
(250,599,cs,{
name = hr00;
})
);
},
{
closed = 1;
nodes = (
(6,-97,o),
(6,-103,o),
(6,-109,cs),
(6,-131,o),
(21,-137,o),
(40,-137,cs),
(137,-137,o),
(221,-33,o),
(221,61,cs),
(221,109,o),
(204,133,o),
(167,133,cs),
(132,133,o),
(105,121,o),
(73,96,c),
(96,77,o),
(106,46,o),
(106,16,cs),
(106,-37,o),
(75,-89,o),
(22,-89,cs),
(17,-89,o),
(12,-89,o),
(7,-88,c)
);
}
);
width = 295;
}
);
unicode = 59;
},
{
glyphname = ellipsis;
layers = (
{
layerId = master01;
shapes = (
{
closed = 1;
nodes = (
(225,119,o),
(194,133,o),
(159,133,cs),
(133,133,o),
(107,124,o),
(79,106,c),
(74,79,o),
(71,57,o),
(71,41,cs),
(71,4,o),
(87,-14,o),
(133,-14,cs),
(157,-14,o),
(184,-4,o),
(212,14,c),
(221,42,o),
(225,66,o),
(225,83,cs,{
name = hr00;
})
);
},
{
closed = 1;
nodes = (
(520,119,o),
(489,133,o),
(454,133,cs),
(429,133,o),
(402,124,o),
(374,106,c),
(369,79,o),
(366,57,o),
(366,41,cs),
(366,4,o),
(382,-14,o),
(429,-14,cs),
(453,-14,o),
(479,-4,o),
(508,14,c),
(516,42,o),
(520,66,o),
(520,83,cs)
);
},
{
closed = 1;
nodes = (
(815,119,o),
(785,133,o),
(750,133,cs),
(724,133,o),
(698,124,o),
(669,106,c),
(665,79,o),
(662,57,o),
(662,41,cs),
(662,4,o),
(678,-14,o),
(724,-14,cs),
(748,-14,o),
(775,-4,o),
(803,14,c),
(812,42,o),
(815,66,o),
(815,83,cs)
);
}
);
width = 886;
}
);
unicode = 8230;
},
{
glyphname = exclam;
layers = (
{
layerId = master01;
shapes = (
{
closed = 1;
nodes = (
(247,119,o),
(217,133,o),
(181,133,cs),
(156,133,o),
(130,124,o),
(101,106,c),
(96,79,o),
(93,57,o),
(93,41,cs),
(93,4,o),
(110,-14,o),
(156,-14,cs),
(180,-14,o),
(207,-4,o),
(235,14,c),
(243,42,o),
(247,66,o),
(247,83,cs)
);
},
{
closed = 1;
nodes = (
(315,860,o),
(290,887,o),
(243,887,cs),
(223,887,o),
(188,877,o),
(173,864,c),
(194,824,o),
(195,777,o),
(195,729,cs),
(195,614,o),
(153,311,o),
(153,283,cs,{
name = hr01;
}),
(153,254,o),
(169,242,o),
(188,242,cs),
(205,242,o),
(220,245,o),
(236,258,c),
(234,264,o),
(233,271,o),
(233,277,cs),
(233,370,o),
(315,681,o),
(315,781,cs)
);
}
);
width = 388;
}
);
unicode = 33;
},
{
glyphname = exclamdown;
layers = (
{
layerId = master01;
shapes = (
{
closed = 1;
nodes = (
(141,550,o),
(171,536,o),
(207,536,cs),
(232,536,o),
(258,545,o),
(287,563,c),
(292,590,o),
(295,612,o),
(295,628,cs),
(295,665,o),
(278,683,o),
(232,683,cs),
(208,683,o),
(181,673,o),
(153,655,c),
(145,627,o),
(141,603,o),
(141,586,cs)
);
},
{
closed = 1;
nodes = (
(73,-191,o),
(98,-218,o),
(145,-218,cs),
(165,-218,o),
(200,-208,o),
(215,-195,c),
(194,-155,o),
(193,-108,o),
(193,-60,cs),
(193,55,o),
(235,358,o),
(235,386,cs,{
name = hr01;
}),
(235,415,o),
(219,427,o),
(200,427,cs),
(183,427,o),
(168,424,o),
(152,411,c),
(154,405,o),
(155,398,o),
(155,392,cs),
(155,299,o),
(73,-12,o),
(73,-112,cs)
);
}
);
width = 388;
}
);
unicode = 161;
},
{
glyphname = question;
layers = (
{
layerId = master01;
shapes = (
{
closed = 1;
nodes = (
(484,815,o),
(396,887,o),
(251,887,cs),
(138,887,o),
(43,831,o),
(43,743,cs),
(43,703,o),
(74,669,o),
(124,647,c),
(124,750,o),
(156,817,o),
(245,817,cs),
(324,817,o),
(367,749,o),
(367,675,cs),
(367,551,o),
(231,344,o),
(171,267,c),
(180,249,o),
(194,237,o),
(215,237,cs),
(233,237,o),
(249,252,o),
(265,273,cs),
(353,383,o),
(484,566,o),
(484,692,cs,{
name = hr00;
})
);
},
{
closed = 1;
nodes = (
(279,119,o),
(249,133,o),
(213,133,cs),
(188,133,o),
(162,124,o),
(133,106,c),
(128,79,o),
(125,57,o),
(125,41,cs),
(125,4,o),
(142,-14,o),
(188,-14,cs),
(212,-14,o),
(239,-4,o),
(267,14,c),
(275,42,o),
(279,66,o),
(279,83,cs)
);
}
);
width = 496;
}
);
unicode = 63;
},
{
glyphname = questiondown;
layers = (
{
layerId = master01;
shapes = (
{
closed = 1;
nodes = (
(11,-145,o),
(99,-217,o),
(244,-217,cs),
(357,-217,o),
(452,-161,o),
(452,-73,cs),
(452,-33,o),
(421,1,o),
(371,23,c),
(371,-80,o),
(339,-147,o),
(250,-147,cs),
(171,-147,o),
(128,-79,o),
(128,-5,cs),
(128,119,o),
(264,326,o),
(324,403,c),
(315,421,o),
(301,433,o),
(280,433,cs),
(262,433,o),
(246,418,o),
(230,397,cs),
(142,287,o),
(11,104,o),
(11,-22,cs,{
name = hr00;
})
);
},
{
closed = 1;
nodes = (
(216,551,o),
(246,537,o),
(282,537,cs),
(307,537,o),
(333,546,o),
(362,564,c),
(367,591,o),
(370,613,o),
(370,629,cs),
(370,666,o),
(353,684,o),
(307,684,cs),
(283,684,o),
(256,674,o),
(228,656,c),
(220,628,o),
(216,604,o),
(216,587,cs)
);
}
);
width = 457;
}
);
unicode = 191;
},
{
glyphname = periodcentered;
layers = (
{
layerId = master01;
shapes = (
{
closed = 1;
nodes = (
(225,451,o),
(194,465,o),
(159,465,cs),
(133,465,o),
(107,456,o),
(79,438,c),
(74,411,o),
(71,389,o),
(71,373,cs),
(71,336,o),
(87,318,o),
(133,318,cs),
(157,318,o),
(184,328,o),
(212,346,c),
(221,374,o),
(225,398,o),
(225,415,cs,{
name = hr00;
})
);
}
);
width = 295;
}
);
unicode = 183;
},
{
glyphname = bullet;
layers = (
{
layerId = master01;
shapes = (
{
closed = 1;
nodes = (
(290,475,o),
(246,495,o),
(196,495,cs),
(159,495,o),
(122,482,o),
(83,457,c),
(76,418,o),
(72,387,o),
(72,364,cs),
(72,312,o),
(94,286,o),
(159,286,cs),
(193,286,o),
(232,300,o),
(271,326,c),
(284,366,o),
(290,400,o),
(290,424,cs,{
name = hr00;
})
);
}
);
width = 359;
}
);
unicode = 8226;
},
{
glyphname = asterisk;
layers = (
{
layerId = master01;
shapes = (
{
closed = 1;
nodes = (
(435,611,o),
(379,645,o),
(348,669,c),
(379,678,o),
(505,703,o),
(505,743,cs),
(505,773,o),
(466,805,o),
(442,813,c),
(415,779,o),
(357,750,o),
(321,734,c),
(332,782,o),
(350,828,o),
(350,868,cs),
(350,902,o),
(339,911,o),
(318,911,cs),
(282,911,o),
(256,898,o),
(244,887,c),
(252,858,o),
(255,826,o),
(255,794,cs),
(255,776,o),
(254,759,o),
(253,743,c),
(220,775,o),
(166,845,o),
(121,845,cs),
(89,845,o),
(81,775,o),
(81,753,c),
(125,746,o),
(175,713,o),
(210,689,c),
(180,680,o),
(53,656,o),
(53,615,cs),
(53,585,o),
(92,554,o),
(116,545,c),
(143,579,o),
(201,608,o),
(236,624,c),
(226,576,o),
(208,529,o),
(208,490,cs,{
name = hr01;
}),
(208,456,o),
(219,447,o),
(240,447,cs),
(276,447,o),
(302,460,o),
(314,471,c),
(304,493,o),
(302,523,o),
(302,553,cs),
(302,575,o),
(303,597,o),
(304,614,c),
(337,583,o),
(393,513,o),
(437,513,cs),
(469,513,o),
(477,583,o),
(477,605,c)
);
}
);
width = 480;
}
);
unicode = 42;
},
{
glyphname = numbersign;
layers = (
{
layerId = master01;
shapes = (
{
closed = 1;
nodes = (
(113,543,o),
(121,521,o),
(132,504,c),
(152,519,o),
(200,524,o),
(223,524,cs),
(229,524,l),
(199,344,l),
(171,345,o),
(148,346,o),
(134,346,cs),
(103,346,o),
(80,331,o),
(80,300,cs),
(80,269,o),
(88,247,o),
(99,230,c),
(117,243,o),
(158,249,o),
(183,250,c),
(175,197,o),
(170,152,o),
(170,121,cs),
(170,24,o),
(206,-6,o),
(255,-6,cs),
(275,-6,o),
(307,1,o),
(321,31,c),
(285,65,o),
(279,110,o),
(279,158,cs),
(279,186,o),
(280,217,o),
(283,249,c),
(342,249,o),
(416,247,o),
(483,247,c),
(475,196,o),
(470,152,o),
(470,121,cs),
(470,24,o),
(506,-6,o),
(555,-6,cs),
(575,-6,o),
(607,1,o),
(621,31,c),
(585,65,o),
(579,110,o),
(579,158,cs),
(579,185,o),
(580,215,o),
(583,246,c),
(631,246,ls),
(707,246,o),
(734,271,o),
(734,306,cs),
(734,324,o),
(731,341,o),
(719,359,c),
(697,349,o),
(645,343,o),
(594,339,c),
(603,399,o),
(614,461,o),
(625,520,c),
(664,520,ls),
(740,520,o),
(767,545,o),
(767,580,cs),
(767,598,o),
(764,615,o),
(752,633,c),
(732,624,o),
(688,618,o),
(642,614,c),
(655,687,o),
(665,749,o),
(665,790,cs,{
name = hr01;
}),
(665,862,o),
(643,886,o),
(601,886,cs),
(581,886,o),
(544,876,o),
(529,863,c),
(548,830,o),
(552,792,o),
(552,752,cs),
(552,711,o),
(547,661,o),
(541,609,c),
(529,609,ls),
(492,609,o),
(417,611,o),
(342,614,c),
(355,687,o),
(365,749,o),
(365,790,cs),
(365,862,o),
(343,886,o),
(301,886,cs),
(281,886,o),
(244,876,o),
(229,863,c),
(248,830,o),
(252,792,o),
(252,752,cs),
(252,713,o),
(248,667,o),
(242,618,c),
(210,619,o),
(183,620,o),
(167,620,cs),
(136,620,o),
(113,605,o),
(113,574,cs)
);
},
{
closed = 1;
nodes = (
(386,523,o),
(462,521,o),
(528,521,c),
(497,335,l),
(457,335,o),
(374,338,o),
(295,341,c),
(303,402,o),
(314,464,o),
(325,523,c)
);
}
);
width = 817;
}
);
unicode = 35;
},
{
glyphname = slash;
layers = (
{
layerId = master01;
shapes = (
{
closed = 1;
nodes = (
(185,126,o),
(234,520,o),
(312,753,cs),
(331,810,o),
(355,872,o),
(413,903,c),
(412,938,o),
(378,947,o),
(360,947,cs),
(317,947,o),
(273,911,o),
(233,798,cs),
(182,652,o),
(125,241,o),
(50,29,cs),
(34,-18,o),
(11,-60,o),
(-24,-101,c),
(-3,-123,o),
(21,-128,o),
(38,-128,cs),
(75,-128,o),
(106,-100,o),
(136,-14,cs,{
name = hr00;
})
);
}
);
width = 388;
}
);
unicode = 47;
},
{
glyphname = backslash;
layers = (
{
layerId = master01;
shapes = (
{
closed = 1;
nodes = (
(283,-100,o),
(314,-128,o),
(351,-128,cs),
(368,-128,o),
(392,-123,o),
(413,-101,c),
(378,-60,o),
(355,-18,o),
(339,29,cs),
(264,241,o),
(207,652,o),
(156,798,cs),
(116,911,o),
(72,947,o),
(29,947,cs),
(11,947,o),
(-23,938,o),
(-24,903,c),
(34,872,o),
(58,810,o),
(77,753,cs),
(155,520,o),
(204,126,o),
(253,-14,cs,{
name = hr00;
})
);
}
);
width = 388;
}
);
unicode = 92;
},
{
glyphname = hyphen;
layers = (
{
layerId = master01;
shapes = (
{
closed = 1;
nodes = (
(38,376,o),
(50,345,o),
(62,329,c),
(83,341,o),
(126,347,o),
(151,347,cs,{
name = hr01;
}),
(177,347,o),
(207,343,o),
(239,343,cs),
(317,343,o),
(344,368,o),
(344,403,cs),
(344,422,o),
(341,439,o),
(329,455,c),
(307,440,o),
(280,433,o),
(250,433,cs),
(210,433,o),
(137,444,o),
(101,444,cs),
(69,444,o),
(38,433,o),
(38,402,cs)
);
}
);
width = 351;
}
);
unicode = 45;
},
{
glyphname = endash;
layers = (
{
layerId = master01;
shapes = (
{
closed = 1;
nodes = (
(0,407,o),
(10,385,o),
(22,368,c),
(46,383,o),
(102,388,o),
(130,388,cs,{
name = hr01;
}),
(202,388,o),
(559,384,o),
(648,384,cs),
(738,384,o),
(770,409,o),
(770,444,cs),
(770,462,o),
(766,479,o),
(752,497,c),
(706,480,o),
(550,473,o),
(489,473,cs),
(405,473,o),
(139,484,o),
(64,484,cs),
(27,484,o),
(0,469,o),
(0,438,cs)
);
}
);
width = 769;
}
);
unicode = 8211;
},
{
glyphname = emdash;
layers = (
{
layerId = master01;
shapes = (
{
closed = 1;
nodes = (
(0,407,o),
(10,385,o),
(22,368,c),
(46,383,o),
(102,388,o),
(130,388,cs,{
name = hr01;
}),
(218,388,o),
(656,384,o),
(766,384,cs),
(855,384,o),
(887,409,o),
(887,444,cs),
(887,462,o),
(883,479,o),
(869,497,c),
(823,480,o),
(667,473,o),
(606,473,cs),
(500,473,o),
(159,484,o),
(64,484,cs),
(27,484,o),
(0,469,o),
(0,438,cs)
);
}
);
width = 886;
}
);
unicode = 8212;
},
{
glyphname = underscore;
layers = (
{
layerId = master01;
shapes = (
{
closed = 1;
nodes = (
(0,-61,o),
(9,-85,o),
(19,-100,c),
(42,-88,o),
(97,-83,o),
(125,-83,cs,{
name = hr01;
}),
(154,-83,o),
(298,-86,o),
(334,-86,cs),
(422,-86,o),
(452,-60,o),
(452,-30,cs),
(452,-14,o),
(450,6,o),
(437,21,c),
(412,7,o),
(327,0,o),
(293,0,cs),
(247,0,o),
(101,10,o),
(60,10,cs),
(24,10,o),
(0,-8,o),
(0,-35,cs)
);
}
);
width = 452;
}
);
unicode = 95;
},
{
glyphname = parenleft;
layers = (
{
layerId = master01;
shapes = (
{
closed = 1;
nodes = (
(478,911,o),
(463,928,o),
(442,928,cs),
(295,928,o),
(98,632,o),
(98,305,cs),
(98,76,o),
(186,-127,o),
(322,-127,cs),
(366,-127,o),
(398,-113,o),
(422,-53,c),
(278,-40,o),
(195,115,o),
(195,351,cs),
(195,548,o),
(282,800,o),
(487,876,c,{
name = hr00;
})
);
}
);
width = 407;
}
);
unicode = 40;
},
{
glyphname = parenright;
layers = (
{
layerId = master01;
shapes = (
{
closed = 1;
nodes = (
(-71,-111,o),
(-56,-128,o),
(-35,-128,cs),
(112,-128,o),
(309,168,o),
(309,495,cs),
(309,724,o),
(221,927,o),
(85,927,cs),
(41,927,o),
(9,913,o),
(-15,853,c),
(129,840,o),
(212,685,o),
(212,449,cs),
(212,252,o),
(125,0,o),
(-80,-76,c,{
name = hr00;
})
);
}
);
width = 407;
}
);
unicode = 41;
},
{
glyphname = braceleft;
layers = (
{
layerId = master01;
shapes = (
{
closed = 1;
nodes = (
(287,870,o),
(318,861,o),
(348,861,cs),
(401,861,o),
(452,888,o),
(452,970,c,{
name = hr01;
}),
(418,954,o),
(359,951,o),
(292,951,cs,{
name = hr02;
}),
(189,951,o),
(150,913,o),
(150,869,cs),
(150,816,o),
(165,763,o),
(165,696,cs,{
name = hr03;
}),
(165,567,o),
(123,477,o),
(46,422,c),
(50,405,o),
(59,391,o),
(70,391,cs),
(76,391,o),
(85,393,o),
(94,396,c),
(112,364,o),
(118,330,o),
(118,302,cs,{
name = hr04;
}),
(118,183,o),
(56,48,o),
(56,-49,cs,{
name = hr05;
}),
(56,-121,o),
(111,-126,o),
(172,-126,cs),
(217,-126,o),
(285,-119,o),
(310,-100,cs),
(334,-81,o),
(335,-63,o),
(335,-11,c),
(297,-31,o),
(193,-53,o),
(159,-53,c),
(159,95,o),
(200,151,o),
(200,291,cs,{
name = hr06;
}),
(200,338,o),
(178,393,o),
(145,424,c),
(156,432,o),
(166,441,o),
(174,449,cs),
(250,529,o),
(257,693,o),
(264,882,c)
);
}
);
width = 392;
}
);
unicode = 123;
},
{
glyphname = braceright;
layers = (
{
layerId = master01;
shapes = (
{
closed = 1;
nodes = (
(190,773,o),
(172,672,o),
(172,591,cs),
(172,531,o),
(182,483,o),
(207,449,cs),
(213,441,o),
(221,432,o),
(230,425,c),
(191,393,o),
(159,338,o),
(149,291,cs),
(117,151,o),
(146,95,o),
(118,-53,c),
(84,-53,o),
(-16,-31,o),
(-50,-11,c),
(-56,-36,o),
(-60,-53,o),
(-60,-67,cs),
(-60,-116,o),
(16,-126,o),
(89,-126,cs),
(173,-126,o),
(227,-117,o),
(227,30,cs),
(227,82,o),
(222,140,o),
(222,197,cs),
(222,261,o),
(222,330,o),
(275,397,c),
(284,393,o),
(292,391,o),
(299,391,cs),
(310,391,o),
(323,405,o),
(331,422,c),
(281,461,o),
(256,519,o),
(256,596,cs),
(256,724,o),
(320,844,o),
(320,882,cs),
(320,920,o),
(286,951,o),
(193,951,cs),
(126,951,o),
(67,954,o),
(37,970,c,{
name = hr01;
}),
(35,959,o),
(34,949,o),
(34,940,cs),
(34,881,o),
(75,861,o),
(121,861,cs,{
name = hr02;
}),
(151,861,o),
(182,870,o),
(209,882,c)
);
}
);
width = 392;
}
);
unicode = 125;
},
{
glyphname = bracketleft;
layers = (
{
layerId = master01;
shapes = (
{
closed = 1;
nodes = (
(47,-121,o),
(111,-126,o),
(172,-126,cs),
(217,-126,o),
(285,-119,o),
(310,-100,cs),
(334,-81,o),
(335,-63,o),
(335,-11,c),
(297,-31,o),
(193,-53,o),
(159,-53,c),
(159,210,o),
(264,746,o),
(264,882,c,{
name = hr01;
}),
(287,870,o),
(318,861,o),
(348,861,cs),
(401,861,o),
(452,888,o),
(452,970,c,{
name = hr02;
}),
(418,954,o),
(359,951,o),
(292,951,cs,{
name = hr03;
}),
(233,951,o),
(167,948,o),
(136,923,c),
(144,899,o),
(151,853,o),
(151,825,cs),
(151,633,o),
(47,92,o),
(47,-49,cs)
);
}
);
width = 392;
}
);
unicode = 91;
},
{
glyphname = bracketright;
layers = (
{
layerId = master01;
shapes = (
{
closed = 1;
nodes = (
(76,-40,o),
(-4,-24,o),
(-33,-9,c),
(-33,-61,o),
(-32,-79,o),
(-8,-98,cs),
(17,-117,o),
(63,-124,o),
(151,-124,cs),
(244,-124,o),
(269,76,o),
(278,295,cs),
(291,638,o),
(320,864,o),
(360,923,c),
(333,948,o),
(267,951,o),
(208,951,cs),
(141,951,o),
(82,954,o),
(56,970,c,{
name = hr01;
}),
(53,960,o),
(51,950,o),
(51,942,cs),
(51,882,o),
(89,861,o),
(136,861,cs,{
name = hr02;
}),
(166,861,o),
(201,870,o),
(228,882,c),
(184,729,o),
(196,134,o),
(127,-47,c)
);
}
);
width = 392;
}
);
unicode = 93;
},
{
glyphname = quotesinglbase;
layers = (
{
layerId = master01;
shapes = (
{
closed = 1;
nodes = (
(25,-97,o),
(25,-103,o),
(25,-109,cs),
(25,-131,o),
(40,-137,o),
(59,-137,cs),
(156,-137,o),
(240,-33,o),
(240,61,cs),
(240,109,o),
(223,133,o),
(186,133,cs),
(151,133,o),
(124,121,o),
(92,96,c),
(115,77,o),
(125,46,o),
(125,16,cs),
(125,-37,o),
(94,-89,o),
(41,-89,cs),
(36,-89,o),
(31,-89,o),
(26,-88,c,{
name = hr00;
})
);
}
);
width = 319;
}
);
unicode = 8218;
},
{
glyphname = quotedblbase;
layers = (
{
layerId = master01;
shapes = (
{
closed = 1;
nodes = (
(245,-97,o),
(245,-103,o),
(245,-109,cs),
(245,-131,o),
(260,-137,o),
(279,-137,cs),
(376,-137,o),
(460,-33,o),
(460,61,cs),
(460,109,o),
(443,133,o),
(406,133,cs),
(371,133,o),
(344,121,o),
(312,96,c),
(335,77,o),
(345,46,o),
(345,16,cs),
(345,-37,o),
(314,-89,o),
(261,-89,cs),
(256,-89,o),
(251,-89,o),
(246,-88,c,{
name = hr00;
})
);
},
{
closed = 1;
nodes = (
(25,-97,o),
(25,-103,o),
(25,-109,cs),
(25,-131,o),
(40,-137,o),
(59,-137,cs),
(156,-137,o),
(240,-33,o),
(240,61,cs),
(240,109,o),
(223,133,o),
(186,133,cs),
(151,133,o),
(124,121,o),
(92,96,c),
(115,77,o),
(125,46,o),
(125,16,cs),
(125,-37,o),
(94,-89,o),
(41,-89,cs),
(36,-89,o),
(31,-89,o),
(26,-88,c)
);
}
);
width = 539;
}
);
unicode = 8222;
},
{
glyphname = quotedblleft;
layers = (
{
layerId = master01;
shapes = (
{
closed = 1;
nodes = (
(533,855,o),
(533,861,o),
(533,867,cs),
(533,889,o),
(518,895,o),
(499,895,cs),
(402,895,o),
(318,791,o),
(318,697,cs),
(318,649,o),
(335,625,o),
(372,625,cs),
(407,625,o),
(434,637,o),
(466,662,c),
(443,681,o),
(433,712,o),
(433,742,cs),
(433,795,o),
(464,847,o),
(517,847,cs),
(522,847,o),
(527,847,o),
(532,846,c,{
name = hr00;
})
);
},
{
closed = 1;
nodes = (
(313,855,o),
(313,861,o),
(313,867,cs),
(313,889,o),
(298,895,o),
(279,895,cs),
(182,895,o),
(98,791,o),
(98,697,cs),
(98,649,o),
(115,625,o),
(152,625,cs),
(187,625,o),
(214,637,o),
(246,662,c),
(223,681,o),
(213,712,o),
(213,742,cs),
(213,795,o),
(244,847,o),
(297,847,cs),
(302,847,o),
(307,847,o),
(312,846,c)
);
}
);
width = 489;
}
);
unicode = 8220;
},
{
glyphname = quotedblright;
layers = (
{
layerId = master01;
shapes = (
{
closed = 1;
nodes = (
(293,665,o),
(293,659,o),
(293,653,cs),
(293,631,o),
(308,625,o),
(327,625,cs),
(424,625,o),
(508,729,o),
(508,823,cs),
(508,871,o),
(491,895,o),
(454,895,cs),
(419,895,o),
(392,883,o),
(360,858,c),
(383,839,o),
(393,808,o),
(393,778,cs),
(393,725,o),
(362,673,o),
(309,673,cs),
(304,673,o),
(299,673,o),
(294,674,c,{
name = hr00;
})
);
},
{
closed = 1;
nodes = (
(73,665,o),
(73,659,o),
(73,653,cs),
(73,631,o),
(88,625,o),
(107,625,cs),
(204,625,o),
(288,729,o),
(288,823,cs),
(288,871,o),
(271,895,o),
(234,895,cs),
(199,895,o),
(172,883,o),
(140,858,c),
(163,839,o),
(173,808,o),
(173,778,cs),
(173,725,o),
(142,673,o),
(89,673,cs),
(84,673,o),
(79,673,o),
(74,674,c)
);
}
);
width = 489;
}
);
unicode = 8221;
},
{
glyphname = quoteleft;
layers = (
{
layerId = master01;
shapes = (
{
closed = 1;
nodes = (
(313,855,o),
(313,861,o),
(313,867,cs),
(313,889,o),
(298,895,o),
(279,895,cs),
(182,895,o),
(98,791,o),
(98,697,cs),
(98,649,o),
(115,625,o),
(152,625,cs),
(187,625,o),
(214,637,o),
(246,662,c),
(223,681,o),
(213,712,o),
(213,742,cs),
(213,795,o),
(244,847,o),
(297,847,cs),
(302,847,o),
(307,847,o),
(312,846,c,{
name = hr00;
})
);
}
);
width = 269;
}
);
unicode = 8216;
},
{
glyphname = quoteright;
layers = (
{
layerId = master01;
shapes = (
{
closed = 1;
nodes = (
(73,665,o),
(73,659,o),
(73,653,cs),
(73,631,o),
(88,625,o),
(107,625,cs),
(204,625,o),
(288,729,o),
(288,823,cs),
(288,871,o),
(271,895,o),
(234,895,cs),
(199,895,o),
(172,883,o),
(140,858,c),
(163,839,o),
(173,808,o),
(173,778,cs),
(173,725,o),
(142,673,o),
(89,673,cs),
(84,673,o),
(79,673,o),
(74,674,c,{
name = hr00;
})
);
}
);
width = 269;
}
);
unicode = 8217;
},
{
glyphname = guillemotleft;
layers = (
{
layerId = master01;
shapes = (
{
closed = 1;
nodes = (
(162,311,o),
(35,104,o),
(176,104,cs),
(193,104,o),
(227,110,o),
(239,120,c),
(153,167,o),
(219,311,o),
(142,354,c),
(223,398,o),
(183,541,o),
(275,588,c),
(263,598,o),
(229,604,o),
(212,604,cs),
(71,604,o),
(166,397,o),
(40,354,c,{
name = hr00;
})
);
},
{
closed = 1;
nodes = (
(362,311,o),
(235,104,o),
(376,104,cs),
(393,104,o),
(427,110,o),
(439,120,c),
(353,167,o),
(419,311,o),
(342,354,c),
(423,398,o),
(383,541,o),
(475,588,c),
(463,598,o),
(429,604,o),
(412,604,cs),
(271,604,o),
(366,397,o),
(240,354,c)
);
}
);
width = 513;
}
);
unicode = 171;
},
{
glyphname = guillemotright;
layers = (
{
layerId = master01;
shapes = (
{
closed = 1;
nodes = (
(351,397,o),
(478,604,o),
(337,604,cs),
(320,604,o),
(286,598,o),
(274,588,c),
(360,541,o),
(294,397,o),
(371,354,c),
(290,310,o),
(330,167,o),
(238,120,c),
(250,110,o),
(284,104,o),
(301,104,cs),
(442,104,o),
(347,311,o),
(473,354,c,{
name = hr00;
})
);
},
{
closed = 1;
nodes = (
(151,397,o),
(278,604,o),
(137,604,cs),
(120,604,o),
(86,598,o),
(74,588,c),
(160,541,o),
(94,397,o),
(171,354,c),
(90,310,o),
(130,167,o),
(38,120,c),
(50,110,o),
(84,104,o),
(101,104,cs),
(242,104,o),
(147,311,o),
(273,354,c)
);
}
);
width = 513;
}
);
unicode = 187;
},
{
glyphname = guilsinglleft;
layers = (
{
layerId = master01;
shapes = (
{
closed = 1;
nodes = (
(162,311,o),
(35,104,o),
(176,104,cs),
(193,104,o),
(227,110,o),
(239,120,c),
(153,167,o),
(219,311,o),
(142,354,c),
(223,398,o),
(183,541,o),
(275,588,c),
(263,598,o),
(229,604,o),
(212,604,cs),
(71,604,o),
(166,397,o),
(40,354,c,{
name = hr00;
})
);
}
);
width = 313;
}
);
unicode = 8249;
},
{
glyphname = guilsinglright;
layers = (
{
layerId = master01;
shapes = (
{
closed = 1;
nodes = (
(151,397,o),
(278,604,o),
(137,604,cs),
(120,604,o),
(86,598,o),
(74,588,c),
(160,541,o),
(94,397,o),
(171,354,c),
(90,310,o),
(130,167,o),
(38,120,c),
(50,110,o),
(84,104,o),
(101,104,cs),
(242,104,o),
(147,311,o),
(273,354,c,{
name = hr00;
})
);
}
);
width = 313;
}
);
unicode = 8250;
},
{
glyphname = quotedbl;
layers = (
{
layerId = master01;
shapes = (
{
closed = 1;
nodes = (
(232,897,o),
(221,910,o),
(200,910,cs,{
name = hr01;
}),
(163,910,o),
(139,898,o),
(126,887,c),
(133,872,o),
(134,854,o),
(134,835,cs),
(134,801,o),
(115,748,o),
(115,693,cs,{
name = hr02;
}),
(115,648,o),
(136,633,o),
(161,633,cs),
(179,633,o),
(195,636,o),
(212,647,c),
(203,664,o),
(200,682,o),
(200,703,cs),
(200,745,o),
(232,827,o),
(232,863,cs)
);
},
{
closed = 1;
nodes = (
(401,897,o),
(390,910,o),
(369,910,cs,{
name = hr04;
}),
(333,910,o),
(308,898,o),
(295,887,c),
(302,872,o),
(304,854,o),
(304,835,cs),
(304,801,o),
(284,748,o),
(284,693,cs,{
name = hr05;
}),
(284,649,o),
(305,633,o),
(330,633,cs),
(348,633,o),
(364,636,o),
(381,647,c),
(373,664,o),
(369,682,o),
(369,703,cs),
(369,745,o),
(401,827,o),
(401,863,cs)
);
}
);
width = 396;
}
);
unicode = 34;
},
{
glyphname = quotesingle;
layers = (
{
layerId = master01;
shapes = (
{
closed = 1;
nodes = (
(232,897,o),
(221,910,o),
(200,910,cs,{
name = hr01;
}),
(164,910,o),
(139,898,o),
(126,887,c),
(133,872,o),
(135,854,o),
(135,835,cs),
(135,801,o),
(115,748,o),
(115,693,cs,{
name = hr02;
}),
(115,649,o),
(136,633,o),
(161,633,cs),
(179,633,o),
(195,636,o),
(212,647,c),
(204,664,o),
(200,682,o),
(200,703,cs),
(200,745,o),
(232,827,o),
(232,863,cs)
);
}
);
width = 228;
}
);
unicode = 39;
},
{
glyphname = florin;
layers = (
{
layerId = master01;
shapes = (
{
closed = 1;
nodes = (
(19,411,o),
(28,392,o),
(38,376,c),
(59,389,o),
(107,394,o),
(132,394,cs),
(150,394,l),
(150,335,ls),
(150,23,o),
(137,-180,o),
(8,-180,cs),
(-38,-180,o),
(-70,-160,o),
(-92,-102,c),
(-105,-112,o),
(-124,-132,o),
(-124,-169,cs),
(-124,-227,o),
(-78,-263,o),
(1,-263,cs),
(89,-263,o),
(191,-201,o),
(229,-23,cs),
(248,69,o),
(255,200,o),
(256,325,cs),
(256,391,l),
(317,391,ls),
(395,391,o),
(423,412,o),
(423,442,cs),
(423,458,o),
(420,473,o),
(408,488,c),
(385,474,o),
(310,467,o),
(280,467,cs),
(257,467,l),
(260,682,o),
(277,803,o),
(372,803,cs),
(428,803,o),
(474,762,o),
(503,704,c),
(516,717,o),
(535,741,o),
(535,778,cs),
(535,837,o),
(469,886,o),
(390,886,cs),
(199,886,o),
(160,670,o),
(152,474,c),
(119,476,o),
(89,478,o),
(75,478,cs),
(43,478,o),
(19,464,o),
(19,437,cs,{
name = hr00;
})
);
}
);
width = 465;
}
);
unicode = 402;
},
{
glyphname = apple;
layers = (
{
layerId = master01;
shapes = (
{
closed = 1;
nodes = (
(579,-88,o),
(583,-88,o),
(586,-88,cs),
(594,-88,o),
(601,-89,o),
(609,-89,cs),
(635,-89,o),
(637,-70,o),
(654,-60,cs),
(669,-52,o),
(690,-51,o),
(703,-42,cs),
(716,-33,o),
(721,-11,o),
(733,1,cs),
(743,11,o),
(759,12,o),
(768,23,cs),
(779,36,o),
(778,60,o),
(786,74,cs),
(796,91,o),
(820,92,o),
(820,120,cs),
(820,130,o),
(818,141,o),
(818,152,cs),
(818,177,o),
(840,180,o),
(843,200,c),
(843,214,o),
(832,229,o),
(832,244,cs,{
name = hr01;
}),
(832,257,o),
(843,269,o),
(843,283,cs),
(843,305,o),
(819,319,o),
(819,344,cs),
(819,352,o),
(820,360,o),
(820,369,cs,{
name = hr02;
}),
(820,397,o),
(795,400,o),
(784,418,cs),
(778,428,o),
(783,450,o),
(777,460,cs),
(766,479,o),
(740,483,o),
(726,496,cs),
(714,508,o),
(716,526,o),
(703,535,cs),
(689,545,o),
(673,542,o),
(658,550,cs),
(639,560,o),
(637,586,o),
(610,586,cs),
(600,586,o),
(590,583,o),
(582,583,cs),
(558,583,o),
(551,608,o),
(525,608,cs,{
name = hr03;
}),
(511,608,o),
(494,596,o),
(480,596,cs),
(467,596,o),
(449,608,o),
(436,608,cs),
(414,608,o),
(406,585,o),
(381,585,cs),
(372,585,o),
(363,587,o),
(355,587,cs),
(330,586,o),
(323,558,o),
(306,549,cs),
(290,541,o),
(268,543,o),
(255,532,cs),
(244,522,o),
(240,501,o),
(230,491,cs),
(219,480,o),
(198,480,o),
(190,467,cs),
(183,456,o),
(186,435,o),
(179,424,cs),
(169,407,o),
(144,401,o),
(144,376,cs),
(144,368,o),
(145,359,o),
(145,351,cs),
(145,332,o),
(120,311,o),
(120,290,cs,{
name = hr04;
}),
(120,275,o),
(132,265,o),
(132,248,cs,{
name = hr05;
}),
(132,233,o),
(120,218,o),
(120,204,cs,{
name = hr06;
}),
(120,183,o),
(145,168,o),
(145,149,cs),
(145,141,o),
(142,133,o),
(142,124,cs),
(142,98,o),
(168,87,o),
(176,75,cs),
(187,57,o),
(180,46,o),
(191,28,cs),
(201,12,o),
(217,15,o),
(230,4,cs),
(243,-7,o),
(242,-31,o),
(260,-42,cs),
(276,-52,o),
(283,-43,o),
(306,-55,cs),
(319,-62,o),
(331,-91,o),
(357,-91,cs),
(364,-91,o),
(373,-89,o),
(381,-89,cs),
(405,-89,o),
(416,-114,o),
(436,-114,cs,{
name = hr07;
}),
(451,-114,o),
(466,-102,o),
(482,-102,cs,{
name = hr08;
}),
(497,-102,o),
(513,-112,o),
(528,-112,cs),
(545,-112,o),
(558,-94,o),
(576,-89,cs)
);
},
{
closed = 1;
nodes = (
(537,0,o),
(527,-13,o),
(515,-13,cs,{
name = hr10;
}),
(504,-13,o),
(493,-6,o),
(482,-6,cs),
(470,-6,o),
(458,-15,o),
(446,-15,c,{
name = hr11;
}),
(432,-13,o),
(425,3,o),
(406,3,cs,{
name = hr12;
}),
(401,3,o),
(396,2,o),
(391,2,cs),
(372,2,o),
(365,23,o),
(354,28,cs),
(337,37,o),
(332,29,o),
(321,37,cs),
(308,45,o),
(309,63,o),
(299,71,cs),
(290,79,o),
(278,77,o),
(271,88,cs),
(263,101,o),
(268,110,o),
(260,123,cs),
(255,132,o),
(235,139,o),
(235,158,cs),
(235,163,o),
(237,169,o),
(237,174,cs),
(237,189,o),
(220,200,o),
(220,215,cs,{
name = hr13;
}),
(220,226,o),
(228,237,o),
(228,248,cs),
(228,260,o),
(220,267,o),
(220,278,cs),
(220,294,o),
(237,308,o),
(237,324,cs),
(237,329,o),
(236,335,o),
(236,340,cs),
(236,359,o),
(255,363,o),
(262,376,cs),
(267,384,o),
(265,399,o),
(270,407,cs),
(277,416,o),
(291,416,o),
(299,424,cs),
(307,432,o),
(309,447,o),
(318,454,cs),
(327,462,o),
(343,460,o),
(354,466,cs),
(367,472,o),
(371,493,o),
(390,493,cs),
(396,493,o),
(401,492,o),
(407,492,cs),
(426,492,o),
(433,509,o),
(449,509,cs,{
name = hr14;
}),
(459,509,o),
(471,500,o),
(481,500,cs),
(491,500,o),
(503,509,o),
(514,509,cs),
(533,509,o),
(536,491,o),
(555,491,cs),
(561,491,o),
(568,493,o),
(575,493,cs,{
name = hr15;
}),
(595,493,o),
(596,474,o),
(609,467,cs),
(621,460,o),
(632,464,o),
(642,456,cs),
(652,449,o),
(650,436,o),
(659,428,cs),
(669,418,o),
(688,415,o),
(696,402,cs),
(700,394,o),
(697,379,o),
(701,371,cs),
(709,357,o),
(727,356,o),
(727,335,cs),
(727,329,o),
(726,323,o),
(726,318,cs),
(726,300,o),
(744,289,o),
(744,273,cs,{
name = hr16;
}),
(744,264,o),
(736,254,o),
(736,245,cs),
(736,234,o),
(744,223,o),
(744,213,c),
(741,199,o),
(726,196,o),
(726,177,cs),
(726,171,o),
(727,164,o),
(727,157,cs,{
name = hr17;
}),
(727,133,o),
(711,136,o),
(703,122,cs),
(697,111,o),
(697,94,o),
(690,84,cs),
(683,76,o),
(671,76,o),
(664,68,cs),
(656,60,o),
(652,45,o),
(642,38,cs),
(633,31,o),
(617,30,o),
(607,24,c),
(595,19,o),
(594,3,o),
(574,3,cs),
(569,3,o),
(564,4,o),
(559,4,cs),
(556,4,o),
(553,4,o),
(550,3,cs)
);
},
{
closed = 1;
nodes = (
(388,417,o),
(312,341,o),
(312,247,cs),
(312,153,o),
(388,77,o),
(482,77,cs),
(576,77,o),
(652,153,o),
(652,247,cs),
(652,341,o),
(576,417,o),
(482,417,cs)
);
},
{
closed = 1;
nodes = (
(525,117,l),
(440,117,l),
(440,292,l),
(386,292,l,{
name = hr18;
}),
(386,360,l),
(577,360,l,{
name = hr19;
}),
(577,292,l),
(525,292,l)
);
}
);
width = 963;
}
);
unicode = 63743;
},
{
glyphname = at;
layers = (
{
layerId = master01;
shapes = (
{
closed = 1;
nodes = (
(721,198,o),
(721,286,o),
(721,373,cs),
(721,476,o),
(736,606,o),
(754,654,c),
(738,673,o),
(724,680,o),
(706,680,cs),
(683,680,o),
(670,670,o),
(662,645,c),
(635,672,o),
(600,687,o),
(561,687,cs,{
name = hr01;
}),
(436,687,o),
(329,539,o),
(329,350,cs),
(329,230,o),
(382,158,o),
(454,158,cs),
(506,158,o),
(577,244,o),
(628,364,c),
(628,226,o),
(645,130,o),
(783,130,cs,{
name = hr02;
}),
(948,130,o),
(1042,326,o),
(1042,510,cs),
(1042,778,o),
(889,929,o),
(613,929,cs),
(301,929,o),
(73,662,o),
(73,354,cs),
(73,51,o),
(219,-101,o),
(504,-101,cs),
(655,-101,o),
(839,-60,o),
(839,-12,cs),
(839,15,o),
(826,40,o),
(809,63,c),
(720,8,o),
(618,-33,o),
(504,-33,cs),
(283,-33,o),
(176,98,o),
(176,358,cs),
(176,625,o),
(338,861,o),
(591,861,cs),
(830,861,o),
(940,732,o),
(940,479,cs),
(940,300,o),
(872,198,o),
(788,198,cs)
);
},
{
closed = 1;
nodes = (
(448,250,o),
(430,295,o),
(430,368,cs),
(430,517,o),
(485,622,o),
(564,622,cs),
(591,622,o),
(621,610,o),
(651,587,c),
(635,452,o),
(531,250,o),
(479,250,cs,{
name = hr03;
})
);
}
);
width = 1116;
}
);
unicode = 64;
},
{
glyphname = ampersand;
layers = (
{
layerId = master01;
shapes = (
{
closed = 1;
nodes = (
(451,467,o),
(455,480,o),
(455,494,cs),
(455,516,o),
(445,519,o),
(416,522,cs),
(273,538,o),
(247,618,o),
(247,691,cs),
(247,752,o),
(296,827,o),
(389,827,cs),
(482,827,o),
(515,757,o),
(529,692,c),
(583,713,o),
(604,731,o),
(604,769,cs),
(604,815,o),
(555,887,o),
(395,887,cs),
(222,887,o),
(142,791,o),
(142,689,cs),
(142,605,o),
(184,525,o),
(311,484,c),
(172,434,o),
(91,331,o),
(91,215,cs,{
name = hr01;
}),
(91,113,o),
(154,-19,o),
(339,-19,cs),
(489,-19,o),
(643,81,o),
(643,266,cs),
(643,290,o),
(640,315,o),
(635,342,c),
(704,366,o),
(757,397,o),
(757,451,cs),
(757,466,o),
(754,484,o),
(748,506,c),
(662,379,o),
(325,400,o),
(325,260,cs),
(325,245,o),
(328,218,o),
(334,200,c),
(366,259,o),
(457,287,o),
(547,314,c),
(552,293,o),
(554,274,o),
(554,255,cs),
(554,139,o),
(467,55,o),
(354,55,cs),
(260,55,o),
(202,133,o),
(202,221,cs),
(202,319,o),
(273,429,o),
(448,459,c)
);
}
);
width = 777;
}
);
unicode = 38;
},
{
glyphname = paragraph;
layers = (
{
layerId = master01;
shapes = (
{
closed = 1;
nodes = (
(463,884,o),
(421,890,o),
(381,890,cs),
(161,890,o),
(35,724,o),
(35,581,cs),
(35,472,o),
(106,369,o),
(263,369,cs),
(276,369,o),
(288,369,o),
(301,371,c),
(286,218,o),
(269,57,o),
(251,-31,cs),
(241,-82,o),
(221,-139,o),
(165,-158,c),
(166,-187,o),
(196,-204,o),
(226,-204,cs),
(255,-204,o),
(316,-196,o),
(341,-72,cs),
(355,-1,o),
(374,203,o),
(394,394,c),
(490,433,o),
(547,504,o),
(547,531,cs),
(547,558,o),
(533,572,o),
(492,588,c),
(481,558,o),
(448,517,o),
(404,486,c),
(416,586,o),
(427,676,o),
(438,730,cs),
(448,778,o),
(458,825,o),
(489,864,c,{
name = hr00;
})
);
},
{
closed = 1;
nodes = (
(330,701,o),
(320,581,o),
(307,441,c),
(298,440,o),
(289,439,o),
(280,439,cs),
(185,439,o),
(140,520,o),
(140,602,cs),
(140,713,o),
(218,823,o),
(377,833,c),
(357,811,o),
(344,778,o),
(336,733,cs)
);
}
);
width = 567;
}
);
unicode = 182;
},
{
glyphname = section;
layers = (
{
layerId = master01;
shapes = (
{
closed = 1;
nodes = (
(481,667,o),
(530,690,o),
(530,773,cs),
(530,842,o),
(469,889,o),
(385,889,cs),
(223,889,o),
(97,799,o),
(97,637,cs),
(97,552,o),
(153,499,o),
(211,447,cs),
(475,210,l),
(475,318,o),
(464,354,o),
(402,410,cs),
(275,524,ls),
(238,557,o),
(192,585,o),
(192,665,cs),
(192,763,o),
(254,815,o),
(329,815,cs),
(411,815,o),
(463,758,o),
(463,654,c)
);
},
{
closed = 1;
nodes = (
(112,302,o),
(123,266,o),
(185,210,cs),
(312,96,ls),
(362,51,o),
(386,-8,o),
(386,-64,cs,{
name = hr01;
}),
(386,-168,o),
(301,-208,o),
(230,-208,cs),
(129,-208,o),
(59,-152,o),
(39,-30,c),
(10,-61,o),
(-20,-95,o),
(-20,-140,cs),
(-20,-232,o),
(91,-274,o),
(200,-274,cs),
(371,-274,o),
(488,-162,o),
(488,-25,cs),
(488,67,o),
(439,116,o),
(376,173,cs),
(112,410,l)
);
}
);
width = 563;
}
);
unicode = 167;
},
{
glyphname = copyright;
layers = (
{
layerId = master01;
shapes = (
{
closed = 1;
nodes = (
(296,822,o),
(230,668,o),
(230,540,cs),
(230,438,o),
(273,356,o),
(379,356,cs),
(438,356,o),
(495,393,o),
(495,430,cs),
(495,444,o),
(487,460,o),
(474,475,c),
(458,426,o),
(428,402,o),
(393,402,cs),
(326,402,o),
(294,460,o),
(294,564,cs),
(294,624,o),
(314,774,o),
(402,774,cs),
(441,774,o),
(463,749,o),
(479,713,c),
(492,724,o),
(512,741,o),
(512,770,cs),
(512,805,o),
(475,822,o),
(428,822,cs,{
name = hr00;
})
);
},
{
closed = 1;
nodes = (
(635,526,o),
(559,267,o),
(357,267,cs),
(209,267,o),
(145,359,o),
(145,541,cs),
(145,645,o),
(220,904,o),
(421,904,cs),
(568,904,o),
(635,812,o),
(635,630,cs)
);
},
{
closed = 1;
nodes = (
(587,210,o),
(713,463,o),
(713,664,cs),
(713,824,o),
(625,962,o),
(454,962,cs),
(193,962,o),
(67,708,o),
(67,507,cs),
(67,347,o),
(155,210,o),
(326,210,cs)
);
}
);
width = 780;
}
);
unicode = 169;
},
{
glyphname = registered;
layers = (
{
layerId = master01;
shapes = (
{
closed = 1;
nodes = (
(522,795,o),
(461,816,o),
(389,816,cs),
(352,816,o),
(308,810,o),
(271,803,c),
(275,788,o),
(279,764,o),
(279,749,cs),
(279,639,o),
(241,508,o),
(241,428,cs,{
name = hr01;
}),
(241,373,o),
(258,356,o),
(285,356,cs),
(294,356,o),
(310,361,o),
(326,379,c),
(308,399,o),
(305,423,o),
(305,448,cs),
(305,471,o),
(308,502,o),
(313,534,c),
(324,537,o),
(336,540,o),
(347,544,c),
(386,467,o),
(413,408,o),
(425,390,cs),
(446,359,o),
(463,355,o),
(478,355,cs),
(489,355,o),
(517,363,o),
(522,407,c),
(499,409,o),
(478,425,o),
(466,443,c),
(449,465,o),
(428,508,o),
(401,565,c),
(464,594,o),
(522,642,o),
(522,713,cs)
);
},
{
closed = 1;
nodes = (
(337,687,o),
(345,742,o),
(346,775,c,{
name = hr02;
}),
(358,776,o),
(366,777,o),
(376,777,cs),
(423,777,o),
(460,757,o),
(460,703,cs),
(460,631,o),
(388,594,o),
(319,578,c)
);
},
{
closed = 1;
nodes = (
(635,526,o),
(559,267,o),
(357,267,cs),
(209,267,o),
(145,359,o),
(145,541,cs),
(145,645,o),
(220,904,o),
(421,904,cs),
(568,904,o),
(635,812,o),
(635,630,cs)
);
},
{
closed = 1;
nodes = (
(587,210,o),
(713,463,o),
(713,664,cs),
(713,824,o),
(625,962,o),
(454,962,cs),
(193,962,o),
(67,708,o),
(67,507,cs),
(67,347,o),
(155,210,o),
(326,210,cs)
);
}
);
width = 780;
}
);
unicode = 174;
},
{
glyphname = trademark;
layers = (
{
layerId = master01;
shapes = (
{
closed = 1;
nodes = (
(856,656,o),
(901,801,o),
(901,894,cs,{
name = hr01;
}),
(901,946,o),
(885,963,o),
(854,963,cs),
(825,963,o),
(803,953,o),
(793,945,c),
(793,907,o),
(757,831,o),
(721,757,cs),
(702,717,o),
(685,680,o),
(672,649,c),
(647,733,o),
(635,812,o),
(615,887,cs),
(598,951,o),
(565,963,o),
(531,963,cs),
(508,963,o),
(490,955,o),
(479,946,c,{
name = hr02;
}),
(492,920,o),
(493,892,o),
(493,864,cs),
(493,811,o),
(481,732,o),
(469,659,cs),
(459,597,o),
(450,540,o),
(450,506,cs),
(450,441,o),
(472,421,o),
(501,421,cs),
(512,421,o),
(531,427,o),
(541,451,c),
(520,474,o),
(516,501,o),
(516,530,cs),
(516,631,o),
(544,725,o),
(555,820,c),
(574,751,o),
(582,696,o),
(596,643,cs),
(618,560,o),
(634,548,o),
(671,548,cs),
(691,548,o),
(712,556,o),
(720,566,c),
(718,573,o),
(717,581,o),
(717,581,cs),
(717,649,o),
(784,767,o),
(820,839,c),
(817,786,o),
(806,718,o),
(796,657,cs),
(786,596,o),
(777,539,o),
(777,506,cs,{
name = hr03;
}),
(777,441,o),
(799,421,o),
(830,421,cs),
(841,421,o),
(861,427,o),
(881,449,c),
(859,473,o),
(856,501,o),
(856,530,cs)
);
},
{
closed = 1;
nodes = (
(126,952,o),
(104,937,o),
(100,869,c),
(143,885,o),
(173,891,o),
(236,891,c),
(236,817,o),
(223,736,o),
(211,661,cs),
(201,598,o),
(193,540,o),
(193,506,cs,{
name = hr04;
}),
(193,441,o),
(213,421,o),
(245,421,cs),
(256,421,o),
(275,427,o),
(295,449,c),
(273,473,o),
(270,501,o),
(270,530,cs),
(270,635,o),
(309,772,o),
(317,891,c,{
name = hr05;
}),
(375,885,o),
(392,884,o),
(401,884,cs),
(441,884,o),
(462,896,o),
(466,966,c,{
name = hr06;
}),
(444,953,o),
(414,950,o),
(385,950,cs,{
name = hr07;
}),
(292,950,o),
(229,952,o),
(166,952,cs)
);
}
);
width = 963;
}
);
unicode = 8482;
},
{
glyphname = degree;
layers = (
{
layerId = master01;
shapes = (
{
closed = 1;
nodes = (
(274,919,o),
(298,885,o),
(298,817,cs),
(298,761,o),
(280,648,o),
(215,648,cs),
(173,648,o),
(149,682,o),
(149,749,cs),
(149,807,o),
(166,919,o),
(231,919,cs,{
name = hr00;
})
);
},
{
closed = 1;
nodes = (
(159,974,o),
(60,894,o),
(60,756,cs),
(60,616,o),
(170,592,o),
(201,592,cs),
(292,592,o),
(391,672,o),
(391,812,cs),
(391,951,o),
(281,974,o),
(251,974,cs)
);
}
);
width = 391;
}
);
unicode = 176;
},
{
glyphname = bar;
layers = (
{
layerId = master01;
shapes = (
{
closed = 1;
nodes = (
(287,918,o),
(267,947,o),
(230,947,cs),
(213,947,o),
(180,935,o),
(167,919,c),
(184,881,o),
(187,836,o),
(187,789,cs),
(187,578,o),
(98,167,o),
(98,21,cs,{
name = hr01;
}),
(98,-93,o),
(129,-128,o),
(172,-128,cs),
(190,-128,o),
(218,-120,o),
(230,-85,c),
(199,-45,o),
(193,8,o),
(193,65,cs),
(193,297,o),
(287,692,o),
(287,833,cs)
);
}
);
width = 346;
}
);
unicode = 124;
},
{
glyphname = brokenbar;
layers = (
{
layerId = master01;
shapes = (
{
closed = 1;
nodes = (
(287,918,o),
(267,947,o),
(230,947,cs),
(213,947,o),
(180,935,o),
(167,919,c),
(184,881,o),
(187,836,o),
(187,789,cs),
(187,680,o),
(172,612,o),
(172,590,cs,{
name = hr01;
}),
(172,538,o),
(220,533,o),
(248,533,c),
(265,642,o),
(287,737,o),
(287,845,cs)
);
},
{
closed = 1;
nodes = (
(116,213,o),
(98,66,o),
(98,21,cs,{
name = hr02;
}),
(98,-93,o),
(129,-128,o),
(172,-128,cs,{
name = hr03;
}),
(190,-128,o),
(218,-120,o),
(230,-85,c),
(199,-45,o),
(193,8,o),
(193,65,cs,{
name = hr04;
}),
(193,111,o),
(201,209,o),
(207,264,cs),
(207,260,o),
(188,307,o),
(131,307,c)
);
}
);
width = 346;
}
);
unicode = 166;
},
{
glyphname = dagger;
layers = (
{
layerId = master01;
shapes = (
{
closed = 1;
nodes = (
(64,616,o),
(73,597,o),
(83,581,c),
(104,594,o),
(152,599,o),
(210,599,c),
(191,430,o),
(148,219,o),
(148,125,cs),
(148,24,o),
(179,-7,o),
(226,-7,cs),
(242,-7,o),
(270,0,o),
(295,29,c),
(262,65,o),
(257,114,o),
(257,166,cs),
(257,286,o),
(289,457,o),
(312,596,c),
(440,596,o),
(468,617,o),
(468,647,cs),
(468,663,o),
(465,678,o),
(453,693,c),
(430,679,o),
(355,672,o),
(325,672,c,{
name = hr01;
}),
(330,716,o),
(334,755,o),
(334,783,cs),
(334,862,o),
(310,889,o),
(265,889,cs),
(246,889,o),
(213,879,o),
(198,866,c),
(218,826,o),
(219,779,o),
(219,731,cs),
(219,710,o),
(217,694,o),
(217,678,c,{
name = hr02;
}),
(176,680,o),
(137,683,o),
(120,683,cs,{
name = hr03;
}),
(88,683,o),
(64,669,o),
(64,642,cs)
);
}
);
width = 432;
}
);
unicode = 8224;
},
{
glyphname = uni2113;
layers = (
{
layerId = master01;
shapes = (
{
closed = 1;
nodes = (
(204,307,o),
(284,662,o),
(284,783,cs),
(284,862,o),
(260,888,o),
(215,888,cs),
(196,888,o),
(163,879,o),
(148,866,c),
(168,827,o),
(169,780,o),
(169,731,cs),
(169,530,o),
(98,232,o),
(98,120,cs),
(98,20,o),
(159,-15,o),
(223,-15,cs),
(312,-15,o),
(357,45,o),
(357,100,cs),
(357,116,o),
(351,136,o),
(339,147,c),
(325,94,o),
(281,69,o),
(251,69,cs),
(226,69,o),
(204,84,o),
(204,123,cs)
);
}
);
width = 332;
}
);
unicode = 8467;
},
{
glyphname = daggerdbl;
layers = (
{
layerId = master01;
shapes = (
{
closed = 1;
nodes = (
(65,616,o),
(74,597,o),
(84,581,c),
(105,594,o),
(153,599,o),
(178,599,cs),
(210,599,l),
(200,509,o),
(183,408,o),
(169,319,c),
(129,321,o),
(89,324,o),
(72,324,cs),
(40,324,o),
(16,310,o),
(16,283,cs),
(16,257,o),
(25,238,o),
(35,222,c),
(56,235,o),
(104,240,o),
(158,240,c),
(152,193,o),
(148,154,o),
(148,125,cs),
(148,24,o),
(179,-7,o),
(226,-7,cs),
(242,-7,o),
(270,0,o),
(295,29,c),
(262,65,o),
(257,114,o),
(257,166,cs),
(257,188,o),
(258,212,o),
(260,237,c),
(392,237,o),
(420,258,o),
(420,288,cs),
(420,304,o),
(417,319,o),
(405,334,c),
(382,320,o),
(307,313,o),
(267,313,c),
(279,406,o),
(297,508,o),
(312,596,c),
(363,596,ls),
(441,596,o),
(469,617,o),
(469,647,cs),
(469,663,o),
(466,678,o),
(454,693,c),
(431,679,o),
(356,672,o),
(326,672,c,{
name = hr01;
}),
(331,716,o),
(334,755,o),
(334,783,cs),
(334,862,o),
(310,889,o),
(265,889,cs),
(246,889,o),
(213,879,o),
(198,866,c),
(218,826,o),
(219,779,o),
(219,731,cs),
(219,714,o),
(217,697,o),
(217,678,c,{
name = hr02;
}),
(177,679,o),
(138,683,o),
(121,683,cs,{
name = hr03;
}),
(89,683,o),
(65,669,o),
(65,642,cs)
);
}
);
width = 432;
}
);
unicode = 8225;
},
{
glyphname = estimated;
layers = (
{
layerId = master01;
shapes = (
{
closed = 1;
nodes = (
(149,-17,o),
(44,95,o),
(44,259,cs),
(44,426,o),
(146,535,o),
(302,535,cs),
(456,535,o),
(553,432,o),
(561,259,c),
(157,259,l),
(157,78,l),
(198,39,o),
(247,19,o),
(302,19,cs),
(385,19,o),
(449,59,o),
(495,139,c),
(530,118,l),
(452,15,o),
(398,-17,o),
(302,-17,c,{
name = hr00;
})
);
},
{
closed = 1;
nodes = (
(448,440,l),
(406,480,o),
(357,500,o),
(301,500,cs),
(244,500,o),
(196,480,o),
(157,440,c),
(157,295,l),
(448,295,l)
);
}
);
width = 600;
}
);
unicode = 8494;
},
{
glyphname = Euro;
layers = (
{
layerId = master01;
shapes = (
{
closed = 1;
nodes = (
(-24,497,o),
(-14,478,o),
(-3,462,c),
(17,473,o),
(63,479,o),
(92,480,c),
(85,442,o),
(80,405,o),
(78,368,c),
(57,369,o),
(39,370,o),
(28,370,cs),
(-7,370,o),
(-34,356,o),
(-34,329,cs),
(-34,303,o),
(-24,284,o),
(-13,268,c),
(7,279,o),
(51,285,o),
(80,286,c),
(93,112,o),
(178,-21,o),
(365,-21,cs),
(478,-21,o),
(584,48,o),
(584,117,cs),
(584,142,o),
(576,167,o),
(559,186,c),
(528,96,o),
(467,49,o),
(393,49,cs),
(276,49,o),
(210,133,o),
(191,284,c),
(234,284,o),
(277,283,o),
(294,283,cs),
(380,283,o),
(411,304,o),
(411,334,cs),
(411,350,o),
(408,365,o),
(394,380,c),
(369,366,o),
(287,359,o),
(253,359,cs),
(238,359,o),
(214,360,o),
(186,361,c),
(186,382,ls),
(186,407,o),
(188,441,o),
(192,478,c),
(238,477,o),
(286,477,o),
(304,477,cs),
(390,477,o),
(421,498,o),
(421,528,cs),
(421,544,o),
(418,559,o),
(404,574,c),
(379,560,o),
(297,553,o),
(263,553,cs),
(250,553,o),
(229,553,o),
(205,555,c),
(232,679,o),
(291,810,o),
(411,810,cs),
(493,810,o),
(536,762,o),
(567,693,c),
(588,712,o),
(618,738,o),
(618,793,cs),
(618,855,o),
(550,887,o),
(463,887,cs),
(283,887,o),
(165,737,o),
(111,561,c),
(80,563,o),
(52,564,o),
(38,564,cs),
(3,564,o),
(-24,550,o),
(-24,523,cs,{
name = hr00;
})
);
}
);
width = 608;
}
);
unicode = 8364;
},
{
glyphname = cent;
layers = (
{
layerId = master01;
shapes = (
{
closed = 1;
nodes = (
(257,17,o),
(243,-33,o),
(205,-69,c),
(208,-98,o),
(226,-105,o),
(239,-105,cs),
(281,-105,o),
(316,-73,o),
(332,27,cs),
(335,43,o),
(337,66,o),
(339,93,c),
(407,101,o),
(490,138,o),
(490,210,cs),
(490,229,o),
(483,251,o),
(469,266,c),
(441,202,o),
(399,170,o),
(344,165,c),
(354,322,o),
(362,558,o),
(375,716,c),
(430,706,o),
(462,669,o),
(487,619,c),
(505,635,o),
(532,665,o),
(532,711,cs),
(532,770,o),
(471,792,o),
(393,792,cs),
(389,792,o),
(385,791,o),
(382,791,c),
(383,805,o),
(385,818,o),
(387,829,cs),
(394,877,o),
(402,924,o),
(430,963,c),
(423,977,o),
(403,986,o),
(388,986,cs),
(351,986,o),
(327,960,o),
(315,881,cs),
(311,858,o),
(308,821,o),
(306,776,c),
(156,721,o),
(68,529,o),
(68,367,cs),
(68,227,o),
(129,114,o),
(269,95,c),
(265,68,ls,{
name = hr00;
})
);
},
{
closed = 1;
nodes = (
(176,483,o),
(198,669,o),
(302,710,c),
(295,550,o),
(289,328,o),
(277,175,c),
(212,201,o),
(176,278,o),
(176,402,cs)
);
}
);
width = 532;
}
);
unicode = 162;
},
{
glyphname = currency;
layers = (
{
layerId = master01;
shapes = (
{
closed = 1;
nodes = (
(322,213,o),
(359,225,o),
(389,245,c),
(437,186,o),
(477,153,o),
(508,153,cs,{
name = hr01;
}),
(552,153,o),
(566,199,o),
(566,233,c),
(517,235,o),
(489,262,o),
(452,309,c),
(484,357,o),
(500,417,o),
(500,471,cs),
(500,494,o),
(496,516,o),
(490,536,c),
(551,585,o),
(586,627,o),
(586,658,cs),
(586,702,o),
(540,716,o),
(506,716,c),
(503,671,o),
(481,644,o),
(442,611,c),
(419,630,o),
(388,641,o),
(352,641,cs),
(309,641,o),
(273,629,o),
(243,609,c),
(189,681,o),
(159,717,o),
(128,717,cs,{
name = hr02;
}),
(104,717,o),
(72,682,o),
(70,649,c),
(113,633,o),
(139,604,o),
(181,546,c),
(148,497,o),
(132,436,o),
(132,382,cs),
(132,358,o),
(135,335,o),
(141,315,c),
(80,268,o),
(50,240,o),
(50,212,cs),
(50,188,o),
(85,156,o),
(118,154,c),
(130,189,o),
(152,212,o),
(190,242,c),
(213,224,o),
(243,213,o),
(280,213,cs)
);
},
{
closed = 1;
nodes = (
(407,400,o),
(379,284,o),
(303,284,cs),
(250,284,o),
(224,324,o),
(224,406,cs),
(224,453,o),
(252,569,o),
(328,569,cs),
(381,569,o),
(407,529,o),
(407,447,cs)
);
}
);
width = 626;
}
);
unicode = 164;
},
{
glyphname = dollar;
layers = (
{
layerId = master01;
shapes = (
{
closed = 1;
nodes = (
(200,68,o),
(143,124,o),
(119,227,c),
(91,196,o),
(67,166,o),
(67,123,cs),
(67,38,o),
(159,-6,o),
(257,-15,c),
(248,-35,o),
(236,-53,o),
(220,-69,c),
(223,-98,o),
(241,-105,o),
(254,-105,cs),
(289,-105,o),
(320,-82,o),
(338,-14,c),
(475,1,o),
(568,95,o),
(568,211,cs),
(568,317,o),
(522,369,o),
(451,430,cs),
(423,454,o),
(398,474,o),
(376,492,c),
(383,616,o),
(390,735,o),
(399,808,c),
(460,791,o),
(505,744,o),
(525,695,c),
(543,711,o),
(570,743,o),
(570,780,cs),
(570,851,o),
(496,886,o),
(413,889,c),
(419,915,o),
(429,940,o),
(445,963,c),
(438,977,o),
(418,986,o),
(403,986,cs),
(366,986,o),
(342,960,o),
(330,883,c),
(210,861,o),
(129,782,o),
(129,654,cs),
(129,559,o),
(181,501,o),
(248,447,cs),
(268,430,o),
(287,415,o),
(305,401,c),
(299,269,o),
(292,143,o),
(277,53,c,{
name = hr00;
})
);
},
{
closed = 1;
nodes = (
(469,98,o),
(410,60,o),
(350,51,c),
(357,113,o),
(363,226,o),
(369,349,c),
(437,291,o),
(469,249,o),
(469,180,cs)
);
},
{
closed = 1;
nodes = (
(222,758,o),
(267,802,o),
(323,812,c),
(318,745,o),
(315,647,o),
(311,544,c),
(242,599,o),
(222,621,o),
(222,684,cs)
);
}
);
width = 660;
}
);
unicode = 36;
},
{
glyphname = franc;
layers = (
{
layerId = master01;
shapes = (
{
closed = 1;
nodes = (
(362,786,o),
(436,776,o),
(504,776,cs),
(573,776,o),
(612,793,o),
(619,884,c,{
name = hr01;
}),
(587,868,o),
(532,865,o),
(470,865,cs,{
name = hr02;
}),
(420,865,o),
(368,867,o),
(319,867,cs),
(262,867,o),
(196,864,o),
(165,839,c),
(173,815,o),
(180,769,o),
(180,741,cs),
(180,672,o),
(167,575,o),
(153,478,c),
(104,474,o),
(96,460,o),
(90,413,c),
(109,413,o),
(126,413,o),
(142,412,c),
(124,299,o),
(106,185,o),
(106,125,cs,{
name = hr03;
}),
(106,24,o),
(137,-7,o),
(184,-7,cs),
(200,-7,o),
(228,0,o),
(253,29,c),
(220,65,o),
(214,114,o),
(214,166,cs),
(214,233,o),
(225,319,o),
(238,407,c),
(288,403,o),
(327,398,o),
(369,398,cs),
(444,398,o),
(499,403,o),
(507,512,c),
(456,486,o),
(351,480,o),
(250,479,c,{
name = hr04;
}),
(270,603,o),
(292,724,o),
(293,798,c)
);
},
{
pos = (-32,-197);
ref = barra;
}
);
width = 570;
}
);
unicode = 8355;
},
{
glyphname = lira;
layers = (
{
layerId = master01;
shapes = (
{
closed = 1;
nodes = (
(282,749,o),
(311,817,o),
(403,817,cs),
(496,817,o),
(533,752,o),
(537,663,c),
(594,676,o),
(615,703,o),
(615,746,cs),
(615,806,o),
(570,887,o),
(412,887,cs),
(260,887,o),
(175,756,o),
(175,571,cs),
(175,468,o),
(182,360,o),
(182,299,cs),
(182,207,o),
(158,118,o),
(62,21,c),
(73,-1,o),
(92,-16,o),
(117,-16,cs),
(131,-16,o),
(142,-9,o),
(153,1,c),
(214,16,o),
(264,19,o),
(347,19,cs),
(481,19,o),
(536,10,o),
(597,-14,c),
(598,-2,o),
(599,10,o),
(599,21,cs),
(599,108,o),
(540,116,o),
(447,116,cs),
(405,116,o),
(302,104,o),
(214,79,c),
(275,195,o),
(283,338,o),
(283,466,cs),
(283,507,o),
(282,547,o),
(282,584,cs,{
name = hr00;
})
);
},
{
pos = (28,85);
ref = barra;
scale = (1.1,1);
},
{
pos = (28,-109);
ref = barra;
scale = (1.1,1);
}
);
width = 669;
}
);
unicode = 8356;
},
{
glyphname = sterling;
layers = (
{
layerId = master01;
shapes = (
{
closed = 1;
nodes = (
(76,411,o),
(85,392,o),
(95,376,c),
(113,387,o),
(154,393,o),
(180,394,c),
(181,362,o),
(182,330,o),
(182,299,cs),
(182,207,o),
(158,118,o),
(62,21,c),
(73,-1,o),
(92,-16,o),
(117,-16,cs),
(131,-16,o),
(142,-9,o),
(153,1,c),
(214,16,o),
(264,19,o),
(347,19,cs),
(481,19,o),
(536,10,o),
(597,-14,c),
(598,-2,o),
(599,10,o),
(599,21,cs),
(599,108,o),
(540,116,o),
(447,116,cs),
(405,116,o),
(302,104,o),
(214,79,c),
(273,174,o),
(275,264,o),
(275,352,cs),
(275,392,l),
(316,391,o),
(358,391,o),
(374,391,cs),
(452,391,o),
(480,412,o),
(480,442,cs),
(480,458,o),
(477,473,o),
(465,488,c),
(442,474,o),
(367,467,o),
(337,467,cs),
(324,467,o),
(303,468,o),
(278,469,c),
(280,507,o),
(282,545,o),
(282,584,cs),
(282,749,o),
(311,817,o),
(403,817,cs),
(496,817,o),
(533,752,o),
(537,663,c),
(594,676,o),
(615,703,o),
(615,746,cs),
(615,806,o),
(570,887,o),
(412,887,cs),
(260,887,o),
(175,756,o),
(175,571,cs),
(175,538,o),
(175,507,o),
(176,476,c),
(157,477,o),
(141,478,o),
(132,478,cs),
(100,478,o),
(76,464,o),
(76,437,cs,{
name = hr00;
})
);
}
);
width = 669;
}
);
unicode = 163;
},
{
glyphname = yen;
layers = (
{
layerId = master01;
shapes = (
{
closed = 1;
nodes = (
(484,701,o),
(381,581,o),
(302,419,c),
(273,555,o),
(227,729,o),
(208,785,cs),
(181,861,o),
(145,889,o),
(111,889,cs),
(87,889,o),
(44,874,o),
(27,823,c),
(95,823,o),
(152,648,o),
(196,459,c),
(167,459,o),
(139,461,o),
(125,461,cs),
(91,461,o),
(64,448,o),
(64,421,cs),
(64,395,o),
(74,375,o),
(85,360,c),
(108,373,o),
(162,378,o),
(189,378,cs),
(194,378,o),
(203,378,o),
(214,377,c),
(228,309,l),
(220,260,l),
(174,262,o),
(129,265,o),
(109,265,cs),
(75,265,o),
(48,252,o),
(48,225,cs),
(48,198,o),
(58,179,o),
(69,164,c),
(92,177,o),
(146,182,o),
(173,182,cs),
(179,182,o),
(193,182,o),
(209,181,c),
(206,156,o),
(205,134,o),
(205,118,cs),
(205,23,o),
(234,-7,o),
(280,-7,cs),
(296,-7,o),
(325,0,o),
(350,29,c),
(320,62,o),
(314,107,o),
(314,179,c),
(341,178,o),
(364,178,o),
(376,178,cs),
(462,178,o),
(493,200,o),
(493,230,cs),
(493,246,o),
(489,261,o),
(476,276,c),
(451,262,o),
(369,255,o),
(320,255,c),
(324,301,o),
(331,339,o),
(348,375,c),
(479,375,o),
(509,396,o),
(509,426,cs),
(509,442,o),
(505,457,o),
(492,472,c),
(475,462,o),
(430,455,o),
(393,453,c),
(477,592,o),
(591,779,o),
(591,837,cs),
(591,872,o),
(573,885,o),
(546,885,cs),
(529,885,o),
(494,877,o),
(474,849,c),
(482,834,o),
(484,818,o),
(484,800,cs,{
name = hr00;
})
);
}
);
width = 552;
}
);
unicode = 165;
},
{
glyphname = plus;
layers = (
{
layerId = master01;
shapes = (
{
closed = 1;
nodes = (
(337,640,o),
(319,658,o),
(287,658,cs),
(271,658,o),
(244,650,o),
(232,640,c),
(244,615,o),
(246,588,o),
(246,560,cs),
(246,539,o),
(241,509,o),
(236,476,c),
(184,478,o),
(131,482,o),
(109,482,cs),
(73,482,o),
(49,464,o),
(49,437,cs),
(49,411,o),
(58,387,o),
(68,372,c),
(91,384,o),
(146,389,o),
(174,389,cs),
(182,389,o),
(200,389,o),
(222,388,c),
(218,359,o),
(216,330,o),
(216,303,cs,{
name = hr01;
}),
(216,229,o),
(240,205,o),
(278,205,cs),
(292,205,o),
(315,211,o),
(336,235,c),
(313,262,o),
(307,285,o),
(307,319,cs),
(307,337,o),
(309,361,o),
(312,386,c),
(383,386,ls),
(471,386,o),
(501,412,o),
(501,442,cs),
(501,458,o),
(499,478,o),
(486,493,c),
(461,479,o),
(376,472,o),
(342,472,cs),
(324,472,l),
(330,517,o),
(337,560,o),
(337,586,cs)
);
}
);
width = 544;
}
);
unicode = 43;
},
{
glyphname = minus;
layers = (
{
layerId = master01;
shapes = (
{
closed = 1;
nodes = (
(49,411,o),
(58,387,o),
(68,372,c),
(91,384,o),
(146,389,o),
(174,389,cs,{
name = hr01;
}),
(203,389,o),
(347,386,o),
(383,386,cs),
(471,386,o),
(501,412,o),
(501,442,cs),
(501,458,o),
(499,478,o),
(486,493,c),
(461,479,o),
(376,472,o),
(342,472,cs),
(296,472,o),
(150,482,o),
(109,482,cs),
(73,482,o),
(49,464,o),
(49,437,cs)
);
}
);
width = 544;
}
);
unicode = 8722;
},
{
glyphname = multiply;
layers = (
{
layerId = master01;
shapes = (
{
closed = 1;
nodes = (
(111,637,o),
(78,603,o),
(76,570,c),
(120,557,o),
(167,499,o),
(216,435,c),
(176,399,o),
(135,363,o),
(101,329,cs),
(86,314,o),
(78,297,o),
(78,282,cs),
(78,249,o),
(123,226,o),
(149,222,c),
(159,254,o),
(208,306,o),
(268,364,c),
(321,294,o),
(374,234,o),
(420,234,cs),
(464,234,o),
(478,280,o),
(478,314,c),
(443,317,o),
(422,329,o),
(398,353,cs),
(383,368,o),
(361,397,o),
(336,430,c),
(405,497,ls),
(445,537,o),
(461,568,o),
(461,591,cs),
(461,615,o),
(433,643,o),
(402,645,c),
(389,604,o),
(342,553,o),
(284,498,c),
(230,569,o),
(171,637,o),
(134,637,cs,{
name = hr00;
})
);
}
);
width = 544;
}
);
unicode = 215;
},
{
glyphname = divide;
layers = (
{
layerId = master01;
shapes = (
{
closed = 1;
nodes = (
(49,411,o),
(58,387,o),
(68,372,c),
(91,384,o),
(146,389,o),
(174,389,cs),
(203,389,o),
(347,386,o),
(383,386,cs),
(471,386,o),
(501,412,o),
(501,442,cs),
(501,458,o),
(499,478,o),
(486,493,c),
(461,479,o),
(376,472,o),
(342,472,cs),
(296,472,o),
(150,482,o),
(109,482,cs),
(73,482,o),
(49,464,o),
(49,437,cs,{
name = hr00;
})
);
},
{
closed = 1;
nodes = (
(329,274,o),
(298,288,o),
(263,288,cs),
(237,288,o),
(211,279,o),
(183,261,c),
(178,234,o),
(175,212,o),
(175,196,cs),
(175,159,o),
(191,141,o),
(237,141,cs),
(261,141,o),
(288,151,o),
(316,169,c),
(325,197,o),
(329,221,o),
(329,238,cs)
);
},
{
closed = 1;
nodes = (
(377,707,o),
(346,721,o),
(311,721,cs),
(285,721,o),
(259,712,o),
(231,694,c),
(226,667,o),
(223,645,o),
(223,629,cs),
(223,592,o),
(239,574,o),
(285,574,cs),
(309,574,o),
(336,584,o),
(364,602,c),
(373,630,o),
(377,654,o),
(377,671,cs)
);
}
);
width = 544;
}
);
unicode = 247;
},
{
glyphname = equal;
layers = (
{
layerId = master01;
shapes = (
{
closed = 1;
nodes = (
(49,289,o),
(58,265,o),
(68,250,c),
(91,262,o),
(146,267,o),
(174,267,cs,{
name = hr01;
}),
(203,267,o),
(347,264,o),
(383,264,cs),
(471,264,o),
(501,290,o),
(501,320,cs),
(501,336,o),
(499,356,o),
(486,371,c),
(461,357,o),
(376,350,o),
(342,350,cs),
(296,350,o),
(150,360,o),
(109,360,cs),
(73,360,o),
(49,342,o),
(49,315,cs)
);
},
{
closed = 1;
nodes = (
(49,533,o),
(58,509,o),
(68,494,c),
(91,506,o),
(146,511,o),
(174,511,cs),
(203,511,o),
(347,508,o),
(383,508,cs),
(471,508,o),
(501,534,o),
(501,564,cs),
(501,581,o),
(499,600,o),
(486,615,c),
(461,601,o),
(376,594,o),
(342,594,cs),
(296,594,o),
(150,604,o),
(109,604,cs),
(73,604,o),
(49,586,o),
(49,560,cs)
);
}
);
width = 544;
}
);
unicode = 61;
},
